<svg width="50" height="43" viewBox="0 0 50 43" fill="none" xmlns="http://www.w3.org/2000/svg">
<path fill-rule="evenodd" clip-rule="evenodd" d="M39.5841 28.1097H33.7644L27.8027 34.0672C27.7631 34.1069 27.7119 34.1257 27.667 34.157C27.6201 34.1914 27.5846 34.2363 27.5313 34.2624C27.5199 34.2686 27.5073 34.2655 27.4959 34.2718C27.3612 34.3323 27.2182 34.3699 27.0732 34.3709L27.069 34.372H27.0679C26.8999 34.372 26.7392 34.3177 26.5878 34.2373C26.545 34.2144 26.5096 34.1872 26.4699 34.1591C26.424 34.1257 26.3718 34.1069 26.33 34.0651C26.2674 34.0025 26.2319 33.9253 26.1881 33.8522C26.1745 33.8282 26.1474 33.8188 26.1349 33.7927L19.8048 21.0375L16.5567 27.5336C16.5452 27.5555 16.5212 27.5638 16.5098 27.5847C16.4346 27.7121 16.3376 27.8164 16.2186 27.901C16.181 27.9271 16.1497 27.9531 16.11 27.974C15.9639 28.0533 15.8032 28.1097 15.6257 28.1097H9.37496C8.79987 28.1097 8.33333 27.6432 8.33333 27.066C8.33333 26.4888 8.79987 26.0223 9.37496 26.0223H14.9818L18.8769 18.232C18.8957 18.1934 18.9301 18.1694 18.9531 18.135C18.9907 18.0765 19.0303 18.0212 19.0804 17.9711C19.1326 17.9189 19.189 17.8782 19.2495 17.8396C19.2839 17.8166 19.3069 17.7843 19.3445 17.7655C19.3664 17.754 19.3914 17.7561 19.4144 17.7467C19.4781 17.7196 19.5438 17.706 19.6127 17.6924C19.6806 17.6799 19.7463 17.6663 19.8152 17.6663C19.8747 17.6663 19.931 17.6789 19.9905 17.6903C20.0657 17.7039 20.1377 17.7185 20.2076 17.7488C20.2295 17.7571 20.2536 17.7561 20.2744 17.7665C20.312 17.7853 20.335 17.8177 20.3694 17.8406C20.4289 17.8803 20.4853 17.92 20.5374 17.9721C20.5886 18.0233 20.6282 18.0796 20.6669 18.1391C20.6888 18.1736 20.7222 18.1976 20.741 18.2352L27.356 31.5654L32.5986 26.327C32.609 26.3156 32.6236 26.3124 32.6351 26.302C32.7238 26.2206 32.823 26.1496 32.9357 26.1027C33.0557 26.0536 33.183 26.0296 33.3104 26.0275C33.3187 26.0265 33.325 26.0223 33.3333 26.0223H39.5841C40.1592 26.0223 40.6257 26.4888 40.6257 27.066C40.6257 27.6432 40.1592 28.1097 39.5841 28.1097Z" fill="#E51B23"/>
<path fill-rule="evenodd" clip-rule="evenodd" d="M39.5841 28.1097H33.7644L27.8027 34.0672C27.7631 34.1069 27.7119 34.1257 27.667 34.157C27.6201 34.1914 27.5846 34.2363 27.5313 34.2624C27.5199 34.2686 27.5073 34.2655 27.4959 34.2718C27.3612 34.3323 27.2182 34.3699 27.0732 34.3709L27.069 34.372H27.0679C26.8999 34.372 26.7392 34.3177 26.5878 34.2373C26.545 34.2144 26.5096 34.1872 26.4699 34.1591C26.424 34.1257 26.3718 34.1069 26.33 34.0651C26.2674 34.0025 26.2319 33.9253 26.1881 33.8522C26.1745 33.8282 26.1474 33.8188 26.1349 33.7927L19.8048 21.0375L16.5567 27.5336C16.5452 27.5555 16.5212 27.5638 16.5098 27.5847C16.4346 27.7121 16.3376 27.8164 16.2186 27.901C16.181 27.9271 16.1497 27.9531 16.11 27.974C15.9639 28.0533 15.8032 28.1097 15.6257 28.1097H9.37496C8.79987 28.1097 8.33333 27.6432 8.33333 27.066C8.33333 26.4888 8.79987 26.0223 9.37496 26.0223H14.9818L18.8769 18.232C18.8957 18.1934 18.9301 18.1694 18.9531 18.135C18.9907 18.0765 19.0303 18.0212 19.0804 17.9711C19.1326 17.9189 19.189 17.8782 19.2495 17.8396C19.2839 17.8166 19.3069 17.7843 19.3445 17.7655C19.3664 17.754 19.3914 17.7561 19.4144 17.7467C19.4781 17.7196 19.5438 17.706 19.6127 17.6924C19.6806 17.6799 19.7463 17.6663 19.8152 17.6663C19.8747 17.6663 19.931 17.6789 19.9905 17.6903C20.0657 17.7039 20.1377 17.7185 20.2076 17.7488C20.2295 17.7571 20.2536 17.7561 20.2744 17.7665C20.312 17.7853 20.335 17.8177 20.3694 17.8406C20.4289 17.8803 20.4853 17.92 20.5374 17.9721C20.5886 18.0233 20.6282 18.0796 20.6669 18.1391C20.6888 18.1736 20.7222 18.1976 20.741 18.2352L27.356 31.5654L32.5986 26.327C32.609 26.3156 32.6236 26.3124 32.6351 26.302C32.7238 26.2206 32.823 26.1496 32.9357 26.1027C33.0557 26.0536 33.183 26.0296 33.3104 26.0275C33.3187 26.0265 33.325 26.0223 33.3333 26.0223H39.5841C40.1592 26.0223 40.6257 26.4888 40.6257 27.066C40.6257 27.6432 40.1592 28.1097 39.5841 28.1097Z" fill="url(#paint0_linear)"/>
<path fill-rule="evenodd" clip-rule="evenodd" d="M46.875 42.6637H3.125C1.40208 42.6637 0 41.2626 0 39.5408V4.12305C0 2.40013 1.40208 0.998047 3.125 0.998047H46.875C48.5979 0.998047 50 2.40013 50 4.12305V39.5408C50 41.2626 48.5979 42.6637 46.875 42.6637ZM47.9167 4.12305C47.9167 3.54805 47.449 3.08138 46.875 3.08138H3.125C2.55104 3.08138 2.08333 3.54805 2.08333 4.12305V9.33138H47.9167V4.12305ZM47.9167 11.4147H2.08333V39.5408C2.08333 40.1147 2.55104 40.5814 3.125 40.5814H46.875C47.449 40.5814 47.9167 40.1147 47.9167 39.5408V11.4147ZM5.22917 5.2095H5.23958C5.81563 5.2095 6.28125 5.67513 6.28125 6.25117C6.28125 6.82617 5.81563 7.29284 5.23958 7.29284C4.66354 7.29284 4.19271 6.82617 4.19271 6.25117C4.19271 5.67513 4.65417 5.2095 5.22917 5.2095ZM8.35417 5.2095H8.36458C8.93958 5.2095 9.40625 5.67513 9.40625 6.25117C9.40625 6.82617 8.93958 7.29284 8.36458 7.29284C7.78958 7.29284 7.31771 6.82617 7.31771 6.25117C7.31771 5.67513 7.77917 5.2095 8.35417 5.2095ZM11.4792 5.2095H11.4896C12.0656 5.2095 12.5312 5.67513 12.5312 6.25117C12.5312 6.82617 12.0656 7.29284 11.4896 7.29284C10.9135 7.29284 10.4427 6.82617 10.4427 6.25117C10.4427 5.67513 10.9042 5.2095 11.4792 5.2095Z" fill="#E51B23"/>
<path fill-rule="evenodd" clip-rule="evenodd" d="M46.875 42.6637H3.125C1.40208 42.6637 0 41.2626 0 39.5408V4.12305C0 2.40013 1.40208 0.998047 3.125 0.998047H46.875C48.5979 0.998047 50 2.40013 50 4.12305V39.5408C50 41.2626 48.5979 42.6637 46.875 42.6637ZM47.9167 4.12305C47.9167 3.54805 47.449 3.08138 46.875 3.08138H3.125C2.55104 3.08138 2.08333 3.54805 2.08333 4.12305V9.33138H47.9167V4.12305ZM47.9167 11.4147H2.08333V39.5408C2.08333 40.1147 2.55104 40.5814 3.125 40.5814H46.875C47.449 40.5814 47.9167 40.1147 47.9167 39.5408V11.4147ZM5.22917 5.2095H5.23958C5.81563 5.2095 6.28125 5.67513 6.28125 6.25117C6.28125 6.82617 5.81563 7.29284 5.23958 7.29284C4.66354 7.29284 4.19271 6.82617 4.19271 6.25117C4.19271 5.67513 4.65417 5.2095 5.22917 5.2095ZM8.35417 5.2095H8.36458C8.93958 5.2095 9.40625 5.67513 9.40625 6.25117C9.40625 6.82617 8.93958 7.29284 8.36458 7.29284C7.78958 7.29284 7.31771 6.82617 7.31771 6.25117C7.31771 5.67513 7.77917 5.2095 8.35417 5.2095ZM11.4792 5.2095H11.4896C12.0656 5.2095 12.5312 5.67513 12.5312 6.25117C12.5312 6.82617 12.0656 7.29284 11.4896 7.29284C10.9135 7.29284 10.4427 6.82617 10.4427 6.25117C10.4427 5.67513 10.9042 5.2095 11.4792 5.2095Z" fill="url(#paint1_linear)"/>
<defs>
<linearGradient id="paint0_linear" x1="25" y1="0.998047" x2="25" y2="42.6637" gradientUnits="userSpaceOnUse">
<stop stop-color="white" stop-opacity="0.1"/>
<stop offset="1" stop-opacity="0"/>
</linearGradient>
<linearGradient id="paint1_linear" x1="25" y1="0.998047" x2="25" y2="42.6637" gradientUnits="userSpaceOnUse">
<stop stop-color="white" stop-opacity="0.1"/>
<stop offset="1" stop-opacity="0"/>
</linearGradient>
</defs>
</svg>
