<svg width="50" height="50" viewBox="0 0 50 50" fill="none" xmlns="http://www.w3.org/2000/svg">
<path fill-rule="evenodd" clip-rule="evenodd" d="M49.5417 49.8207C49.3677 49.9385 49.1635 49.999 48.9583 49.999C48.8271 49.999 48.6958 49.975 48.5719 49.926L33.3219 43.8257L17.0333 49.9343C17.0229 49.9374 17.0125 49.9364 17.0021 49.9395C16.8948 49.976 16.7823 50 16.6667 50C16.5458 50 16.4281 49.9729 16.3167 49.9333C16.3042 49.9291 16.2917 49.9301 16.2802 49.926L0.655208 43.6756C0.259375 43.5171 0 43.1345 0 42.7081V1.0426C0 0.720437 0.147917 0.418083 0.401042 0.221031C0.653125 0.0239798 0.982292 -0.0458744 1.29375 0.031278L9.62708 2.11439C10.1854 2.2541 10.525 2.82023 10.3854 3.37907C10.2458 3.93477 9.68021 4.27571 9.12292 4.136L2.08333 2.37609V42.0022L15.625 47.4196V33.333C15.625 32.7575 16.0906 32.2914 16.6667 32.2914C17.2427 32.2914 17.7083 32.7575 17.7083 33.333V47.454L32.2917 41.9855V33.333C32.2917 32.7575 32.7573 32.2914 33.3333 32.2914C33.9094 32.2914 34.375 32.7575 34.375 33.333V42.0022L47.9167 47.4196V7.93628L40.1594 4.0578C39.6448 3.80028 39.4354 3.17368 39.6927 2.65863C39.951 2.14463 40.576 1.93611 41.0906 2.19363L49.424 6.36091C49.7771 6.53711 50 6.89785 50 7.29195V48.9584C50 49.3035 49.8281 49.6268 49.5417 49.8207ZM25.6375 35.1982C25.451 35.3431 25.225 35.4171 25 35.4171C24.775 35.4171 24.549 35.3431 24.3625 35.1982C23.8354 34.7895 11.4583 25.062 11.4583 13.6091C11.4583 6.10547 17.5333 0 25 0C32.4667 0 38.5417 6.10547 38.5417 13.6091C38.5417 25.062 26.1646 34.7895 25.6375 35.1982ZM25 2.08312C18.6823 2.08312 13.5417 7.25337 13.5417 13.6091C13.5417 22.6432 22.501 30.8985 25 33.0244C27.4958 30.8964 36.4583 22.6286 36.4583 13.6091C36.4583 7.25337 31.3177 2.08312 25 2.08312ZM18.75 13.5413C18.75 10.0955 21.5531 7.29195 25 7.29195C28.4469 7.29195 31.25 10.0955 31.25 13.5413C31.25 16.9881 28.4469 19.7917 25 19.7917C21.5531 19.7917 18.75 16.9881 18.75 13.5413ZM29.1667 13.5413C29.1667 11.2444 27.2979 9.37611 25 9.37611C22.7021 9.37611 20.8333 11.2444 20.8333 13.5413C20.8333 15.8392 22.7021 17.7086 25 17.7086C27.2979 17.7086 29.1667 15.8392 29.1667 13.5413Z" fill="#E51B23"/>
<path fill-rule="evenodd" clip-rule="evenodd" d="M49.5417 49.8207C49.3677 49.9385 49.1635 49.999 48.9583 49.999C48.8271 49.999 48.6958 49.975 48.5719 49.926L33.3219 43.8257L17.0333 49.9343C17.0229 49.9374 17.0125 49.9364 17.0021 49.9395C16.8948 49.976 16.7823 50 16.6667 50C16.5458 50 16.4281 49.9729 16.3167 49.9333C16.3042 49.9291 16.2917 49.9301 16.2802 49.926L0.655208 43.6756C0.259375 43.5171 0 43.1345 0 42.7081V1.0426C0 0.720437 0.147917 0.418083 0.401042 0.221031C0.653125 0.0239798 0.982292 -0.0458744 1.29375 0.031278L9.62708 2.11439C10.1854 2.2541 10.525 2.82023 10.3854 3.37907C10.2458 3.93477 9.68021 4.27571 9.12292 4.136L2.08333 2.37609V42.0022L15.625 47.4196V33.333C15.625 32.7575 16.0906 32.2914 16.6667 32.2914C17.2427 32.2914 17.7083 32.7575 17.7083 33.333V47.454L32.2917 41.9855V33.333C32.2917 32.7575 32.7573 32.2914 33.3333 32.2914C33.9094 32.2914 34.375 32.7575 34.375 33.333V42.0022L47.9167 47.4196V7.93628L40.1594 4.0578C39.6448 3.80028 39.4354 3.17368 39.6927 2.65863C39.951 2.14463 40.576 1.93611 41.0906 2.19363L49.424 6.36091C49.7771 6.53711 50 6.89785 50 7.29195V48.9584C50 49.3035 49.8281 49.6268 49.5417 49.8207ZM25.6375 35.1982C25.451 35.3431 25.225 35.4171 25 35.4171C24.775 35.4171 24.549 35.3431 24.3625 35.1982C23.8354 34.7895 11.4583 25.062 11.4583 13.6091C11.4583 6.10547 17.5333 0 25 0C32.4667 0 38.5417 6.10547 38.5417 13.6091C38.5417 25.062 26.1646 34.7895 25.6375 35.1982ZM25 2.08312C18.6823 2.08312 13.5417 7.25337 13.5417 13.6091C13.5417 22.6432 22.501 30.8985 25 33.0244C27.4958 30.8964 36.4583 22.6286 36.4583 13.6091C36.4583 7.25337 31.3177 2.08312 25 2.08312ZM18.75 13.5413C18.75 10.0955 21.5531 7.29195 25 7.29195C28.4469 7.29195 31.25 10.0955 31.25 13.5413C31.25 16.9881 28.4469 19.7917 25 19.7917C21.5531 19.7917 18.75 16.9881 18.75 13.5413ZM29.1667 13.5413C29.1667 11.2444 27.2979 9.37611 25 9.37611C22.7021 9.37611 20.8333 11.2444 20.8333 13.5413C20.8333 15.8392 22.7021 17.7086 25 17.7086C27.2979 17.7086 29.1667 15.8392 29.1667 13.5413Z" fill="url(#paint0_linear)"/>
<defs>
<linearGradient id="paint0_linear" x1="25" y1="0" x2="25" y2="50" gradientUnits="userSpaceOnUse">
<stop stop-color="white" stop-opacity="0.1"/>
<stop offset="1" stop-opacity="0"/>
</linearGradient>
</defs>
</svg>
