<svg width="50" height="50" viewBox="0 0 50 50" fill="none" xmlns="http://www.w3.org/2000/svg">
<path fill-rule="evenodd" clip-rule="evenodd" d="M47.3615 17.6653H45.8333C45.2573 17.6653 44.7917 17.1986 44.7917 16.6236C44.7917 16.0476 45.2573 15.5819 45.8333 15.5819H47.3615C47.6625 15.5819 47.9167 15.3163 47.9167 15.0028V3.6611C47.9167 3.34652 47.6625 3.08089 47.3615 3.08089H2.63854C2.3375 3.08089 2.08333 3.34652 2.08333 3.6611V15.0028C2.08333 15.3163 2.3375 15.5819 2.63854 15.5819H4.16667C4.74271 15.5819 5.20833 16.0476 5.20833 16.6236C5.20833 17.1986 4.74271 17.6653 4.16667 17.6653H2.63854C1.18437 17.6653 0 16.4705 0 15.0028V3.6611C0 2.19235 1.18437 0.997559 2.63854 0.997559H47.3615C48.8156 0.997559 50 2.19235 50 3.6611V15.0028C50 16.4705 48.8156 17.6653 47.3615 17.6653ZM9.375 8.29027H40.625C41.201 8.29027 41.6667 8.75693 41.6667 9.33193V48.9153C41.6667 49.4903 41.201 49.9569 40.625 49.9569H9.375C8.79896 49.9569 8.33333 49.4903 8.33333 48.9153V9.33193C8.33333 8.75693 8.79896 8.29027 9.375 8.29027ZM10.4167 47.8726H39.5833V10.3736H10.4167V47.8726ZM24.999 27.0403C27.2969 27.0403 29.1667 28.908 29.1667 31.2059C29.1667 33.1403 27.8333 34.758 26.0406 35.2236L26.0417 37.4569C26.0417 38.0319 25.576 38.4986 25 38.4986C24.425 38.4986 23.9583 38.0319 23.9583 37.4569L23.9573 35.3726H21.875C21.299 35.3726 20.8333 34.9059 20.8333 34.3309C20.8333 33.7549 21.299 33.2882 21.875 33.2882H24.999C26.1479 33.2882 27.0833 32.3549 27.0833 31.2059C27.0833 30.058 26.1479 29.1226 24.999 29.1226C22.7021 29.1226 20.8333 27.2549 20.8333 24.9569C20.8333 23.0205 22.1667 21.4038 23.9583 20.9382V18.7069C23.9583 18.1319 24.424 17.6653 25 17.6653C25.576 17.6653 26.0417 18.1319 26.0417 18.7069V20.7913H28.125C28.701 20.7913 29.1667 21.2569 29.1667 21.833C29.1667 22.408 28.701 22.8746 28.125 22.8746H24.999C23.85 22.8746 22.9167 23.808 22.9167 24.9569C22.9167 26.1049 23.85 27.0403 24.999 27.0403Z" fill="#E51B23"/>
<path fill-rule="evenodd" clip-rule="evenodd" d="M47.3615 17.6653H45.8333C45.2573 17.6653 44.7917 17.1986 44.7917 16.6236C44.7917 16.0476 45.2573 15.5819 45.8333 15.5819H47.3615C47.6625 15.5819 47.9167 15.3163 47.9167 15.0028V3.6611C47.9167 3.34652 47.6625 3.08089 47.3615 3.08089H2.63854C2.3375 3.08089 2.08333 3.34652 2.08333 3.6611V15.0028C2.08333 15.3163 2.3375 15.5819 2.63854 15.5819H4.16667C4.74271 15.5819 5.20833 16.0476 5.20833 16.6236C5.20833 17.1986 4.74271 17.6653 4.16667 17.6653H2.63854C1.18437 17.6653 0 16.4705 0 15.0028V3.6611C0 2.19235 1.18437 0.997559 2.63854 0.997559H47.3615C48.8156 0.997559 50 2.19235 50 3.6611V15.0028C50 16.4705 48.8156 17.6653 47.3615 17.6653ZM9.375 8.29027H40.625C41.201 8.29027 41.6667 8.75693 41.6667 9.33193V48.9153C41.6667 49.4903 41.201 49.9569 40.625 49.9569H9.375C8.79896 49.9569 8.33333 49.4903 8.33333 48.9153V9.33193C8.33333 8.75693 8.79896 8.29027 9.375 8.29027ZM10.4167 47.8726H39.5833V10.3736H10.4167V47.8726ZM24.999 27.0403C27.2969 27.0403 29.1667 28.908 29.1667 31.2059C29.1667 33.1403 27.8333 34.758 26.0406 35.2236L26.0417 37.4569C26.0417 38.0319 25.576 38.4986 25 38.4986C24.425 38.4986 23.9583 38.0319 23.9583 37.4569L23.9573 35.3726H21.875C21.299 35.3726 20.8333 34.9059 20.8333 34.3309C20.8333 33.7549 21.299 33.2882 21.875 33.2882H24.999C26.1479 33.2882 27.0833 32.3549 27.0833 31.2059C27.0833 30.058 26.1479 29.1226 24.999 29.1226C22.7021 29.1226 20.8333 27.2549 20.8333 24.9569C20.8333 23.0205 22.1667 21.4038 23.9583 20.9382V18.7069C23.9583 18.1319 24.424 17.6653 25 17.6653C25.576 17.6653 26.0417 18.1319 26.0417 18.7069V20.7913H28.125C28.701 20.7913 29.1667 21.2569 29.1667 21.833C29.1667 22.408 28.701 22.8746 28.125 22.8746H24.999C23.85 22.8746 22.9167 23.808 22.9167 24.9569C22.9167 26.1049 23.85 27.0403 24.999 27.0403Z" fill="url(#paint0_linear)"/>
<defs>
<linearGradient id="paint0_linear" x1="25" y1="0.997559" x2="25" y2="49.9569" gradientUnits="userSpaceOnUse">
<stop stop-color="white" stop-opacity="0.1"/>
<stop offset="1" stop-opacity="0"/>
</linearGradient>
</defs>
</svg>
