<svg width="50" height="50" viewBox="0 0 50 50" fill="none" xmlns="http://www.w3.org/2000/svg">
<path fill-rule="evenodd" clip-rule="evenodd" d="M46.875 49.999H3.125C1.40208 49.999 0 48.5979 0 46.875V9.375C0 7.65104 1.40208 6.25 3.125 6.25H13.5417V1.04062C13.5417 0.465625 14.0073 0 14.5833 0C15.1594 0 15.625 0.465625 15.625 1.04062V6.25H34.375V1.04062C34.375 0.465625 34.8406 0 35.4167 0C35.9927 0 36.4583 0.465625 36.4583 1.04062V6.25H46.875C48.5979 6.25 50 7.65104 50 9.375V46.875C50 48.5979 48.5979 49.999 46.875 49.999ZM47.9167 9.375C47.9167 8.80104 47.45 8.33229 46.875 8.33229H36.4583V11.4583C36.4583 12.0333 35.9927 12.499 35.4167 12.499C34.8406 12.499 34.375 12.0333 34.375 11.4583V8.33229H15.625V11.4583C15.625 12.0333 15.1594 12.499 14.5833 12.499C14.0073 12.499 13.5417 12.0333 13.5417 11.4583V8.33229H3.125C2.55 8.33229 2.08333 8.80104 2.08333 9.375V46.875C2.08333 47.449 2.55 47.9156 3.125 47.9156H46.875C47.45 47.9156 47.9167 47.449 47.9167 46.875V9.375ZM23.0958 37.1229C22.9021 37.3552 22.6187 37.4927 22.3177 37.499C22.3094 37.499 22.301 37.499 22.2927 37.499C22 37.499 21.7208 37.376 21.5229 37.1583L14.8552 29.8302C14.4677 29.4052 14.499 28.7469 14.924 28.3594C15.349 27.9729 16.0083 28.0031 16.3948 28.4281L22.2562 34.8687L33.5719 21.2094C33.9396 20.7667 34.5948 20.7031 35.0396 21.0719C35.4823 21.4396 35.5437 22.0958 35.1771 22.5385L23.0958 37.1229Z" fill="#E51B23"/>
<path fill-rule="evenodd" clip-rule="evenodd" d="M46.875 49.999H3.125C1.40208 49.999 0 48.5979 0 46.875V9.375C0 7.65104 1.40208 6.25 3.125 6.25H13.5417V1.04062C13.5417 0.465625 14.0073 0 14.5833 0C15.1594 0 15.625 0.465625 15.625 1.04062V6.25H34.375V1.04062C34.375 0.465625 34.8406 0 35.4167 0C35.9927 0 36.4583 0.465625 36.4583 1.04062V6.25H46.875C48.5979 6.25 50 7.65104 50 9.375V46.875C50 48.5979 48.5979 49.999 46.875 49.999ZM47.9167 9.375C47.9167 8.80104 47.45 8.33229 46.875 8.33229H36.4583V11.4583C36.4583 12.0333 35.9927 12.499 35.4167 12.499C34.8406 12.499 34.375 12.0333 34.375 11.4583V8.33229H15.625V11.4583C15.625 12.0333 15.1594 12.499 14.5833 12.499C14.0073 12.499 13.5417 12.0333 13.5417 11.4583V8.33229H3.125C2.55 8.33229 2.08333 8.80104 2.08333 9.375V46.875C2.08333 47.449 2.55 47.9156 3.125 47.9156H46.875C47.45 47.9156 47.9167 47.449 47.9167 46.875V9.375ZM23.0958 37.1229C22.9021 37.3552 22.6187 37.4927 22.3177 37.499C22.3094 37.499 22.301 37.499 22.2927 37.499C22 37.499 21.7208 37.376 21.5229 37.1583L14.8552 29.8302C14.4677 29.4052 14.499 28.7469 14.924 28.3594C15.349 27.9729 16.0083 28.0031 16.3948 28.4281L22.2562 34.8687L33.5719 21.2094C33.9396 20.7667 34.5948 20.7031 35.0396 21.0719C35.4823 21.4396 35.5437 22.0958 35.1771 22.5385L23.0958 37.1229Z" fill="url(#paint0_linear)"/>
<defs>
<linearGradient id="paint0_linear" x1="25" y1="0" x2="25" y2="49.999" gradientUnits="userSpaceOnUse">
<stop stop-color="white" stop-opacity="0.1"/>
<stop offset="1" stop-opacity="0"/>
</linearGradient>
</defs>
</svg>
