<?xml version="1.0" encoding="utf-8"?>
<!-- Generator: Adobe Illustrator 25.4.1, SVG Export Plug-In . SVG Version: 6.00 Build 0)  -->
<svg version="1.1" id="Слой_1" xmlns="http://www.w3.org/2000/svg" xmlns:xlink="http://www.w3.org/1999/xlink" x="0px" y="0px"
	 viewBox="0 0 100 100" style="enable-background:new 0 0 100 100;" xml:space="preserve">
<style type="text/css">
	.st0{fill:#FFFFFF;}
</style>
<path class="st0" d="M50.3,50c0.4,0,0.8-0.1,1.1-0.4c0.3-0.3,0.5-0.7,0.5-1.1c0-0.4-0.2-0.8-0.5-1.1S50.7,47,50.3,47
	c-0.4,0-0.8,0.1-1.1,0.4s-0.5,0.7-0.4,1.1c0,0.4,0.1,0.8,0.4,1.1S49.9,50,50.3,50z M50.3,57.6c-2-1.7-3.5-3.3-4.6-4.8
	c-1-1.5-1.5-2.9-1.5-4.1c0-1.9,0.6-3.4,1.8-4.5c1.2-1.1,2.6-1.7,4.2-1.7c1.6,0,3,0.6,4.2,1.7c1.2,1.1,1.8,2.6,1.8,4.5
	c0,1.3-0.5,2.6-1.5,4.1C53.9,54.3,52.3,55.9,50.3,57.6z"/>
</svg>
