<svg width="17" height="21" viewBox="0 0 17 21" fill="none" xmlns="http://www.w3.org/2000/svg">
<path d="M8.47266 10.4424C9.02266 10.4424 9.49366 10.2464 9.88566 9.85438C10.2777 9.46238 10.4733 8.99172 10.4727 8.44238C10.4727 7.89238 10.2767 7.42138 9.88466 7.02938C9.49266 6.63738 9.02199 6.44172 8.47266 6.44238C7.92266 6.44238 7.45166 6.63838 7.05966 7.03038C6.66766 7.42238 6.47199 7.89305 6.47266 8.44238C6.47266 8.99238 6.66866 9.46338 7.06066 9.85538C7.45266 10.2474 7.92332 10.443 8.47266 10.4424ZM8.47266 20.4424C5.78932 18.159 3.78532 16.0384 2.46066 14.0804C1.13599 12.1224 0.473323 10.3097 0.472656 8.64238C0.472656 6.14238 1.27699 4.15072 2.88566 2.66738C4.49432 1.18405 6.35666 0.442383 8.47266 0.442383C10.5893 0.442383 12.452 1.18405 14.0607 2.66738C15.6693 4.15072 16.4733 6.14238 16.4727 8.64238C16.4727 10.309 15.81 12.1217 14.4847 14.0804C13.1593 16.039 11.1553 18.1597 8.47266 20.4424Z" fill="#FF0000"/>
</svg>
