<?xml version="1.0" encoding="utf-8"?>
<!-- Generator: Adobe Illustrator 25.4.1, SVG Export Plug-In . SVG Version: 6.00 Build 0)  -->
<svg version="1.1" id="Слой_1" xmlns="http://www.w3.org/2000/svg" xmlns:xlink="http://www.w3.org/1999/xlink" x="0px" y="0px"
	 viewBox="0 0 139.5 47" style="enable-background:new 0 0 139.5 47;" xml:space="preserve">
<style type="text/css">
	.st0{clip-path:url(#SVGID_00000164487292682457321680000007470612235924948914_);fill:#CD1719;}
	.st1{fill:#CD1719;}
</style>
<g>
	<g>
		<defs>
			<rect id="SVGID_1_" y="5.3" width="260" height="35.6"/>
		</defs>
		<clipPath id="SVGID_00000116200229200270422100000008419031909224672937_">
			<use xlink:href="#SVGID_1_"  style="overflow:visible;"/>
		</clipPath>
		<path style="clip-path:url(#SVGID_00000116200229200270422100000008419031909224672937_);fill:#CD1719;" d="M133.6,22.3
			c1.5-0.8,2.7-1.8,3.5-3.1c0.8-1.3,1.2-2.8,1.2-4.5c0-2.9-1.2-5.2-3.6-6.8c-2.4-1.6-5.8-2.6-10.1-2.6h-17.9v8h12v-2.4l9.4,5.4
			l-9.4,5.4v-2.6h-12v8h12v-2.4l9.4,5.4l-9.4,5.4V33h-12v7.9h18.7c4.5,0,8-1,10.3-2.9c2.3-1.8,3.5-4.3,3.5-7.4
			C139.3,26.4,137.4,23.6,133.6,22.3"/>
	</g>
</g>
<polygon class="st1" points="14.1,19.1 17.6,22.6 40,22.6 44.5,27.1 72.9,27.1 72.9,19.1 "/>
<polygon class="st1" points="31.5,36.4 54.1,36.4 58.6,40.9 72.9,40.9 72.9,33 28,32.9 "/>
<polygon class="st1" points="0,5.3 3.6,8.8 26.1,8.8 30.5,13.3 95.7,13.3 95.7,5.3 "/>
<rect x="84.1" y="19.1" class="st1" width="11.6" height="8"/>
<rect x="84.1" y="33" class="st1" width="11.6" height="7.9"/>
</svg>
