<?xml version="1.0" encoding="utf-8"?>
<!-- Generator: Adobe Illustrator 25.4.1, SVG Export Plug-In . SVG Version: 6.00 Build 0)  -->
<svg version="1.1" id="Слой_1" xmlns="http://www.w3.org/2000/svg" xmlns:xlink="http://www.w3.org/1999/xlink" x="0px" y="0px"
	 viewBox="0 0 260 47" style="enable-background:new 0 0 260 47;" xml:space="preserve">
<style type="text/css">
	.st0{clip-path:url(#SVGID_00000073691831887529928140000006175510608021295500_);fill:#FFFFFF;}
	.st1{clip-path:url(#SVGID_00000073691831887529928140000006175510608021295500_);fill:#CD1719;}
	.st2{fill:#CD1719;}
</style>
<g>
	<defs>
		<rect id="SVGID_1_" y="5.3" width="260" height="35.6"/>
	</defs>
	<clipPath id="SVGID_00000176732710344946058850000011714029173556512919_">
		<use xlink:href="#SVGID_1_"  style="overflow:visible;"/>
	</clipPath>
	<path style="clip-path:url(#SVGID_00000176732710344946058850000011714029173556512919_);fill:#FFFFFF;" d="M257,40.7h3l-3-4.9
		l3-4.6h-2.8l-2.3,3.7h-1.3v-3.7h-2.7v9.5h2.7v-3.6h1.2L257,40.7z M239.7,40.7h2.5l3.9-5.6v5.6h2.6v-9.5h-2.5l-3.9,5.6v-5.6h-2.6
		V40.7z M238.4,31.2h-8.5v2.1h2.9v7.4h2.6v-7.4h2.9V31.2z M225.4,40.9c0.9,0,1.6-0.2,2.3-0.5c0.7-0.3,1.3-0.7,1.7-1.3l-1.7-1.5
		c-0.6,0.7-1.4,1.1-2.2,1.1c-0.5,0-1-0.1-1.4-0.3c-0.4-0.2-0.7-0.5-0.9-1c-0.2-0.4-0.3-0.9-0.3-1.4s0.1-1,0.3-1.4s0.5-0.7,0.9-1
		c0.4-0.2,0.9-0.3,1.4-0.3c0.9,0,1.6,0.4,2.2,1.1l1.7-1.5c-0.5-0.6-1-1-1.7-1.3c-0.7-0.3-1.5-0.5-2.3-0.5c-1,0-1.9,0.2-2.7,0.6
		s-1.4,1-1.9,1.8c-0.5,0.7-0.7,1.6-0.7,2.5c0,0.9,0.2,1.8,0.7,2.5c0.5,0.7,1.1,1.3,1.9,1.8S224.4,40.9,225.4,40.9 M209.5,40.7h2.5
		l3.9-5.6v5.6h2.6v-9.5h-2.5l-3.9,5.6v-5.6h-2.6V40.7z M208.2,31.2h-7v9.5h2.6v-7.4h4.3L208.2,31.2z M194.4,38.7
		c-0.5,0-0.9-0.1-1.3-0.3c-0.4-0.2-0.7-0.5-0.9-1c-0.2-0.4-0.3-0.9-0.3-1.4s0.1-1,0.3-1.4c0.2-0.4,0.5-0.7,0.9-1
		c0.4-0.2,0.8-0.3,1.3-0.3c0.5,0,0.9,0.1,1.3,0.3c0.4,0.2,0.7,0.5,0.9,1s0.3,0.9,0.3,1.4s-0.1,1-0.3,1.4c-0.2,0.4-0.5,0.7-0.9,1
		C195.3,38.6,194.9,38.7,194.4,38.7 M194.4,40.9c1,0,1.9-0.2,2.7-0.6c0.8-0.4,1.4-1,1.9-1.8c0.5-0.7,0.7-1.6,0.7-2.5
		s-0.2-1.8-0.7-2.5c-0.5-0.7-1.1-1.3-1.9-1.8c-0.8-0.4-1.7-0.6-2.7-0.6s-1.9,0.2-2.7,0.6c-0.8,0.4-1.4,1-1.9,1.8
		c-0.5,0.7-0.7,1.6-0.7,2.5s0.2,1.8,0.7,2.5c0.5,0.7,1.1,1.3,1.9,1.8C192.5,40.7,193.4,40.9,194.4,40.9 M179.9,31.2l-0.1,3.8
		c0,0.8-0.1,1.5-0.2,2c-0.1,0.5-0.2,0.9-0.4,1.2c-0.2,0.3-0.5,0.4-0.8,0.4c-0.1,0-0.2,0-0.4,0l-0.1,2.2c0.5,0.1,0.9,0.2,1.2,0.2
		c0.8,0,1.4-0.2,1.8-0.7c0.4-0.5,0.7-1.1,0.9-2c0.2-0.8,0.3-2,0.3-3.3l0.1-1.5h2.7v7.4h2.6v-9.5H179.9z M169.2,38.8h-2.1v-2h2.1
		c0.8,0,1.2,0.3,1.2,1C170.3,38.4,170,38.8,169.2,38.8 M167.1,33.1h1.7c0.8,0,1.1,0.3,1.1,0.9c0,0.6-0.4,0.9-1.1,0.9h-1.7V33.1z
		 M171.3,35.7c0.4-0.2,0.7-0.5,1-0.8s0.3-0.8,0.3-1.2c0-0.8-0.3-1.4-0.9-1.8c-0.6-0.4-1.5-0.6-2.6-0.6h-4.6v9.5h4.9
		c1.2,0,2.1-0.2,2.8-0.7c0.7-0.5,1-1.1,1-2c0-0.6-0.1-1-0.4-1.4C172.3,36.2,171.9,35.9,171.3,35.7 M153.4,31.2v9.5h2.6v-7.4h3.6v7.4
		h2.7v-9.5H153.4z"/>
	<path style="clip-path:url(#SVGID_00000176732710344946058850000011714029173556512919_);fill:#CD1719;" d="M133.6,22.3
		c1.5-0.8,2.7-1.8,3.5-3.1c0.8-1.3,1.2-2.8,1.2-4.5c0-2.9-1.2-5.2-3.6-6.8c-2.4-1.6-5.8-2.6-10.1-2.6h-17.9l0,8h12v-2.4l9.4,5.4
		l-9.4,5.4v-2.6h-12l0,8h12v-2.4l9.4,5.4l-9.4,5.4V33h-12l0,7.9h18.7c4.5,0,8-1,10.3-2.9c2.3-1.8,3.5-4.3,3.5-7.4
		C139.3,26.4,137.4,23.6,133.6,22.3"/>
</g>
<polygon class="st2" points="14.1,19.1 17.6,22.6 40,22.6 44.5,27.1 72.9,27.1 72.9,19.1 "/>
<polygon class="st2" points="31.5,36.4 54.1,36.4 58.6,40.9 72.9,40.9 72.9,33 28,32.9 "/>
<polygon class="st2" points="0,5.3 3.6,8.8 26.1,8.8 30.5,13.3 95.7,13.3 95.7,5.3 "/>
<rect x="84.1" y="19.1" class="st2" width="11.6" height="8"/>
<rect x="84.1" y="33" class="st2" width="11.6" height="7.9"/>
</svg>
