<svg xmlns="http://www.w3.org/2000/svg" width="1160" height="265" viewBox="0 0 1160 265" fill="none"><path d="M1 54H1160V255C1160 260.523 1155.52 265 1150 265H11C5.47716 265 1 260.523 1 255V54Z" fill="white"></path><rect y="1" width="1160" height="77" rx="9" fill="#A31A40"></rect><rect x="0.5" y="0.5" width="1159" height="264" rx="9.5" stroke="#DEDEDE"></rect><path d="M107.688 46.192C106.547 46.192 105.512 45.9467 104.584 45.456C103.667 44.9547 102.941 44.2667 102.408 43.392C101.885 42.5067 101.624 41.5093 101.624 40.4C101.624 39.2907 101.885 38.2987 102.408 37.424C102.941 36.5387 103.667 35.8507 104.584 35.36C105.512 34.8587 106.552 34.608 107.704 34.608C108.675 34.608 109.549 34.7787 110.328 35.12C111.117 35.4613 111.779 35.952 112.312 36.592L110.648 38.128C109.891 37.2533 108.952 36.816 107.832 36.816C107.139 36.816 106.52 36.9707 105.976 37.28C105.432 37.5787 105.005 38 104.696 38.544C104.397 39.088 104.248 39.7067 104.248 40.4C104.248 41.0933 104.397 41.712 104.696 42.256C105.005 42.8 105.432 43.2267 105.976 43.536C106.52 43.8347 107.139 43.984 107.832 43.984C108.952 43.984 109.891 43.5413 110.648 42.656L112.312 44.192C111.779 44.8427 111.117 45.3387 110.328 45.68C109.539 46.0213 108.659 46.192 107.688 46.192ZM118.337 41.488H116.545V46H113.969V34.8H116.545V39.328H118.401L121.345 34.8H124.081L120.417 40.208L124.193 46H121.249L118.337 41.488ZM135.673 34.8V46H133.113V36.912H129.273L129.193 39.248C129.14 40.8373 129.012 42.128 128.809 43.12C128.606 44.1013 128.265 44.8587 127.785 45.392C127.316 45.9147 126.654 46.176 125.801 46.176C125.449 46.176 125.022 46.1173 124.521 46L124.681 43.808C124.82 43.8507 124.974 43.872 125.145 43.872C125.764 43.872 126.196 43.5093 126.441 42.784C126.686 42.048 126.841 40.9013 126.905 39.344L127.065 34.8H135.673ZM146.054 43.6H140.854L139.862 46H137.206L142.198 34.8H144.758L149.766 46H147.046L146.054 43.6ZM145.238 41.632L143.462 37.344L141.686 41.632H145.238ZM162.897 43.888V48.32H160.497V46H152.593V48.32H150.193L150.209 43.888H150.657C151.329 43.8667 151.804 43.376 152.081 42.416C152.358 41.456 152.529 40.0853 152.593 38.304L152.721 34.8H161.329V43.888H162.897ZM154.881 38.544C154.828 39.8773 154.716 40.9973 154.545 41.904C154.374 42.8 154.113 43.4613 153.761 43.888H158.769V36.912H154.929L154.881 38.544ZM176.933 40.16C177.616 40.3627 178.139 40.6933 178.501 41.152C178.864 41.6107 179.045 42.176 179.045 42.848C179.045 43.84 178.667 44.6133 177.909 45.168C177.163 45.7227 176.091 46 174.693 46H169.173V34.8H174.389C175.691 34.8 176.704 35.0507 177.429 35.552C178.155 36.0533 178.517 36.768 178.517 37.696C178.517 38.2507 178.379 38.7413 178.101 39.168C177.824 39.584 177.435 39.9147 176.933 40.16ZM171.749 39.44H174.165C174.731 39.44 175.157 39.328 175.445 39.104C175.733 38.8693 175.877 38.528 175.877 38.08C175.877 37.6427 175.728 37.3067 175.429 37.072C175.141 36.8373 174.72 36.72 174.165 36.72H171.749V39.44ZM174.597 44.08C175.813 44.08 176.421 43.6 176.421 42.64C176.421 41.712 175.813 41.248 174.597 41.248H171.749V44.08H174.597ZM186.519 38.48C187.884 38.48 188.93 38.784 189.655 39.392C190.391 40 190.759 40.9013 190.759 42.096C190.759 43.3653 190.354 44.336 189.543 45.008C188.743 45.6693 187.612 46 186.151 46H181.095V34.8H183.671V38.48H186.519ZM186.007 44.08C186.679 44.08 187.202 43.9147 187.575 43.584C187.959 43.2533 188.151 42.7733 188.151 42.144C188.151 40.9813 187.436 40.4 186.007 40.4H183.671V44.08H186.007ZM192.183 34.8H194.759V46H192.183V34.8ZM205.436 36.912H200.108L200.124 46H197.548V34.8H205.452L205.436 36.912ZM211.881 34.8C212.873 34.8 213.731 34.9653 214.457 35.296C215.193 35.6267 215.758 36.096 216.153 36.704C216.547 37.312 216.745 38.032 216.745 38.864C216.745 39.6853 216.547 40.4053 216.153 41.024C215.758 41.632 215.193 42.1013 214.457 42.432C213.731 42.752 212.873 42.912 211.881 42.912H209.625V46H207.033V34.8H211.881ZM211.737 40.8C212.515 40.8 213.107 40.6347 213.513 40.304C213.918 39.9627 214.121 39.4827 214.121 38.864C214.121 38.2347 213.918 37.7547 213.513 37.424C213.107 37.0827 212.515 36.912 211.737 36.912H209.625V40.8H211.737ZM228.317 34.8L223.549 43.664C223.09 44.5173 222.535 45.1627 221.885 45.6C221.245 46.0373 220.546 46.256 219.789 46.256C219.202 46.256 218.594 46.128 217.965 45.872L218.589 43.904C219.037 44.0427 219.41 44.112 219.709 44.112C220.029 44.112 220.317 44.0373 220.573 43.888C220.829 43.728 221.063 43.4827 221.277 43.152L221.373 43.024L216.957 34.8H219.725L222.701 40.816L225.773 34.8H228.317ZM235.994 40.16C236.645 40.384 237.152 40.736 237.514 41.216C237.888 41.6853 238.074 42.2347 238.074 42.864C238.074 43.5467 237.85 44.1387 237.402 44.64C236.954 45.1413 236.346 45.5253 235.578 45.792C234.821 46.0587 233.989 46.192 233.082 46.192C232.314 46.192 231.546 46.096 230.778 45.904C230.021 45.712 229.301 45.4187 228.618 45.024L229.418 43.168C229.909 43.4667 230.448 43.696 231.034 43.856C231.632 44.0053 232.213 44.08 232.778 44.08C233.546 44.08 234.181 43.9413 234.682 43.664C235.194 43.3867 235.45 42.9973 235.45 42.496C235.45 42.08 235.274 41.7653 234.922 41.552C234.581 41.3387 234.112 41.232 233.514 41.232H230.778V39.28H233.322C233.845 39.28 234.25 39.1733 234.538 38.96C234.837 38.7467 234.986 38.4533 234.986 38.08C234.986 37.6427 234.773 37.3013 234.346 37.056C233.93 36.8107 233.392 36.688 232.73 36.688C232.24 36.688 231.733 36.7573 231.21 36.896C230.688 37.024 230.192 37.2213 229.722 37.488L228.938 35.472C230.122 34.864 231.402 34.56 232.778 34.56C233.653 34.56 234.458 34.688 235.194 34.944C235.93 35.2 236.517 35.5733 236.954 36.064C237.392 36.5547 237.61 37.1253 237.61 37.776C237.61 38.3093 237.466 38.784 237.178 39.2C236.89 39.616 236.496 39.936 235.994 40.16ZM244.462 41.488H242.67V46H240.094V34.8H242.67V39.328H244.526L247.47 34.8H250.206L246.542 40.208L250.318 46H247.374L244.462 41.488ZM251.533 34.8H254.109V42.096L259.453 34.8H261.885V46H259.325V38.72L253.981 46H251.533V34.8Z" fill="white"></path><path d="M502.688 46.192C501.547 46.192 500.512 45.9467 499.584 45.456C498.667 44.9547 497.941 44.2667 497.408 43.392C496.885 42.5067 496.624 41.5093 496.624 40.4C496.624 39.2907 496.885 38.2987 497.408 37.424C497.941 36.5387 498.667 35.8507 499.584 35.36C500.512 34.8587 501.552 34.608 502.704 34.608C503.675 34.608 504.549 34.7787 505.328 35.12C506.117 35.4613 506.779 35.952 507.312 36.592L505.648 38.128C504.891 37.2533 503.952 36.816 502.832 36.816C502.139 36.816 501.52 36.9707 500.976 37.28C500.432 37.5787 500.005 38 499.696 38.544C499.397 39.088 499.248 39.7067 499.248 40.4C499.248 41.0933 499.397 41.712 499.696 42.256C500.005 42.8 500.432 43.2267 500.976 43.536C501.52 43.8347 502.139 43.984 502.832 43.984C503.952 43.984 504.891 43.5413 505.648 42.656L507.312 44.192C506.779 44.8427 506.117 45.3387 505.328 45.68C504.539 46.0213 503.659 46.192 502.688 46.192ZM517.452 36.912H513.868V46H511.308V36.912H507.74V34.8H517.452V36.912ZM524.267 46.192C523.105 46.192 522.054 45.9413 521.115 45.44C520.187 44.9387 519.457 44.2507 518.923 43.376C518.401 42.4907 518.139 41.4987 518.139 40.4C518.139 39.3013 518.401 38.3147 518.923 37.44C519.457 36.5547 520.187 35.8613 521.115 35.36C522.054 34.8587 523.105 34.608 524.267 34.608C525.43 34.608 526.475 34.8587 527.403 35.36C528.331 35.8613 529.062 36.5547 529.595 37.44C530.129 38.3147 530.395 39.3013 530.395 40.4C530.395 41.4987 530.129 42.4907 529.595 43.376C529.062 44.2507 528.331 44.9387 527.403 45.44C526.475 45.9413 525.43 46.192 524.267 46.192ZM524.267 43.984C524.929 43.984 525.526 43.8347 526.059 43.536C526.593 43.2267 527.009 42.8 527.307 42.256C527.617 41.712 527.771 41.0933 527.771 40.4C527.771 39.7067 527.617 39.088 527.307 38.544C527.009 38 526.593 37.5787 526.059 37.28C525.526 36.9707 524.929 36.816 524.267 36.816C523.606 36.816 523.009 36.9707 522.475 37.28C521.942 37.5787 521.521 38 521.211 38.544C520.913 39.088 520.763 39.7067 520.763 40.4C520.763 41.0933 520.913 41.712 521.211 42.256C521.521 42.8 521.942 43.2267 522.475 43.536C523.009 43.8347 523.606 43.984 524.267 43.984ZM532.392 34.8H534.968V42.096L540.312 34.8H542.744V46H540.184V38.72L534.84 46H532.392V34.8ZM555.725 46L555.709 39.296L552.413 44.816H551.261L547.965 39.424V46H545.533V34.8H547.677L551.869 41.76L555.997 34.8H558.141L558.157 46H555.725ZM566.283 46.192C565.12 46.192 564.07 45.9413 563.131 45.44C562.203 44.9387 561.472 44.2507 560.939 43.376C560.416 42.4907 560.155 41.4987 560.155 40.4C560.155 39.3013 560.416 38.3147 560.939 37.44C561.472 36.5547 562.203 35.8613 563.131 35.36C564.07 34.8587 565.12 34.608 566.283 34.608C567.446 34.608 568.491 34.8587 569.419 35.36C570.347 35.8613 571.078 36.5547 571.611 37.44C572.144 38.3147 572.411 39.3013 572.411 40.4C572.411 41.4987 572.144 42.4907 571.611 43.376C571.078 44.2507 570.347 44.9387 569.419 45.44C568.491 45.9413 567.446 46.192 566.283 46.192ZM566.283 43.984C566.944 43.984 567.542 43.8347 568.075 43.536C568.608 43.2267 569.024 42.8 569.323 42.256C569.632 41.712 569.787 41.0933 569.787 40.4C569.787 39.7067 569.632 39.088 569.323 38.544C569.024 38 568.608 37.5787 568.075 37.28C567.542 36.9707 566.944 36.816 566.283 36.816C565.622 36.816 565.024 36.9707 564.491 37.28C563.958 37.5787 563.536 38 563.227 38.544C562.928 39.088 562.779 39.7067 562.779 40.4C562.779 41.0933 562.928 41.712 563.227 42.256C563.536 42.8 563.958 43.2267 564.491 43.536C565.024 43.8347 565.622 43.984 566.283 43.984ZM579.704 46.192C578.562 46.192 577.528 45.9467 576.6 45.456C575.682 44.9547 574.957 44.2667 574.424 43.392C573.901 42.5067 573.64 41.5093 573.64 40.4C573.64 39.2907 573.901 38.2987 574.424 37.424C574.957 36.5387 575.682 35.8507 576.6 35.36C577.528 34.8587 578.568 34.608 579.72 34.608C580.69 34.608 581.565 34.7787 582.344 35.12C583.133 35.4613 583.794 35.952 584.328 36.592L582.664 38.128C581.906 37.2533 580.968 36.816 579.848 36.816C579.154 36.816 578.536 36.9707 577.992 37.28C577.448 37.5787 577.021 38 576.712 38.544C576.413 39.088 576.264 39.7067 576.264 40.4C576.264 41.0933 576.413 41.712 576.712 42.256C577.021 42.8 577.448 43.2267 577.992 43.536C578.536 43.8347 579.154 43.984 579.848 43.984C580.968 43.984 581.906 43.5413 582.664 42.656L584.328 44.192C583.794 44.8427 583.133 45.3387 582.344 45.68C581.554 46.0213 580.674 46.192 579.704 46.192ZM594.468 36.912H590.884V46H588.324V36.912H584.756V34.8H594.468V36.912ZM601.519 38.48C602.884 38.48 603.93 38.784 604.655 39.392C605.391 40 605.759 40.9013 605.759 42.096C605.759 43.3653 605.354 44.336 604.543 45.008C603.743 45.6693 602.612 46 601.151 46H596.095V34.8H598.671V38.48H601.519ZM601.007 44.08C601.679 44.08 602.202 43.9147 602.575 43.584C602.959 43.2533 603.151 42.7733 603.151 42.144C603.151 40.9813 602.436 40.4 601.007 40.4H598.671V44.08H601.007ZM608.159 43.024C608.607 43.024 608.975 43.168 609.263 43.456C609.551 43.7333 609.695 44.1013 609.695 44.56C609.695 44.7733 609.668 44.9867 609.615 45.2C609.562 45.4133 609.444 45.7333 609.263 46.16L608.351 48.464H606.767L607.471 45.92C607.204 45.8133 606.991 45.6427 606.831 45.408C606.682 45.1627 606.607 44.88 606.607 44.56C606.607 44.1013 606.751 43.7333 607.039 43.456C607.338 43.168 607.711 43.024 608.159 43.024ZM621.006 34.8C621.998 34.8 622.856 34.9653 623.582 35.296C624.318 35.6267 624.883 36.096 625.278 36.704C625.672 37.312 625.87 38.032 625.87 38.864C625.87 39.6853 625.672 40.4053 625.278 41.024C624.883 41.632 624.318 42.1013 623.582 42.432C622.856 42.752 621.998 42.912 621.006 42.912H618.75V46H616.158V34.8H621.006ZM620.862 40.8C621.64 40.8 622.232 40.6347 622.638 40.304C623.043 39.9627 623.246 39.4827 623.246 38.864C623.246 38.2347 623.043 37.7547 622.638 37.424C622.232 37.0827 621.64 36.912 620.862 36.912H618.75V40.8H620.862ZM637.442 34.8L632.674 43.664C632.215 44.5173 631.66 45.1627 631.01 45.6C630.37 46.0373 629.671 46.256 628.914 46.256C628.327 46.256 627.719 46.128 627.09 45.872L627.714 43.904C628.162 44.0427 628.535 44.112 628.834 44.112C629.154 44.112 629.442 44.0373 629.698 43.888C629.954 43.728 630.188 43.4827 630.402 43.152L630.498 43.024L626.082 34.8H628.85L631.826 40.816L634.898 34.8H637.442ZM638.673 34.8H647.713V36.864H641.249V39.168H644.353C645.708 39.168 646.737 39.4507 647.441 40.016C648.156 40.5813 648.513 41.3973 648.513 42.464C648.513 43.584 648.119 44.4533 647.329 45.072C646.54 45.6907 645.425 46 643.985 46H638.673V34.8ZM643.841 44.08C644.503 44.08 645.009 43.952 645.361 43.696C645.713 43.4293 645.889 43.0453 645.889 42.544C645.889 41.5627 645.207 41.072 643.841 41.072H641.249V44.08H643.841Z" fill="white"></path><path d="M870.688 46.192C869.547 46.192 868.512 45.9467 867.584 45.456C866.667 44.9547 865.941 44.2667 865.408 43.392C864.885 42.5067 864.624 41.5093 864.624 40.4C864.624 39.2907 864.885 38.2987 865.408 37.424C865.941 36.5387 866.667 35.8507 867.584 35.36C868.512 34.8587 869.552 34.608 870.704 34.608C871.675 34.608 872.549 34.7787 873.328 35.12C874.117 35.4613 874.779 35.952 875.312 36.592L873.648 38.128C872.891 37.2533 871.952 36.816 870.832 36.816C870.139 36.816 869.52 36.9707 868.976 37.28C868.432 37.5787 868.005 38 867.696 38.544C867.397 39.088 867.248 39.7067 867.248 40.4C867.248 41.0933 867.397 41.712 867.696 42.256C868.005 42.8 868.432 43.2267 868.976 43.536C869.52 43.8347 870.139 43.984 870.832 43.984C871.952 43.984 872.891 43.5413 873.648 42.656L875.312 44.192C874.779 44.8427 874.117 45.3387 873.328 45.68C872.539 46.0213 871.659 46.192 870.688 46.192ZM885.452 36.912H881.868V46H879.308V36.912H875.74V34.8H885.452V36.912ZM892.267 46.192C891.105 46.192 890.054 45.9413 889.115 45.44C888.187 44.9387 887.457 44.2507 886.923 43.376C886.401 42.4907 886.139 41.4987 886.139 40.4C886.139 39.3013 886.401 38.3147 886.923 37.44C887.457 36.5547 888.187 35.8613 889.115 35.36C890.054 34.8587 891.105 34.608 892.267 34.608C893.43 34.608 894.475 34.8587 895.403 35.36C896.331 35.8613 897.062 36.5547 897.595 37.44C898.129 38.3147 898.395 39.3013 898.395 40.4C898.395 41.4987 898.129 42.4907 897.595 43.376C897.062 44.2507 896.331 44.9387 895.403 45.44C894.475 45.9413 893.43 46.192 892.267 46.192ZM892.267 43.984C892.929 43.984 893.526 43.8347 894.059 43.536C894.593 43.2267 895.009 42.8 895.307 42.256C895.617 41.712 895.771 41.0933 895.771 40.4C895.771 39.7067 895.617 39.088 895.307 38.544C895.009 38 894.593 37.5787 894.059 37.28C893.526 36.9707 892.929 36.816 892.267 36.816C891.606 36.816 891.009 36.9707 890.475 37.28C889.942 37.5787 889.521 38 889.211 38.544C888.913 39.088 888.763 39.7067 888.763 40.4C888.763 41.0933 888.913 41.712 889.211 42.256C889.521 42.8 889.942 43.2267 890.475 43.536C891.009 43.8347 891.606 43.984 892.267 43.984ZM900.392 34.8H902.968V42.096L908.312 34.8H910.744V46H908.184V38.72L902.84 46H900.392V34.8ZM923.725 46L923.709 39.296L920.413 44.816H919.261L915.965 39.424V46H913.533V34.8H915.677L919.869 41.76L923.997 34.8H926.141L926.157 46H923.725ZM934.283 46.192C933.12 46.192 932.07 45.9413 931.131 45.44C930.203 44.9387 929.472 44.2507 928.939 43.376C928.416 42.4907 928.155 41.4987 928.155 40.4C928.155 39.3013 928.416 38.3147 928.939 37.44C929.472 36.5547 930.203 35.8613 931.131 35.36C932.07 34.8587 933.12 34.608 934.283 34.608C935.446 34.608 936.491 34.8587 937.419 35.36C938.347 35.8613 939.078 36.5547 939.611 37.44C940.144 38.3147 940.411 39.3013 940.411 40.4C940.411 41.4987 940.144 42.4907 939.611 43.376C939.078 44.2507 938.347 44.9387 937.419 45.44C936.491 45.9413 935.446 46.192 934.283 46.192ZM934.283 43.984C934.944 43.984 935.542 43.8347 936.075 43.536C936.608 43.2267 937.024 42.8 937.323 42.256C937.632 41.712 937.787 41.0933 937.787 40.4C937.787 39.7067 937.632 39.088 937.323 38.544C937.024 38 936.608 37.5787 936.075 37.28C935.542 36.9707 934.944 36.816 934.283 36.816C933.622 36.816 933.024 36.9707 932.491 37.28C931.958 37.5787 931.536 38 931.227 38.544C930.928 39.088 930.779 39.7067 930.779 40.4C930.779 41.0933 930.928 41.712 931.227 42.256C931.536 42.8 931.958 43.2267 932.491 43.536C933.024 43.8347 933.622 43.984 934.283 43.984ZM947.704 46.192C946.562 46.192 945.528 45.9467 944.6 45.456C943.682 44.9547 942.957 44.2667 942.424 43.392C941.901 42.5067 941.64 41.5093 941.64 40.4C941.64 39.2907 941.901 38.2987 942.424 37.424C942.957 36.5387 943.682 35.8507 944.6 35.36C945.528 34.8587 946.568 34.608 947.72 34.608C948.69 34.608 949.565 34.7787 950.344 35.12C951.133 35.4613 951.794 35.952 952.328 36.592L950.664 38.128C949.906 37.2533 948.968 36.816 947.848 36.816C947.154 36.816 946.536 36.9707 945.992 37.28C945.448 37.5787 945.021 38 944.712 38.544C944.413 39.088 944.264 39.7067 944.264 40.4C944.264 41.0933 944.413 41.712 944.712 42.256C945.021 42.8 945.448 43.2267 945.992 43.536C946.536 43.8347 947.154 43.984 947.848 43.984C948.968 43.984 949.906 43.5413 950.664 42.656L952.328 44.192C951.794 44.8427 951.133 45.3387 950.344 45.68C949.554 46.0213 948.674 46.192 947.704 46.192ZM962.468 36.912H958.884V46H956.324V36.912H952.756V34.8H962.468V36.912ZM969.519 38.48C970.884 38.48 971.93 38.784 972.655 39.392C973.391 40 973.759 40.9013 973.759 42.096C973.759 43.3653 973.354 44.336 972.543 45.008C971.743 45.6693 970.612 46 969.151 46H964.095V34.8H966.671V38.48H969.519ZM969.007 44.08C969.679 44.08 970.202 43.9147 970.575 43.584C970.959 43.2533 971.151 42.7733 971.151 42.144C971.151 40.9813 970.436 40.4 969.007 40.4H966.671V44.08H969.007ZM985.454 46.192C984.312 46.192 983.278 45.9467 982.35 45.456C981.432 44.9547 980.707 44.2667 980.174 43.392C979.651 42.5067 979.39 41.5093 979.39 40.4C979.39 39.2907 979.651 38.2987 980.174 37.424C980.707 36.5387 981.432 35.8507 982.35 35.36C983.278 34.8587 984.318 34.608 985.47 34.608C986.44 34.608 987.315 34.7787 988.094 35.12C988.883 35.4613 989.544 35.952 990.078 36.592L988.414 38.128C987.656 37.2533 986.718 36.816 985.598 36.816C984.904 36.816 984.286 36.9707 983.742 37.28C983.198 37.5787 982.771 38 982.462 38.544C982.163 39.088 982.014 39.7067 982.014 40.4C982.014 41.0933 982.163 41.712 982.462 42.256C982.771 42.8 983.198 43.2267 983.742 43.536C984.286 43.8347 984.904 43.984 985.598 43.984C986.718 43.984 987.656 43.5413 988.414 42.656L990.078 44.192C989.544 44.8427 988.883 45.3387 988.094 45.68C987.304 46.0213 986.424 46.192 985.454 46.192ZM1006.57 34.8V46H1003.98V41.408H998.89V46H996.298V34.8H998.89V39.216H1003.98V34.8H1006.57ZM1020.85 43.888V48.32H1018.45V46H1010.55V48.32H1008.15L1008.16 43.888H1008.61C1009.28 43.8667 1009.76 43.376 1010.03 42.416C1010.31 41.456 1010.48 40.0853 1010.55 38.304L1010.67 34.8H1019.28V43.888H1020.85ZM1012.83 38.544C1012.78 39.8773 1012.67 40.9973 1012.5 41.904C1012.33 42.8 1012.07 43.4613 1011.71 43.888H1016.72V36.912H1012.88L1012.83 38.544ZM1027.89 46.192C1026.75 46.192 1025.72 45.9467 1024.79 45.456C1023.87 44.9547 1023.14 44.2667 1022.61 43.392C1022.09 42.5067 1021.83 41.5093 1021.83 40.4C1021.83 39.2907 1022.09 38.2987 1022.61 37.424C1023.14 36.5387 1023.87 35.8507 1024.79 35.36C1025.72 34.8587 1026.76 34.608 1027.91 34.608C1028.88 34.608 1029.75 34.7787 1030.53 35.12C1031.32 35.4613 1031.98 35.952 1032.52 36.592L1030.85 38.128C1030.09 37.2533 1029.16 36.816 1028.04 36.816C1027.34 36.816 1026.72 36.9707 1026.18 37.28C1025.64 37.5787 1025.21 38 1024.9 38.544C1024.6 39.088 1024.45 39.7067 1024.45 40.4C1024.45 41.0933 1024.6 41.712 1024.9 42.256C1025.21 42.8 1025.64 43.2267 1026.18 43.536C1026.72 43.8347 1027.34 43.984 1028.04 43.984C1029.16 43.984 1030.09 43.5413 1030.85 42.656L1032.52 44.192C1031.98 44.8427 1031.32 45.3387 1030.53 45.68C1029.74 46.0213 1028.86 46.192 1027.89 46.192ZM1035.11 43.024C1035.56 43.024 1035.93 43.168 1036.22 43.456C1036.5 43.7333 1036.65 44.1013 1036.65 44.56C1036.65 44.7733 1036.62 44.9867 1036.57 45.2C1036.51 45.4133 1036.4 45.7333 1036.22 46.16L1035.3 48.464H1033.72L1034.42 45.92C1034.16 45.8133 1033.94 45.6427 1033.78 45.408C1033.63 45.1627 1033.56 44.88 1033.56 44.56C1033.56 44.1013 1033.7 43.7333 1033.99 43.456C1034.29 43.168 1034.66 43.024 1035.11 43.024ZM1047.96 34.8C1048.95 34.8 1049.81 34.9653 1050.53 35.296C1051.27 35.6267 1051.84 36.096 1052.23 36.704C1052.63 37.312 1052.82 38.032 1052.82 38.864C1052.82 39.6853 1052.63 40.4053 1052.23 41.024C1051.84 41.632 1051.27 42.1013 1050.53 42.432C1049.81 42.752 1048.95 42.912 1047.96 42.912H1045.7V46H1043.11V34.8H1047.96ZM1047.81 40.8C1048.59 40.8 1049.19 40.6347 1049.59 40.304C1050 39.9627 1050.2 39.4827 1050.2 38.864C1050.2 38.2347 1050 37.7547 1049.59 37.424C1049.19 37.0827 1048.59 36.912 1047.81 36.912H1045.7V40.8H1047.81ZM1064.39 34.8L1059.63 43.664C1059.17 44.5173 1058.61 45.1627 1057.96 45.6C1057.32 46.0373 1056.62 46.256 1055.87 46.256C1055.28 46.256 1054.67 46.128 1054.04 45.872L1054.67 43.904C1055.11 44.0427 1055.49 44.112 1055.79 44.112C1056.11 44.112 1056.39 44.0373 1056.65 43.888C1056.91 43.728 1057.14 43.4827 1057.35 43.152L1057.45 43.024L1053.03 34.8H1055.8L1058.78 40.816L1061.85 34.8H1064.39ZM1065.63 34.8H1074.67V36.864H1068.2V39.168H1071.31C1072.66 39.168 1073.69 39.4507 1074.39 40.016C1075.11 40.5813 1075.47 41.3973 1075.47 42.464C1075.47 43.584 1075.07 44.4533 1074.28 45.072C1073.49 45.6907 1072.38 46 1070.94 46H1065.63V34.8ZM1070.79 44.08C1071.46 44.08 1071.96 43.952 1072.31 43.696C1072.67 43.4293 1072.84 43.0453 1072.84 42.544C1072.84 41.5627 1072.16 41.072 1070.79 41.072H1068.2V44.08H1070.79Z" fill="white"></path><path d="M42.688 156.192C41.5467 156.192 40.512 155.947 39.584 155.456C38.6667 154.955 37.9413 154.267 37.408 153.392C36.8853 152.507 36.624 151.509 36.624 150.4C36.624 149.291 36.8853 148.299 37.408 147.424C37.9413 146.539 38.6667 145.851 39.584 145.36C40.512 144.859 41.552 144.608 42.704 144.608C43.6747 144.608 44.5493 144.779 45.328 145.12C46.1173 145.461 46.7787 145.952 47.312 146.592L45.648 148.128C44.8907 147.253 43.952 146.816 42.832 146.816C42.1387 146.816 41.52 146.971 40.976 147.28C40.432 147.579 40.0053 148 39.696 148.544C39.3973 149.088 39.248 149.707 39.248 150.4C39.248 151.093 39.3973 151.712 39.696 152.256C40.0053 152.8 40.432 153.227 40.976 153.536C41.52 153.835 42.1387 153.984 42.832 153.984C43.952 153.984 44.8907 153.541 45.648 152.656L47.312 154.192C46.7787 154.843 46.1173 155.339 45.328 155.68C44.5387 156.021 43.6587 156.192 42.688 156.192ZM53.3374 151.488H51.5454V156H48.9694V144.8H51.5454V149.328H53.4014L56.3454 144.8H59.0814L55.4174 150.208L59.1934 156H56.2494L53.3374 151.488ZM70.6729 144.8V156H68.1129V146.912H64.2729L64.1929 149.248C64.1395 150.837 64.0115 152.128 63.8089 153.12C63.6062 154.101 63.2649 154.859 62.7849 155.392C62.3155 155.915 61.6542 156.176 60.8009 156.176C60.4489 156.176 60.0222 156.117 59.5209 156L59.6809 153.808C59.8195 153.851 59.9742 153.872 60.1449 153.872C60.7635 153.872 61.1955 153.509 61.4409 152.784C61.6862 152.048 61.8409 150.901 61.9049 149.344L62.0649 144.8H70.6729ZM81.0541 153.6H75.8541L74.8621 156H72.2061L77.1981 144.8H79.7581L84.7661 156H82.0461L81.0541 153.6ZM80.2381 151.632L78.4621 147.344L76.6861 151.632H80.2381ZM97.8971 153.888V158.32H95.4971V156H87.5931V158.32H85.1931L85.2091 153.888H85.6571C86.3291 153.867 86.8038 153.376 87.0811 152.416C87.3585 151.456 87.5291 150.085 87.5931 148.304L87.7211 144.8H96.3291V153.888H97.8971ZM89.8811 148.544C89.8278 149.877 89.7158 150.997 89.5451 151.904C89.3745 152.8 89.1131 153.461 88.7611 153.888H93.7691V146.912H89.9291L89.8811 148.544ZM111.757 153.6H106.557L105.565 156H102.909L107.901 144.8H110.461L115.469 156H112.749L111.757 153.6ZM110.941 151.632L109.165 147.344L107.389 151.632H110.941ZM127.032 144.8V156H124.472V146.912H120.632L120.552 149.248C120.499 150.837 120.371 152.128 120.168 153.12C119.966 154.101 119.624 154.859 119.144 155.392C118.675 155.915 118.014 156.176 117.16 156.176C116.808 156.176 116.382 156.117 115.88 156L116.04 153.808C116.179 153.851 116.334 153.872 116.504 153.872C117.123 153.872 117.555 153.509 117.8 152.784C118.046 152.048 118.2 150.901 118.264 149.344L118.424 144.8H127.032ZM138.502 153.92V156H129.83V144.8H138.294V146.88H132.406V149.312H137.606V151.328H132.406V153.92H138.502ZM144.931 151.488H143.139V156H140.563V144.8H143.139V149.328H144.995L147.939 144.8H150.675L147.011 150.208L150.787 156H147.843L144.931 151.488ZM157.251 156.192C156.109 156.192 155.075 155.947 154.147 155.456C153.229 154.955 152.504 154.267 151.971 153.392C151.448 152.507 151.187 151.509 151.187 150.4C151.187 149.291 151.448 148.299 151.971 147.424C152.504 146.539 153.229 145.851 154.147 145.36C155.075 144.859 156.115 144.608 157.267 144.608C158.237 144.608 159.112 144.779 159.891 145.12C160.68 145.461 161.341 145.952 161.875 146.592L160.211 148.128C159.453 147.253 158.515 146.816 157.395 146.816C156.701 146.816 156.083 146.971 155.539 147.28C154.995 147.579 154.568 148 154.259 148.544C153.96 149.088 153.811 149.707 153.811 150.4C153.811 151.093 153.96 151.712 154.259 152.256C154.568 152.8 154.995 153.227 155.539 153.536C156.083 153.835 156.701 153.984 157.395 153.984C158.515 153.984 159.453 153.541 160.211 152.656L161.875 154.192C161.341 154.843 160.68 155.339 159.891 155.68C159.101 156.021 158.221 156.192 157.251 156.192ZM163.564 144.8H166.14V152.096L171.484 144.8H173.916V156H171.356V148.72L166.012 156H163.564V144.8ZM186.977 144.8V156H184.385V151.408H179.297V156H176.705V144.8H179.297V149.216H184.385V144.8H186.977ZM195.127 156.192C193.964 156.192 192.913 155.941 191.975 155.44C191.047 154.939 190.316 154.251 189.783 153.376C189.26 152.491 188.999 151.499 188.999 150.4C188.999 149.301 189.26 148.315 189.783 147.44C190.316 146.555 191.047 145.861 191.975 145.36C192.913 144.859 193.964 144.608 195.127 144.608C196.289 144.608 197.335 144.859 198.263 145.36C199.191 145.861 199.921 146.555 200.455 147.44C200.988 148.315 201.255 149.301 201.255 150.4C201.255 151.499 200.988 152.491 200.455 153.376C199.921 154.251 199.191 154.939 198.263 155.44C197.335 155.941 196.289 156.192 195.127 156.192ZM195.127 153.984C195.788 153.984 196.385 153.835 196.919 153.536C197.452 153.227 197.868 152.8 198.167 152.256C198.476 151.712 198.631 151.093 198.631 150.4C198.631 149.707 198.476 149.088 198.167 148.544C197.868 148 197.452 147.579 196.919 147.28C196.385 146.971 195.788 146.816 195.127 146.816C194.465 146.816 193.868 146.971 193.335 147.28C192.801 147.579 192.38 148 192.071 148.544C191.772 149.088 191.623 149.707 191.623 150.4C191.623 151.093 191.772 151.712 192.071 152.256C192.38 152.8 192.801 153.227 193.335 153.536C193.868 153.835 194.465 153.984 195.127 153.984ZM209.559 159.104C208.919 158.133 208.423 157.008 208.071 155.728C207.729 154.448 207.559 153.077 207.559 151.616C207.559 150.155 207.729 148.784 208.071 147.504C208.423 146.213 208.919 145.088 209.559 144.128H211.943C211.271 145.312 210.78 146.517 210.471 147.744C210.161 148.96 210.007 150.251 210.007 151.616C210.007 152.981 210.161 154.277 210.471 155.504C210.78 156.72 211.271 157.92 211.943 159.104H209.559ZM221.389 146.912H216.061L216.077 156H213.501V144.8H221.405L221.389 146.912ZM220.721 156.128C220.284 156.128 219.916 155.979 219.617 155.68C219.318 155.381 219.169 155.008 219.169 154.56C219.169 154.101 219.318 153.733 219.617 153.456C219.916 153.168 220.284 153.024 220.721 153.024C221.158 153.024 221.526 153.168 221.825 153.456C222.124 153.733 222.273 154.101 222.273 154.56C222.273 155.008 222.124 155.381 221.825 155.68C221.526 155.979 221.158 156.128 220.721 156.128ZM237.296 146.912H233.712V156H231.152V146.912H227.584V144.8H237.296V146.912ZM248.551 144.8L243.783 153.664C243.324 154.517 242.77 155.163 242.119 155.6C241.479 156.037 240.78 156.256 240.023 156.256C239.436 156.256 238.828 156.128 238.199 155.872L238.823 153.904C239.271 154.043 239.644 154.112 239.943 154.112C240.263 154.112 240.551 154.037 240.807 153.888C241.063 153.728 241.298 153.483 241.511 153.152L241.607 153.024L237.191 144.8H239.959L242.935 150.816L246.007 144.8H248.551ZM259.579 144.8V156H257.019V146.912H253.179L253.099 149.248C253.046 150.837 252.918 152.128 252.715 153.12C252.512 154.101 252.171 154.859 251.691 155.392C251.222 155.915 250.56 156.176 249.707 156.176C249.355 156.176 248.928 156.117 248.427 156L248.587 153.808C248.726 153.851 248.88 153.872 249.051 153.872C249.67 153.872 250.102 153.509 250.347 152.784C250.592 152.048 250.747 150.901 250.811 149.344L250.971 144.8H259.579ZM269.96 153.6H264.76L263.768 156H261.112L266.104 144.8H268.664L273.672 156H270.952L269.96 153.6ZM269.144 151.632L267.368 147.344L265.592 151.632H269.144ZM273.926 159.104C274.598 157.92 275.088 156.72 275.398 155.504C275.718 154.277 275.878 152.981 275.878 151.616C275.878 150.251 275.718 148.96 275.398 147.744C275.088 146.517 274.598 145.312 273.926 144.128H276.31C276.96 145.077 277.456 146.197 277.798 147.488C278.15 148.768 278.326 150.144 278.326 151.616C278.326 153.088 278.155 154.464 277.814 155.744C277.472 157.013 276.971 158.133 276.31 159.104H273.926Z" fill="#030E2B"></path><path d="M40.688 112.192C39.5467 112.192 38.512 111.947 37.584 111.456C36.6667 110.955 35.9413 110.267 35.408 109.392C34.8853 108.507 34.624 107.509 34.624 106.4C34.624 105.291 34.8853 104.299 35.408 103.424C35.9413 102.539 36.6667 101.851 37.584 101.36C38.512 100.859 39.552 100.608 40.704 100.608C41.6747 100.608 42.5493 100.779 43.328 101.12C44.1173 101.461 44.7787 101.952 45.312 102.592L43.648 104.128C42.8907 103.253 41.952 102.816 40.832 102.816C40.1387 102.816 39.52 102.971 38.976 103.28C38.432 103.579 38.0053 104 37.696 104.544C37.3973 105.088 37.248 105.707 37.248 106.4C37.248 107.093 37.3973 107.712 37.696 108.256C38.0053 108.8 38.432 109.227 38.976 109.536C39.52 109.835 40.1387 109.984 40.832 109.984C41.952 109.984 42.8907 109.541 43.648 108.656L45.312 110.192C44.7787 110.843 44.1173 111.339 43.328 111.68C42.5387 112.021 41.6587 112.192 40.688 112.192ZM51.3374 107.488H49.5454V112H46.9694V100.8H49.5454V105.328H51.4014L54.3454 100.8H57.0814L53.4174 106.208L57.1934 112H54.2494L51.3374 107.488ZM68.6729 100.8V112H66.1129V102.912H62.2729L62.1929 105.248C62.1395 106.837 62.0115 108.128 61.8089 109.12C61.6062 110.101 61.2649 110.859 60.7849 111.392C60.3155 111.915 59.6542 112.176 58.8009 112.176C58.4489 112.176 58.0222 112.117 57.5209 112L57.6809 109.808C57.8195 109.851 57.9742 109.872 58.1449 109.872C58.7635 109.872 59.1955 109.509 59.4409 108.784C59.6862 108.048 59.8409 106.901 59.9049 105.344L60.0649 100.8H68.6729ZM79.0541 109.6H73.8541L72.8621 112H70.2061L75.1981 100.8H77.7581L82.7661 112H80.0461L79.0541 109.6ZM78.2381 107.632L76.4621 103.344L74.6861 107.632H78.2381ZM95.8971 109.888V114.32H93.4971V112H85.5931V114.32H83.1931L83.2091 109.888H83.6571C84.3291 109.867 84.8038 109.376 85.0811 108.416C85.3585 107.456 85.5291 106.085 85.5931 104.304L85.7211 100.8H94.3291V109.888H95.8971ZM87.8811 104.544C87.8278 105.877 87.7158 106.997 87.5451 107.904C87.3745 108.8 87.1131 109.461 86.7611 109.888H91.7691V102.912H87.9291L87.8811 104.544ZM112.445 100.8V112H109.853V107.408H104.765V112H102.173V100.8H104.765V105.216H109.853V100.8H112.445ZM120.595 112.192C119.433 112.192 118.382 111.941 117.443 111.44C116.515 110.939 115.785 110.251 115.251 109.376C114.729 108.491 114.467 107.499 114.467 106.4C114.467 105.301 114.729 104.315 115.251 103.44C115.785 102.555 116.515 101.861 117.443 101.36C118.382 100.859 119.433 100.608 120.595 100.608C121.758 100.608 122.803 100.859 123.731 101.36C124.659 101.861 125.39 102.555 125.923 103.44C126.457 104.315 126.723 105.301 126.723 106.4C126.723 107.499 126.457 108.491 125.923 109.376C125.39 110.251 124.659 110.939 123.731 111.44C122.803 111.941 121.758 112.192 120.595 112.192ZM120.595 109.984C121.257 109.984 121.854 109.835 122.387 109.536C122.921 109.227 123.337 108.8 123.635 108.256C123.945 107.712 124.099 107.093 124.099 106.4C124.099 105.707 123.945 105.088 123.635 104.544C123.337 104 122.921 103.579 122.387 103.28C121.854 102.971 121.257 102.816 120.595 102.816C119.934 102.816 119.337 102.971 118.803 103.28C118.27 103.579 117.849 104 117.539 104.544C117.241 105.088 117.091 105.707 117.091 106.4C117.091 107.093 117.241 107.712 117.539 108.256C117.849 108.8 118.27 109.227 118.803 109.536C119.337 109.835 119.934 109.984 120.595 109.984ZM136.48 106.16C137.163 106.363 137.685 106.693 138.048 107.152C138.411 107.611 138.592 108.176 138.592 108.848C138.592 109.84 138.213 110.613 137.456 111.168C136.709 111.723 135.637 112 134.24 112H128.72V100.8H133.936C135.237 100.8 136.251 101.051 136.976 101.552C137.701 102.053 138.064 102.768 138.064 103.696C138.064 104.251 137.925 104.741 137.648 105.168C137.371 105.584 136.981 105.915 136.48 106.16ZM131.296 105.44H133.712C134.277 105.44 134.704 105.328 134.992 105.104C135.28 104.869 135.424 104.528 135.424 104.08C135.424 103.643 135.275 103.307 134.976 103.072C134.688 102.837 134.267 102.72 133.712 102.72H131.296V105.44ZM134.144 110.08C135.36 110.08 135.968 109.6 135.968 108.64C135.968 107.712 135.36 107.248 134.144 107.248H131.296V110.08H134.144ZM145.986 112.192C144.823 112.192 143.773 111.941 142.834 111.44C141.906 110.939 141.175 110.251 140.642 109.376C140.119 108.491 139.858 107.499 139.858 106.4C139.858 105.301 140.119 104.315 140.642 103.44C141.175 102.555 141.906 101.861 142.834 101.36C143.773 100.859 144.823 100.608 145.986 100.608C147.149 100.608 148.194 100.859 149.122 101.36C150.05 101.861 150.781 102.555 151.314 103.44C151.847 104.315 152.114 105.301 152.114 106.4C152.114 107.499 151.847 108.491 151.314 109.376C150.781 110.251 150.05 110.939 149.122 111.44C148.194 111.941 147.149 112.192 145.986 112.192ZM145.986 109.984C146.647 109.984 147.245 109.835 147.778 109.536C148.311 109.227 148.727 108.8 149.026 108.256C149.335 107.712 149.49 107.093 149.49 106.4C149.49 105.707 149.335 105.088 149.026 104.544C148.727 104 148.311 103.579 147.778 103.28C147.245 102.971 146.647 102.816 145.986 102.816C145.325 102.816 144.727 102.971 144.194 103.28C143.661 103.579 143.239 104 142.93 104.544C142.631 105.088 142.482 105.707 142.482 106.4C142.482 107.093 142.631 107.712 142.93 108.256C143.239 108.8 143.661 109.227 144.194 109.536C144.727 109.835 145.325 109.984 145.986 109.984ZM159.407 112.192C158.265 112.192 157.231 111.947 156.303 111.456C155.385 110.955 154.66 110.267 154.127 109.392C153.604 108.507 153.343 107.509 153.343 106.4C153.343 105.291 153.604 104.299 154.127 103.424C154.66 102.539 155.385 101.851 156.303 101.36C157.231 100.859 158.271 100.608 159.423 100.608C160.393 100.608 161.268 100.779 162.047 101.12C162.836 101.461 163.497 101.952 164.031 102.592L162.367 104.128C161.609 103.253 160.671 102.816 159.551 102.816C158.857 102.816 158.239 102.971 157.695 103.28C157.151 103.579 156.724 104 156.415 104.544C156.116 105.088 155.967 105.707 155.967 106.4C155.967 107.093 156.116 107.712 156.415 108.256C156.724 108.8 157.151 109.227 157.695 109.536C158.239 109.835 158.857 109.984 159.551 109.984C160.671 109.984 161.609 109.541 162.367 108.656L164.031 110.192C163.497 110.843 162.836 111.339 162.047 111.68C161.257 112.021 160.377 112.192 159.407 112.192ZM174.392 109.92V112H165.72V100.8H174.184V102.88H168.296V105.312H173.496V107.328H168.296V109.92H174.392ZM186.47 100.8V112H183.91V102.912H180.07L179.99 105.248C179.936 106.837 179.808 108.128 179.606 109.12C179.403 110.101 179.062 110.859 178.582 111.392C178.112 111.915 177.451 112.176 176.598 112.176C176.246 112.176 175.819 112.117 175.318 112L175.478 109.808C175.616 109.851 175.771 109.872 175.942 109.872C176.56 109.872 176.992 109.509 177.238 108.784C177.483 108.048 177.638 106.901 177.702 105.344L177.862 100.8H186.47ZM193.603 107.488H191.811V112H189.235V100.8H191.811V105.328H193.667L196.611 100.8H199.347L195.683 106.208L199.459 112H196.515L193.603 107.488ZM200.673 100.8H203.249V108.096L208.593 100.8H211.025V112H208.465V104.72L203.121 112H200.673V100.8ZM220.121 115.104C219.481 114.133 218.985 113.008 218.633 111.728C218.292 110.448 218.121 109.077 218.121 107.616C218.121 106.155 218.292 104.784 218.633 103.504C218.985 102.213 219.481 101.088 220.121 100.128H222.505C221.833 101.312 221.342 102.517 221.033 103.744C220.724 104.96 220.569 106.251 220.569 107.616C220.569 108.981 220.724 110.277 221.033 111.504C221.342 112.72 221.833 113.92 222.505 115.104H220.121ZM231.952 102.912H226.624L226.64 112H224.064V100.8H231.968L231.952 102.912ZM231.284 112.128C230.846 112.128 230.478 111.979 230.18 111.68C229.881 111.381 229.732 111.008 229.732 110.56C229.732 110.101 229.881 109.733 230.18 109.456C230.478 109.168 230.846 109.024 231.284 109.024C231.721 109.024 232.089 109.168 232.388 109.456C232.686 109.733 232.836 110.101 232.836 110.56C232.836 111.008 232.686 111.381 232.388 111.68C232.089 111.979 231.721 112.128 231.284 112.128ZM248.498 100.8V112H245.938V107.968C244.968 108.32 244.066 108.496 243.234 108.496C241.73 108.496 240.578 108.139 239.778 107.424C238.978 106.699 238.578 105.659 238.578 104.304V100.8H241.138V104.016C241.138 104.784 241.341 105.365 241.746 105.76C242.162 106.144 242.76 106.336 243.538 106.336C244.392 106.336 245.192 106.171 245.938 105.84V100.8H248.498ZM259.955 109.92V112H251.283V100.8H259.747V102.88H253.859V105.312H259.059V107.328H253.859V109.92H259.955ZM263.955 100.8L266.275 104.192L268.595 100.8H271.635L267.907 106.16L271.939 112H268.883L266.275 108.288L263.699 112H260.707L264.707 106.272L260.963 100.8H263.955ZM278.424 112.192C277.261 112.192 276.21 111.941 275.272 111.44C274.344 110.939 273.613 110.251 273.08 109.376C272.557 108.491 272.296 107.499 272.296 106.4C272.296 105.301 272.557 104.315 273.08 103.44C273.613 102.555 274.344 101.861 275.272 101.36C276.21 100.859 277.261 100.608 278.424 100.608C279.586 100.608 280.632 100.859 281.56 101.36C282.488 101.861 283.218 102.555 283.752 103.44C284.285 104.315 284.552 105.301 284.552 106.4C284.552 107.499 284.285 108.491 283.752 109.376C283.218 110.251 282.488 110.939 281.56 111.44C280.632 111.941 279.586 112.192 278.424 112.192ZM278.424 109.984C279.085 109.984 279.682 109.835 280.216 109.536C280.749 109.227 281.165 108.8 281.464 108.256C281.773 107.712 281.928 107.093 281.928 106.4C281.928 105.707 281.773 105.088 281.464 104.544C281.165 104 280.749 103.579 280.216 103.28C279.682 102.971 279.085 102.816 278.424 102.816C277.762 102.816 277.165 102.971 276.632 103.28C276.098 103.579 275.677 104 275.368 104.544C275.069 105.088 274.92 105.707 274.92 106.4C274.92 107.093 275.069 107.712 275.368 108.256C275.677 108.8 276.098 109.227 276.632 109.536C277.165 109.835 277.762 109.984 278.424 109.984ZM294.308 106.16C294.991 106.363 295.514 106.693 295.876 107.152C296.239 107.611 296.42 108.176 296.42 108.848C296.42 109.84 296.042 110.613 295.284 111.168C294.538 111.723 293.466 112 292.068 112H286.548V100.8H291.764C293.066 100.8 294.079 101.051 294.804 101.552C295.53 102.053 295.892 102.768 295.892 103.696C295.892 104.251 295.754 104.741 295.476 105.168C295.199 105.584 294.81 105.915 294.308 106.16ZM289.124 105.44H291.54C292.106 105.44 292.532 105.328 292.82 105.104C293.108 104.869 293.252 104.528 293.252 104.08C293.252 103.643 293.103 103.307 292.804 103.072C292.516 102.837 292.095 102.72 291.54 102.72H289.124V105.44ZM291.972 110.08C293.188 110.08 293.796 109.6 293.796 108.64C293.796 107.712 293.188 107.248 291.972 107.248H289.124V110.08H291.972ZM297.238 115.104C297.91 113.92 298.401 112.72 298.71 111.504C299.03 110.277 299.19 108.981 299.19 107.616C299.19 106.251 299.03 104.96 298.71 103.744C298.401 102.517 297.91 101.312 297.238 100.128H299.622C300.273 101.077 300.769 102.197 301.11 103.488C301.462 104.768 301.638 106.144 301.638 107.616C301.638 109.088 301.467 110.464 301.126 111.744C300.785 113.013 300.283 114.133 299.622 115.104H297.238Z" fill="#030E2B"></path><path d="M945.24 144.8V156H943.656V146.192H941.128V144.8H945.24ZM957.434 153.248H955.306V156H953.754V153.248H947.53V152.128L953.258 144.8H954.986L949.498 151.872H953.802V149.44H955.306V151.872H957.434V153.248ZM972.434 153.248H970.306V156H968.754V153.248H962.53V152.128L968.258 144.8H969.986L964.498 151.872H968.802V149.44H970.306V151.872H972.434V153.248ZM977.969 156.128C977.084 156.128 976.294 155.904 975.601 155.456C974.918 154.997 974.38 154.336 973.985 153.472C973.59 152.608 973.393 151.584 973.393 150.4C973.393 149.216 973.59 148.192 973.985 147.328C974.38 146.464 974.918 145.808 975.601 145.36C976.294 144.901 977.084 144.672 977.969 144.672C978.844 144.672 979.622 144.901 980.305 145.36C980.998 145.808 981.542 146.464 981.937 147.328C982.332 148.192 982.529 149.216 982.529 150.4C982.529 151.584 982.332 152.608 981.937 153.472C981.542 154.336 980.998 154.997 980.305 155.456C979.622 155.904 978.844 156.128 977.969 156.128ZM977.969 154.704C978.865 154.704 979.58 154.336 980.113 153.6C980.657 152.864 980.929 151.797 980.929 150.4C980.929 149.003 980.657 147.936 980.113 147.2C979.58 146.464 978.865 146.096 977.969 146.096C977.062 146.096 976.337 146.464 975.793 147.2C975.26 147.936 974.993 149.003 974.993 150.4C974.993 151.797 975.26 152.864 975.793 153.6C976.337 154.336 977.062 154.704 977.969 154.704ZM988.641 156.128C987.756 156.128 986.966 155.904 986.273 155.456C985.59 154.997 985.052 154.336 984.657 153.472C984.262 152.608 984.065 151.584 984.065 150.4C984.065 149.216 984.262 148.192 984.657 147.328C985.052 146.464 985.59 145.808 986.273 145.36C986.966 144.901 987.756 144.672 988.641 144.672C989.516 144.672 990.294 144.901 990.977 145.36C991.67 145.808 992.214 146.464 992.609 147.328C993.004 148.192 993.201 149.216 993.201 150.4C993.201 151.584 993.004 152.608 992.609 153.472C992.214 154.336 991.67 154.997 990.977 155.456C990.294 155.904 989.516 156.128 988.641 156.128ZM988.641 154.704C989.537 154.704 990.252 154.336 990.785 153.6C991.329 152.864 991.601 151.797 991.601 150.4C991.601 149.003 991.329 147.936 990.785 147.2C990.252 146.464 989.537 146.096 988.641 146.096C987.734 146.096 987.009 146.464 986.465 147.2C985.932 147.936 985.665 149.003 985.665 150.4C985.665 151.797 985.932 152.864 986.465 153.6C987.009 154.336 987.734 154.704 988.641 154.704Z" fill="#030E2B"></path><path d="M948.616 106.128C949.256 106.373 949.747 106.725 950.088 107.184C950.429 107.643 950.6 108.192 950.6 108.832C950.6 109.504 950.419 110.091 950.056 110.592C949.693 111.083 949.176 111.461 948.504 111.728C947.832 111.995 947.043 112.128 946.136 112.128C945.24 112.128 944.456 111.995 943.784 111.728C943.123 111.461 942.611 111.083 942.248 110.592C941.885 110.091 941.704 109.504 941.704 108.832C941.704 108.192 941.869 107.643 942.2 107.184C942.541 106.725 943.032 106.373 943.672 106.128C943.16 105.883 942.771 105.557 942.504 105.152C942.237 104.747 942.104 104.267 942.104 103.712C942.104 103.093 942.269 102.555 942.6 102.096C942.941 101.637 943.416 101.285 944.024 101.04C944.632 100.795 945.336 100.672 946.136 100.672C946.947 100.672 947.656 100.795 948.264 101.04C948.883 101.285 949.357 101.637 949.688 102.096C950.029 102.555 950.2 103.093 950.2 103.712C950.2 104.256 950.061 104.736 949.784 105.152C949.517 105.557 949.128 105.883 948.616 106.128ZM946.136 101.968C945.379 101.968 944.781 102.133 944.344 102.464C943.907 102.784 943.688 103.221 943.688 103.776C943.688 104.331 943.901 104.768 944.328 105.088C944.765 105.408 945.368 105.568 946.136 105.568C946.915 105.568 947.523 105.408 947.96 105.088C948.408 104.768 948.632 104.331 948.632 103.776C948.632 103.221 948.403 102.784 947.944 102.464C947.496 102.133 946.893 101.968 946.136 101.968ZM946.136 110.832C947.021 110.832 947.72 110.651 948.232 110.288C948.744 109.915 949 109.413 949 108.784C949 108.165 948.744 107.68 948.232 107.328C947.72 106.965 947.021 106.784 946.136 106.784C945.251 106.784 944.557 106.965 944.056 107.328C943.555 107.68 943.304 108.165 943.304 108.784C943.304 109.413 943.555 109.915 944.056 110.288C944.557 110.651 945.251 110.832 946.136 110.832ZM966.106 109.248H963.978V112H962.426V109.248H956.202V108.128L961.93 100.8H963.658L958.17 107.872H962.474V105.44H963.978V107.872H966.106V109.248ZM971.641 112.128C970.756 112.128 969.966 111.904 969.273 111.456C968.59 110.997 968.052 110.336 967.657 109.472C967.262 108.608 967.065 107.584 967.065 106.4C967.065 105.216 967.262 104.192 967.657 103.328C968.052 102.464 968.59 101.808 969.273 101.36C969.966 100.901 970.756 100.672 971.641 100.672C972.516 100.672 973.294 100.901 973.977 101.36C974.67 101.808 975.214 102.464 975.609 103.328C976.004 104.192 976.201 105.216 976.201 106.4C976.201 107.584 976.004 108.608 975.609 109.472C975.214 110.336 974.67 110.997 973.977 111.456C973.294 111.904 972.516 112.128 971.641 112.128ZM971.641 110.704C972.537 110.704 973.252 110.336 973.785 109.6C974.329 108.864 974.601 107.797 974.601 106.4C974.601 105.003 974.329 103.936 973.785 103.2C973.252 102.464 972.537 102.096 971.641 102.096C970.734 102.096 970.009 102.464 969.465 103.2C968.932 103.936 968.665 105.003 968.665 106.4C968.665 107.797 968.932 108.864 969.465 109.6C970.009 110.336 970.734 110.704 971.641 110.704ZM982.313 112.128C981.427 112.128 980.638 111.904 979.945 111.456C979.262 110.997 978.723 110.336 978.329 109.472C977.934 108.608 977.737 107.584 977.737 106.4C977.737 105.216 977.934 104.192 978.329 103.328C978.723 102.464 979.262 101.808 979.945 101.36C980.638 100.901 981.427 100.672 982.313 100.672C983.187 100.672 983.966 100.901 984.649 101.36C985.342 101.808 985.886 102.464 986.281 103.328C986.675 104.192 986.873 105.216 986.873 106.4C986.873 107.584 986.675 108.608 986.281 109.472C985.886 110.336 985.342 110.997 984.649 111.456C983.966 111.904 983.187 112.128 982.313 112.128ZM982.313 110.704C983.209 110.704 983.923 110.336 984.457 109.6C985.001 108.864 985.273 107.797 985.273 106.4C985.273 105.003 985.001 103.936 984.457 103.2C983.923 102.464 983.209 102.096 982.313 102.096C981.406 102.096 980.681 102.464 980.137 103.2C979.603 103.936 979.337 105.003 979.337 106.4C979.337 107.797 979.603 108.864 980.137 109.6C980.681 110.336 981.406 110.704 982.313 110.704Z" fill="#030E2B"></path><path d="M556.784 156.128C555.653 156.128 554.635 155.883 553.728 155.392C552.821 154.891 552.107 154.203 551.584 153.328C551.072 152.453 550.816 151.477 550.816 150.4C550.816 149.323 551.072 148.347 551.584 147.472C552.107 146.597 552.821 145.915 553.728 145.424C554.635 144.923 555.653 144.672 556.784 144.672C557.904 144.672 558.917 144.923 559.824 145.424C560.731 145.915 561.44 146.597 561.952 147.472C562.464 148.336 562.72 149.312 562.72 150.4C562.72 151.488 562.464 152.469 561.952 153.344C561.44 154.208 560.731 154.891 559.824 155.392C558.917 155.883 557.904 156.128 556.784 156.128ZM556.784 154.704C557.605 154.704 558.341 154.517 558.992 154.144C559.653 153.771 560.171 153.259 560.544 152.608C560.928 151.947 561.12 151.211 561.12 150.4C561.12 149.589 560.928 148.859 560.544 148.208C560.171 147.547 559.653 147.029 558.992 146.656C558.341 146.283 557.605 146.096 556.784 146.096C555.963 146.096 555.216 146.283 554.544 146.656C553.883 147.029 553.36 147.547 552.976 148.208C552.603 148.859 552.416 149.589 552.416 150.4C552.416 151.211 552.603 151.947 552.976 152.608C553.36 153.259 553.883 153.771 554.544 154.144C555.216 154.517 555.963 154.704 556.784 154.704ZM572.846 146.192H569.006V156H567.438V146.192H563.614V144.8H572.846V146.192ZM581.584 144.8V156H580V146.192H577.472V144.8H581.584ZM591.906 154.608V156H583.858V154.912L588.418 150.512C588.972 149.979 589.346 149.52 589.538 149.136C589.73 148.741 589.826 148.347 589.826 147.952C589.826 147.365 589.618 146.912 589.202 146.592C588.796 146.261 588.21 146.096 587.442 146.096C586.204 146.096 585.25 146.501 584.578 147.312L583.49 146.368C583.927 145.835 584.498 145.419 585.202 145.12C585.916 144.821 586.711 144.672 587.586 144.672C588.759 144.672 589.692 144.955 590.386 145.52C591.079 146.075 591.426 146.832 591.426 147.792C591.426 148.389 591.298 148.955 591.042 149.488C590.786 150.021 590.3 150.629 589.586 151.312L586.162 154.608H591.906ZM602.094 156.128C601.209 156.128 600.419 155.904 599.726 155.456C599.043 154.997 598.505 154.336 598.11 153.472C597.715 152.608 597.518 151.584 597.518 150.4C597.518 149.216 597.715 148.192 598.11 147.328C598.505 146.464 599.043 145.808 599.726 145.36C600.419 144.901 601.209 144.672 602.094 144.672C602.969 144.672 603.747 144.901 604.43 145.36C605.123 145.808 605.667 146.464 606.062 147.328C606.457 148.192 606.654 149.216 606.654 150.4C606.654 151.584 606.457 152.608 606.062 153.472C605.667 154.336 605.123 154.997 604.43 155.456C603.747 155.904 602.969 156.128 602.094 156.128ZM602.094 154.704C602.99 154.704 603.705 154.336 604.238 153.6C604.782 152.864 605.054 151.797 605.054 150.4C605.054 149.003 604.782 147.936 604.238 147.2C603.705 146.464 602.99 146.096 602.094 146.096C601.187 146.096 600.462 146.464 599.918 147.2C599.385 147.936 599.118 149.003 599.118 150.4C599.118 151.797 599.385 152.864 599.918 153.6C600.462 154.336 601.187 154.704 602.094 154.704ZM612.766 156.128C611.881 156.128 611.091 155.904 610.398 155.456C609.715 154.997 609.177 154.336 608.782 153.472C608.387 152.608 608.19 151.584 608.19 150.4C608.19 149.216 608.387 148.192 608.782 147.328C609.177 146.464 609.715 145.808 610.398 145.36C611.091 144.901 611.881 144.672 612.766 144.672C613.641 144.672 614.419 144.901 615.102 145.36C615.795 145.808 616.339 146.464 616.734 147.328C617.129 148.192 617.326 149.216 617.326 150.4C617.326 151.584 617.129 152.608 616.734 153.472C616.339 154.336 615.795 154.997 615.102 155.456C614.419 155.904 613.641 156.128 612.766 156.128ZM612.766 154.704C613.662 154.704 614.377 154.336 614.91 153.6C615.454 152.864 615.726 151.797 615.726 150.4C615.726 149.003 615.454 147.936 614.91 147.2C614.377 146.464 613.662 146.096 612.766 146.096C611.859 146.096 611.134 146.464 610.59 147.2C610.057 147.936 609.79 149.003 609.79 150.4C609.79 151.797 610.057 152.864 610.59 153.6C611.134 154.336 611.859 154.704 612.766 154.704ZM623.438 156.128C622.552 156.128 621.763 155.904 621.07 155.456C620.387 154.997 619.848 154.336 619.454 153.472C619.059 152.608 618.862 151.584 618.862 150.4C618.862 149.216 619.059 148.192 619.454 147.328C619.848 146.464 620.387 145.808 621.07 145.36C621.763 144.901 622.552 144.672 623.438 144.672C624.312 144.672 625.091 144.901 625.774 145.36C626.467 145.808 627.011 146.464 627.406 147.328C627.8 148.192 627.998 149.216 627.998 150.4C627.998 151.584 627.8 152.608 627.406 153.472C627.011 154.336 626.467 154.997 625.774 155.456C625.091 155.904 624.312 156.128 623.438 156.128ZM623.438 154.704C624.334 154.704 625.048 154.336 625.582 153.6C626.126 152.864 626.398 151.797 626.398 150.4C626.398 149.003 626.126 147.936 625.582 147.2C625.048 146.464 624.334 146.096 623.438 146.096C622.531 146.096 621.806 146.464 621.262 147.2C620.728 147.936 620.462 149.003 620.462 150.4C620.462 151.797 620.728 152.864 621.262 153.6C621.806 154.336 622.531 154.704 623.438 154.704Z" fill="#030E2B"></path><path d="M558.928 100.8V101.888L554.4 112H552.704L557.136 102.192H552.016V104.192H550.48V100.8H558.928ZM569.203 112.128C568.318 112.128 567.529 111.904 566.835 111.456C566.153 110.997 565.614 110.336 565.219 109.472C564.825 108.608 564.627 107.584 564.627 106.4C564.627 105.216 564.825 104.192 565.219 103.328C565.614 102.464 566.153 101.808 566.835 101.36C567.529 100.901 568.318 100.672 569.203 100.672C570.078 100.672 570.857 100.901 571.539 101.36C572.233 101.808 572.777 102.464 573.171 103.328C573.566 104.192 573.763 105.216 573.763 106.4C573.763 107.584 573.566 108.608 573.171 109.472C572.777 110.336 572.233 110.997 571.539 111.456C570.857 111.904 570.078 112.128 569.203 112.128ZM569.203 110.704C570.099 110.704 570.814 110.336 571.347 109.6C571.891 108.864 572.163 107.797 572.163 106.4C572.163 105.003 571.891 103.936 571.347 103.2C570.814 102.464 570.099 102.096 569.203 102.096C568.297 102.096 567.571 102.464 567.027 103.2C566.494 103.936 566.227 105.003 566.227 106.4C566.227 107.797 566.494 108.864 567.027 109.6C567.571 110.336 568.297 110.704 569.203 110.704ZM579.875 112.128C578.99 112.128 578.201 111.904 577.507 111.456C576.825 110.997 576.286 110.336 575.891 109.472C575.497 108.608 575.299 107.584 575.299 106.4C575.299 105.216 575.497 104.192 575.891 103.328C576.286 102.464 576.825 101.808 577.507 101.36C578.201 100.901 578.99 100.672 579.875 100.672C580.75 100.672 581.529 100.901 582.211 101.36C582.905 101.808 583.449 102.464 583.843 103.328C584.238 104.192 584.435 105.216 584.435 106.4C584.435 107.584 584.238 108.608 583.843 109.472C583.449 110.336 582.905 110.997 582.211 111.456C581.529 111.904 580.75 112.128 579.875 112.128ZM579.875 110.704C580.771 110.704 581.486 110.336 582.019 109.6C582.563 108.864 582.835 107.797 582.835 106.4C582.835 105.003 582.563 103.936 582.019 103.2C581.486 102.464 580.771 102.096 579.875 102.096C578.969 102.096 578.243 102.464 577.699 103.2C577.166 103.936 576.899 105.003 576.899 106.4C576.899 107.797 577.166 108.864 577.699 109.6C578.243 110.336 578.969 110.704 579.875 110.704ZM590.547 112.128C589.662 112.128 588.872 111.904 588.179 111.456C587.496 110.997 586.958 110.336 586.563 109.472C586.168 108.608 585.971 107.584 585.971 106.4C585.971 105.216 586.168 104.192 586.563 103.328C586.958 102.464 587.496 101.808 588.179 101.36C588.872 100.901 589.662 100.672 590.547 100.672C591.422 100.672 592.2 100.901 592.883 101.36C593.576 101.808 594.12 102.464 594.515 103.328C594.91 104.192 595.107 105.216 595.107 106.4C595.107 107.584 594.91 108.608 594.515 109.472C594.12 110.336 593.576 110.997 592.883 111.456C592.2 111.904 591.422 112.128 590.547 112.128ZM590.547 110.704C591.443 110.704 592.158 110.336 592.691 109.6C593.235 108.864 593.507 107.797 593.507 106.4C593.507 105.003 593.235 103.936 592.691 103.2C592.158 102.464 591.443 102.096 590.547 102.096C589.64 102.096 588.915 102.464 588.371 103.2C587.838 103.936 587.571 105.003 587.571 106.4C587.571 107.797 587.838 108.864 588.371 109.6C588.915 110.336 589.64 110.704 590.547 110.704Z" fill="#030E2B"></path><path d="M42.688 203.192C41.5467 203.192 40.512 202.947 39.584 202.456C38.6667 201.955 37.9413 201.267 37.408 200.392C36.8853 199.507 36.624 198.509 36.624 197.4C36.624 196.291 36.8853 195.299 37.408 194.424C37.9413 193.539 38.6667 192.851 39.584 192.36C40.512 191.859 41.552 191.608 42.704 191.608C43.6747 191.608 44.5493 191.779 45.328 192.12C46.1173 192.461 46.7787 192.952 47.312 193.592L45.648 195.128C44.8907 194.253 43.952 193.816 42.832 193.816C42.1387 193.816 41.52 193.971 40.976 194.28C40.432 194.579 40.0053 195 39.696 195.544C39.3973 196.088 39.248 196.707 39.248 197.4C39.248 198.093 39.3973 198.712 39.696 199.256C40.0053 199.8 40.432 200.227 40.976 200.536C41.52 200.835 42.1387 200.984 42.832 200.984C43.952 200.984 44.8907 200.541 45.648 199.656L47.312 201.192C46.7787 201.843 46.1173 202.339 45.328 202.68C44.5387 203.021 43.6587 203.192 42.688 203.192ZM60.7454 200.888V205.368H58.3614V203H49.0014V191.8H51.5774V200.888H56.5694V191.8H59.1454V200.888H60.7454ZM66.9858 191.8H76.0258V193.864H69.5618V196.168H72.6658C74.0204 196.168 75.0498 196.451 75.7538 197.016C76.4684 197.581 76.8258 198.397 76.8258 199.464C76.8258 200.584 76.4311 201.453 75.6418 202.072C74.8524 202.691 73.7378 203 72.2978 203H66.9858V191.8ZM72.1538 201.08C72.8151 201.08 73.3218 200.952 73.6737 200.696C74.0258 200.429 74.2018 200.045 74.2018 199.544C74.2018 198.563 73.5191 198.072 72.1538 198.072H69.5618V201.08H72.1538ZM87.4703 200.92V203H78.7983V191.8H87.2623V193.88H81.3743V196.312H86.5743V198.328H81.3743V200.92H87.4703ZM99.5479 191.8V203H96.9879V193.912H93.1479L93.0679 196.248C93.0145 197.837 92.8865 199.128 92.6839 200.12C92.4812 201.101 92.1399 201.859 91.6599 202.392C91.1905 202.915 90.5292 203.176 89.6759 203.176C89.3239 203.176 88.8972 203.117 88.3959 203L88.5559 200.808C88.6945 200.851 88.8492 200.872 89.0199 200.872C89.6385 200.872 90.0705 200.509 90.3159 199.784C90.5612 199.048 90.7159 197.901 90.7799 196.344L90.9399 191.8H99.5479ZM107.769 195.48C109.134 195.48 110.18 195.784 110.905 196.392C111.641 197 112.009 197.901 112.009 199.096C112.009 200.365 111.604 201.336 110.793 202.008C109.993 202.669 108.862 203 107.401 203H102.345V191.8H104.921V195.48H107.769ZM107.257 201.08C107.929 201.08 108.452 200.915 108.825 200.584C109.209 200.253 109.401 199.773 109.401 199.144C109.401 197.981 108.686 197.4 107.257 197.4H104.921V201.08H107.257ZM113.433 191.8H116.009V203H113.433V191.8ZM127.47 200.92V203H118.798V191.8H127.262V193.88H121.374V196.312H126.574V198.328H121.374V200.92H127.47ZM139.391 203.192C138.25 203.192 137.215 202.947 136.287 202.456C135.37 201.955 134.644 201.267 134.111 200.392C133.588 199.507 133.327 198.509 133.327 197.4C133.327 196.291 133.588 195.299 134.111 194.424C134.644 193.539 135.37 192.851 136.287 192.36C137.215 191.859 138.255 191.608 139.407 191.608C140.378 191.608 141.252 191.779 142.031 192.12C142.82 192.461 143.482 192.952 144.015 193.592L142.351 195.128C141.594 194.253 140.655 193.816 139.535 193.816C138.842 193.816 138.223 193.971 137.679 194.28C137.135 194.579 136.708 195 136.399 195.544C136.1 196.088 135.951 196.707 135.951 197.4C135.951 198.093 136.1 198.712 136.399 199.256C136.708 199.8 137.135 200.227 137.679 200.536C138.223 200.835 138.842 200.984 139.535 200.984C140.655 200.984 141.594 200.541 142.351 199.656L144.015 201.192C143.482 201.843 142.82 202.339 142.031 202.68C141.242 203.021 140.362 203.192 139.391 203.192ZM154.155 193.912H150.571V203H148.011V193.912H144.443V191.8H154.155V193.912ZM160.97 203.192C159.808 203.192 158.757 202.941 157.818 202.44C156.89 201.939 156.16 201.251 155.626 200.376C155.104 199.491 154.842 198.499 154.842 197.4C154.842 196.301 155.104 195.315 155.626 194.44C156.16 193.555 156.89 192.861 157.818 192.36C158.757 191.859 159.808 191.608 160.97 191.608C162.133 191.608 163.178 191.859 164.106 192.36C165.034 192.861 165.765 193.555 166.298 194.44C166.832 195.315 167.098 196.301 167.098 197.4C167.098 198.499 166.832 199.491 166.298 200.376C165.765 201.251 165.034 201.939 164.106 202.44C163.178 202.941 162.133 203.192 160.97 203.192ZM160.97 200.984C161.632 200.984 162.229 200.835 162.762 200.536C163.296 200.227 163.712 199.8 164.01 199.256C164.32 198.712 164.474 198.093 164.474 197.4C164.474 196.707 164.32 196.088 164.01 195.544C163.712 195 163.296 194.579 162.762 194.28C162.229 193.971 161.632 193.816 160.97 193.816C160.309 193.816 159.712 193.971 159.178 194.28C158.645 194.579 158.224 195 157.914 195.544C157.616 196.088 157.466 196.707 157.466 197.4C157.466 198.093 157.616 198.712 157.914 199.256C158.224 199.8 158.645 200.227 159.178 200.536C159.712 200.835 160.309 200.984 160.97 200.984ZM178.767 191.8V203H176.207V193.912H172.367L172.287 196.248C172.233 197.837 172.105 199.128 171.903 200.12C171.7 201.101 171.359 201.859 170.879 202.392C170.409 202.915 169.748 203.176 168.895 203.176C168.543 203.176 168.116 203.117 167.615 203L167.775 200.808C167.913 200.851 168.068 200.872 168.239 200.872C168.857 200.872 169.289 200.509 169.535 199.784C169.78 199.048 169.935 197.901 169.999 196.344L170.159 191.8H178.767ZM181.564 191.8H190.604V193.864H184.14V196.168H187.244C188.599 196.168 189.628 196.451 190.332 197.016C191.047 197.581 191.404 198.397 191.404 199.464C191.404 200.584 191.009 201.453 190.22 202.072C189.431 202.691 188.316 203 186.876 203H181.564V191.8ZM186.732 201.08C187.393 201.08 187.9 200.952 188.252 200.696C188.604 200.429 188.78 200.045 188.78 199.544C188.78 198.563 188.097 198.072 186.732 198.072H184.14V201.08H186.732ZM198.8 195.48C200.166 195.48 201.211 195.784 201.936 196.392C202.672 197 203.04 197.901 203.04 199.096C203.04 200.365 202.635 201.336 201.824 202.008C201.024 202.669 199.894 203 198.432 203H193.376V191.8H195.952V195.48H198.8ZM198.288 201.08C198.96 201.08 199.483 200.915 199.856 200.584C200.24 200.253 200.432 199.773 200.432 199.144C200.432 197.981 199.718 197.4 198.288 197.4H195.952V201.08H198.288ZM204.464 191.8H207.04V203H204.464V191.8Z" fill="#030E2B"></path><path d="M42.688 248.192C41.824 248.192 41.0187 248.053 40.272 247.776C39.536 247.488 38.896 247.083 38.352 246.56C37.808 246.037 37.3813 245.424 37.072 244.72C36.7733 244.016 36.624 243.243 36.624 242.4C36.624 241.557 36.7733 240.784 37.072 240.08C37.3813 239.376 37.808 238.763 38.352 238.24C38.9067 237.717 39.552 237.317 40.288 237.04C41.024 236.752 41.8293 236.608 42.704 236.608C43.6747 236.608 44.5493 236.779 45.328 237.12C46.1173 237.451 46.7787 237.941 47.312 238.592L45.648 240.128C45.264 239.691 44.8373 239.365 44.368 239.152C43.8987 238.928 43.3867 238.816 42.832 238.816C42.3093 238.816 41.8293 238.901 41.392 239.072C40.9547 239.243 40.576 239.488 40.256 239.808C39.936 240.128 39.6853 240.507 39.504 240.944C39.3333 241.381 39.248 241.867 39.248 242.4C39.248 242.933 39.3333 243.419 39.504 243.856C39.6853 244.293 39.936 244.672 40.256 244.992C40.576 245.312 40.9547 245.557 41.392 245.728C41.8293 245.899 42.3093 245.984 42.832 245.984C43.3867 245.984 43.8987 245.877 44.368 245.664C44.8373 245.44 45.264 245.104 45.648 244.656L47.312 246.192C46.7787 246.843 46.1173 247.339 45.328 247.68C44.5493 248.021 43.6693 248.192 42.688 248.192ZM56.2494 248L52.7614 242.608L54.8574 241.344L59.1934 248H56.2494ZM48.9694 248V236.8H51.5454V248H48.9694ZM50.7934 243.488V241.328H54.6974V243.488H50.7934ZM55.0974 242.688L52.7134 242.4L56.3454 236.8H59.0814L55.0974 242.688ZM60.8009 248.176C60.6089 248.176 60.4062 248.16 60.1929 248.128C59.9902 248.096 59.7662 248.053 59.5209 248L59.6809 245.808C59.8302 245.851 59.9849 245.872 60.1449 245.872C60.5822 245.872 60.9235 245.696 61.1689 245.344C61.4142 244.981 61.5902 244.464 61.6969 243.792C61.8035 243.12 61.8729 242.304 61.9049 241.344L62.0649 236.8H70.6729V248H68.1129V238.32L68.7049 238.912H63.7609L64.2889 238.288L64.1929 241.248C64.1609 242.347 64.0862 243.323 63.9689 244.176C63.8515 245.029 63.6702 245.755 63.4249 246.352C63.1795 246.949 62.8435 247.403 62.4169 247.712C61.9902 248.021 61.4515 248.176 60.8009 248.176ZM72.2061 248L77.1981 236.8H79.7581L84.7661 248H82.0461L77.9501 238.112H78.9741L74.8621 248H72.2061ZM74.7021 245.6L75.3901 243.632H81.1501L81.8541 245.6H74.7021ZM93.7379 246.848V238.912H89.8979L89.8499 240.544C89.8179 241.237 89.7699 241.893 89.7059 242.512C89.6525 243.131 89.5672 243.696 89.4499 244.208C89.3325 244.709 89.1779 245.136 88.9859 245.488C88.8045 245.84 88.5752 246.091 88.2979 246.24L85.5299 245.888C85.9139 245.899 86.2285 245.765 86.4739 245.488C86.7299 245.211 86.9325 244.821 87.0819 244.32C87.2312 243.808 87.3379 243.211 87.4019 242.528C87.4765 241.845 87.5299 241.104 87.5619 240.304L87.6899 236.8H96.2979V246.848H93.7379ZM85.1619 250.32L85.1779 245.888H97.8659V250.32H95.4659V248H87.5619V250.32H85.1619ZM111.566 246.848V238.912H107.726L107.678 240.544C107.646 241.237 107.598 241.893 107.534 242.512C107.481 243.131 107.395 243.696 107.278 244.208C107.161 244.709 107.006 245.136 106.814 245.488C106.633 245.84 106.403 246.091 106.126 246.24L103.358 245.888C103.742 245.899 104.057 245.765 104.302 245.488C104.558 245.211 104.761 244.821 104.91 244.32C105.059 243.808 105.166 243.211 105.23 242.528C105.305 241.845 105.358 241.104 105.39 240.304L105.518 236.8H114.126V246.848H111.566ZM102.99 250.32L103.006 245.888H115.694V250.32H113.294V248H105.39V250.32H102.99ZM122.799 248.192C121.914 248.192 121.092 248.048 120.335 247.76C119.588 247.472 118.938 247.067 118.383 246.544C117.839 246.021 117.412 245.408 117.103 244.704C116.804 244 116.655 243.232 116.655 242.4C116.655 241.568 116.804 240.8 117.103 240.096C117.412 239.392 117.844 238.779 118.399 238.256C118.954 237.733 119.604 237.328 120.351 237.04C121.098 236.752 121.908 236.608 122.783 236.608C123.668 236.608 124.479 236.752 125.215 237.04C125.962 237.328 126.607 237.733 127.151 238.256C127.706 238.779 128.138 239.392 128.447 240.096C128.756 240.789 128.911 241.557 128.911 242.4C128.911 243.232 128.756 244.005 128.447 244.72C128.138 245.424 127.706 246.037 127.151 246.56C126.607 247.072 125.962 247.472 125.215 247.76C124.479 248.048 123.674 248.192 122.799 248.192ZM122.783 245.984C123.284 245.984 123.743 245.899 124.159 245.728C124.586 245.557 124.959 245.312 125.279 244.992C125.599 244.672 125.844 244.293 126.015 243.856C126.196 243.419 126.287 242.933 126.287 242.4C126.287 241.867 126.196 241.381 126.015 240.944C125.844 240.507 125.599 240.128 125.279 239.808C124.97 239.488 124.602 239.243 124.175 239.072C123.748 238.901 123.284 238.816 122.783 238.816C122.282 238.816 121.818 238.901 121.391 239.072C120.975 239.243 120.607 239.488 120.287 239.808C119.967 240.128 119.716 240.507 119.535 240.944C119.364 241.381 119.279 241.867 119.279 242.4C119.279 242.923 119.364 243.408 119.535 243.856C119.716 244.293 119.962 244.672 120.271 244.992C120.591 245.312 120.964 245.557 121.391 245.728C121.818 245.899 122.282 245.984 122.783 245.984ZM130.908 248V236.8H133.052L137.82 244.704H136.684L141.372 236.8H143.516L143.532 248H141.1L141.084 240.528H141.548L137.788 246.816H136.636L132.796 240.528H133.34V248H130.908ZM151.674 248.192C150.789 248.192 149.967 248.048 149.21 247.76C148.463 247.472 147.813 247.067 147.258 246.544C146.714 246.021 146.287 245.408 145.978 244.704C145.679 244 145.53 243.232 145.53 242.4C145.53 241.568 145.679 240.8 145.978 240.096C146.287 239.392 146.719 238.779 147.274 238.256C147.829 237.733 148.479 237.328 149.226 237.04C149.973 236.752 150.783 236.608 151.658 236.608C152.543 236.608 153.354 236.752 154.09 237.04C154.837 237.328 155.482 237.733 156.026 238.256C156.581 238.779 157.013 239.392 157.322 240.096C157.631 240.789 157.786 241.557 157.786 242.4C157.786 243.232 157.631 244.005 157.322 244.72C157.013 245.424 156.581 246.037 156.026 246.56C155.482 247.072 154.837 247.472 154.09 247.76C153.354 248.048 152.549 248.192 151.674 248.192ZM151.658 245.984C152.159 245.984 152.618 245.899 153.034 245.728C153.461 245.557 153.834 245.312 154.154 244.992C154.474 244.672 154.719 244.293 154.89 243.856C155.071 243.419 155.162 242.933 155.162 242.4C155.162 241.867 155.071 241.381 154.89 240.944C154.719 240.507 154.474 240.128 154.154 239.808C153.845 239.488 153.477 239.243 153.05 239.072C152.623 238.901 152.159 238.816 151.658 238.816C151.157 238.816 150.693 238.901 150.266 239.072C149.85 239.243 149.482 239.488 149.162 239.808C148.842 240.128 148.591 240.507 148.41 240.944C148.239 241.381 148.154 241.867 148.154 242.4C148.154 242.923 148.239 243.408 148.41 243.856C148.591 244.293 148.837 244.672 149.146 244.992C149.466 245.312 149.839 245.557 150.266 245.728C150.693 245.899 151.157 245.984 151.658 245.984ZM166.894 246.848V238.912H163.054L163.006 240.544C162.974 241.237 162.926 241.893 162.862 242.512C162.809 243.131 162.723 243.696 162.606 244.208C162.489 244.709 162.334 245.136 162.142 245.488C161.961 245.84 161.731 246.091 161.454 246.24L158.686 245.888C159.07 245.899 159.385 245.765 159.63 245.488C159.886 245.211 160.089 244.821 160.238 244.32C160.387 243.808 160.494 243.211 160.558 242.528C160.633 241.845 160.686 241.104 160.718 240.304L160.846 236.8H169.454V246.848H166.894ZM158.318 250.32L158.334 245.888H171.022V250.32H168.622V248H160.718V250.32H158.318ZM175.151 241.312H180.543V243.328H175.151V241.312ZM175.343 245.92H181.439V248H172.767V236.8H181.231V238.88H175.343V245.92ZM190.957 246.848V238.912H187.117L187.069 240.544C187.037 241.237 186.989 241.893 186.925 242.512C186.871 243.131 186.786 243.696 186.669 244.208C186.551 244.709 186.397 245.136 186.205 245.488C186.023 245.84 185.794 246.091 185.517 246.24L182.749 245.888C183.133 245.899 183.447 245.765 183.693 245.488C183.949 245.211 184.151 244.821 184.301 244.32C184.45 243.808 184.557 243.211 184.621 242.528C184.695 241.845 184.749 241.104 184.781 240.304L184.909 236.8H193.517V246.848H190.957ZM182.381 250.32L182.397 245.888H195.085V250.32H192.685V248H184.781V250.32H182.381ZM202.19 248.192C201.304 248.192 200.483 248.048 199.726 247.76C198.979 247.472 198.328 247.067 197.774 246.544C197.23 246.021 196.803 245.408 196.493 244.704C196.195 244 196.046 243.232 196.046 242.4C196.046 241.568 196.195 240.8 196.493 240.096C196.803 239.392 197.235 238.779 197.789 238.256C198.344 237.733 198.995 237.328 199.742 237.04C200.488 236.752 201.299 236.608 202.174 236.608C203.059 236.608 203.87 236.752 204.606 237.04C205.352 237.328 205.998 237.733 206.542 238.256C207.096 238.779 207.528 239.392 207.838 240.096C208.147 240.789 208.302 241.557 208.302 242.4C208.302 243.232 208.147 244.005 207.838 244.72C207.528 245.424 207.096 246.037 206.542 246.56C205.998 247.072 205.352 247.472 204.606 247.76C203.87 248.048 203.064 248.192 202.19 248.192ZM202.174 245.984C202.675 245.984 203.134 245.899 203.55 245.728C203.976 245.557 204.35 245.312 204.67 244.992C204.99 244.672 205.235 244.293 205.406 243.856C205.587 243.419 205.678 242.933 205.678 242.4C205.678 241.867 205.587 241.381 205.406 240.944C205.235 240.507 204.99 240.128 204.67 239.808C204.36 239.488 203.992 239.243 203.566 239.072C203.139 238.901 202.675 238.816 202.174 238.816C201.672 238.816 201.208 238.901 200.782 239.072C200.366 239.243 199.998 239.488 199.678 239.808C199.358 240.128 199.107 240.507 198.926 240.944C198.755 241.381 198.67 241.867 198.67 242.4C198.67 242.923 198.755 243.408 198.926 243.856C199.107 244.293 199.352 244.672 199.661 244.992C199.981 245.312 200.355 245.557 200.782 245.728C201.208 245.899 201.672 245.984 202.174 245.984ZM210.298 248V236.8H215.514C216.816 236.8 217.829 237.051 218.554 237.552C219.28 238.053 219.642 238.768 219.642 239.696C219.642 240.613 219.301 241.328 218.618 241.84C217.936 242.341 217.029 242.592 215.898 242.592L216.202 241.92C217.461 241.92 218.437 242.171 219.13 242.672C219.824 243.173 220.17 243.899 220.17 244.848C220.17 245.829 219.797 246.603 219.05 247.168C218.314 247.723 217.237 248 215.818 248H210.298ZM212.874 246.08H215.722C216.32 246.08 216.773 245.963 217.082 245.728C217.392 245.493 217.546 245.131 217.546 244.64C217.546 244.171 217.392 243.824 217.082 243.6C216.773 243.365 216.32 243.248 215.722 243.248H212.874V246.08ZM212.874 241.44H215.29C215.856 241.44 216.282 241.328 216.57 241.104C216.858 240.869 217.002 240.528 217.002 240.08C217.002 239.632 216.858 239.296 216.57 239.072C216.282 238.837 215.856 238.72 215.29 238.72H212.874V241.44ZM227.58 248.192C226.695 248.192 225.873 248.048 225.116 247.76C224.369 247.472 223.719 247.067 223.164 246.544C222.62 246.021 222.193 245.408 221.884 244.704C221.585 244 221.436 243.232 221.436 242.4C221.436 241.568 221.585 240.8 221.884 240.096C222.193 239.392 222.625 238.779 223.18 238.256C223.735 237.733 224.385 237.328 225.132 237.04C225.879 236.752 226.689 236.608 227.564 236.608C228.449 236.608 229.26 236.752 229.996 237.04C230.743 237.328 231.388 237.733 231.932 238.256C232.487 238.779 232.919 239.392 233.228 240.096C233.537 240.789 233.692 241.557 233.692 242.4C233.692 243.232 233.537 244.005 233.228 244.72C232.919 245.424 232.487 246.037 231.932 246.56C231.388 247.072 230.743 247.472 229.996 247.76C229.26 248.048 228.455 248.192 227.58 248.192ZM227.564 245.984C228.065 245.984 228.524 245.899 228.94 245.728C229.367 245.557 229.74 245.312 230.06 244.992C230.38 244.672 230.625 244.293 230.796 243.856C230.977 243.419 231.068 242.933 231.068 242.4C231.068 241.867 230.977 241.381 230.796 240.944C230.625 240.507 230.38 240.128 230.06 239.808C229.751 239.488 229.383 239.243 228.956 239.072C228.529 238.901 228.065 238.816 227.564 238.816C227.063 238.816 226.599 238.901 226.172 239.072C225.756 239.243 225.388 239.488 225.068 239.808C224.748 240.128 224.497 240.507 224.316 240.944C224.145 241.381 224.06 241.867 224.06 242.4C224.06 242.923 224.145 243.408 224.316 243.856C224.497 244.293 224.743 244.672 225.052 244.992C225.372 245.312 225.745 245.557 226.172 245.728C226.599 245.899 227.063 245.984 227.564 245.984Z" fill="#030E2B"></path><path d="M946.6 196.2C947.336 196.2 947.992 196.339 948.568 196.616C949.155 196.893 949.613 197.293 949.944 197.816C950.275 198.328 950.44 198.92 950.44 199.592C950.44 200.296 950.264 200.915 949.912 201.448C949.571 201.981 949.096 202.397 948.488 202.696C947.891 202.984 947.219 203.128 946.472 203.128C944.968 203.128 943.805 202.643 942.984 201.672C942.173 200.701 941.768 199.325 941.768 197.544C941.768 196.296 941.987 195.235 942.424 194.36C942.872 193.475 943.491 192.808 944.28 192.36C945.08 191.901 946.008 191.672 947.064 191.672C947.608 191.672 948.12 191.731 948.6 191.848C949.08 191.955 949.496 192.115 949.848 192.328L949.24 193.576C948.707 193.224 947.992 193.048 947.096 193.048C945.933 193.048 945.021 193.411 944.36 194.136C943.699 194.851 943.368 195.896 943.368 197.272C943.368 197.443 943.373 197.576 943.384 197.672C943.704 197.192 944.141 196.829 944.696 196.584C945.261 196.328 945.896 196.2 946.6 196.2ZM946.408 201.832C947.144 201.832 947.741 201.635 948.2 201.24C948.659 200.845 948.888 200.317 948.888 199.656C948.888 198.995 948.653 198.472 948.184 198.088C947.725 197.693 947.107 197.496 946.328 197.496C945.827 197.496 945.379 197.592 944.984 197.784C944.6 197.976 944.296 198.237 944.072 198.568C943.859 198.899 943.752 199.267 943.752 199.672C943.752 200.067 943.853 200.429 944.056 200.76C944.269 201.08 944.573 201.341 944.968 201.544C945.373 201.736 945.853 201.832 946.408 201.832ZM960.516 203.128C959.631 203.128 958.841 202.904 958.148 202.456C957.465 201.997 956.927 201.336 956.532 200.472C956.137 199.608 955.94 198.584 955.94 197.4C955.94 196.216 956.137 195.192 956.532 194.328C956.927 193.464 957.465 192.808 958.148 192.36C958.841 191.901 959.631 191.672 960.516 191.672C961.391 191.672 962.169 191.901 962.852 192.36C963.545 192.808 964.089 193.464 964.484 194.328C964.879 195.192 965.076 196.216 965.076 197.4C965.076 198.584 964.879 199.608 964.484 200.472C964.089 201.336 963.545 201.997 962.852 202.456C962.169 202.904 961.391 203.128 960.516 203.128ZM960.516 201.704C961.412 201.704 962.127 201.336 962.66 200.6C963.204 199.864 963.476 198.797 963.476 197.4C963.476 196.003 963.204 194.936 962.66 194.2C962.127 193.464 961.412 193.096 960.516 193.096C959.609 193.096 958.884 193.464 958.34 194.2C957.807 194.936 957.54 196.003 957.54 197.4C957.54 198.797 957.807 199.864 958.34 200.6C958.884 201.336 959.609 201.704 960.516 201.704ZM971.188 203.128C970.302 203.128 969.513 202.904 968.82 202.456C968.137 201.997 967.598 201.336 967.204 200.472C966.809 199.608 966.612 198.584 966.612 197.4C966.612 196.216 966.809 195.192 967.204 194.328C967.598 193.464 968.137 192.808 968.82 192.36C969.513 191.901 970.302 191.672 971.188 191.672C972.062 191.672 972.841 191.901 973.524 192.36C974.217 192.808 974.761 193.464 975.156 194.328C975.55 195.192 975.748 196.216 975.748 197.4C975.748 198.584 975.55 199.608 975.156 200.472C974.761 201.336 974.217 201.997 973.524 202.456C972.841 202.904 972.062 203.128 971.188 203.128ZM971.188 201.704C972.084 201.704 972.798 201.336 973.332 200.6C973.876 199.864 974.148 198.797 974.148 197.4C974.148 196.003 973.876 194.936 973.332 194.2C972.798 193.464 972.084 193.096 971.188 193.096C970.281 193.096 969.556 193.464 969.012 194.2C968.478 194.936 968.212 196.003 968.212 197.4C968.212 198.797 968.478 199.864 969.012 200.6C969.556 201.336 970.281 201.704 971.188 201.704ZM981.86 203.128C980.974 203.128 980.185 202.904 979.492 202.456C978.809 201.997 978.27 201.336 977.876 200.472C977.481 199.608 977.284 198.584 977.284 197.4C977.284 196.216 977.481 195.192 977.876 194.328C978.27 193.464 978.809 192.808 979.492 192.36C980.185 191.901 980.974 191.672 981.86 191.672C982.734 191.672 983.513 191.901 984.196 192.36C984.889 192.808 985.433 193.464 985.828 194.328C986.222 195.192 986.42 196.216 986.42 197.4C986.42 198.584 986.222 199.608 985.828 200.472C985.433 201.336 984.889 201.997 984.196 202.456C983.513 202.904 982.734 203.128 981.86 203.128ZM981.86 201.704C982.756 201.704 983.47 201.336 984.004 200.6C984.548 199.864 984.82 198.797 984.82 197.4C984.82 196.003 984.548 194.936 984.004 194.2C983.47 193.464 982.756 193.096 981.86 193.096C980.953 193.096 980.228 193.464 979.684 194.2C979.15 194.936 978.884 196.003 978.884 197.4C978.884 198.797 979.15 199.864 979.684 200.6C980.228 201.336 980.953 201.704 981.86 201.704Z" fill="#030E2B"></path><path d="M946.6 241.2C947.336 241.2 947.992 241.339 948.568 241.616C949.155 241.893 949.613 242.293 949.944 242.816C950.275 243.328 950.44 243.92 950.44 244.592C950.44 245.296 950.264 245.915 949.912 246.448C949.571 246.981 949.096 247.397 948.488 247.696C947.891 247.984 947.219 248.128 946.472 248.128C944.968 248.128 943.805 247.643 942.984 246.672C942.173 245.701 941.768 244.325 941.768 242.544C941.768 241.296 941.987 240.235 942.424 239.36C942.872 238.475 943.491 237.808 944.28 237.36C945.08 236.901 946.008 236.672 947.064 236.672C947.608 236.672 948.12 236.731 948.6 236.848C949.08 236.955 949.496 237.115 949.848 237.328L949.24 238.576C948.707 238.224 947.992 238.048 947.096 238.048C945.933 238.048 945.021 238.411 944.36 239.136C943.699 239.851 943.368 240.896 943.368 242.272C943.368 242.443 943.373 242.576 943.384 242.672C943.704 242.192 944.141 241.829 944.696 241.584C945.261 241.328 945.896 241.2 946.6 241.2ZM946.408 246.832C947.144 246.832 947.741 246.635 948.2 246.24C948.659 245.845 948.888 245.317 948.888 244.656C948.888 243.995 948.653 243.472 948.184 243.088C947.725 242.693 947.107 242.496 946.328 242.496C945.827 242.496 945.379 242.592 944.984 242.784C944.6 242.976 944.296 243.237 944.072 243.568C943.859 243.899 943.752 244.267 943.752 244.672C943.752 245.067 943.853 245.429 944.056 245.76C944.269 246.08 944.573 246.341 944.968 246.544C945.373 246.736 945.853 246.832 946.408 246.832ZM960.516 248.128C959.631 248.128 958.841 247.904 958.148 247.456C957.465 246.997 956.927 246.336 956.532 245.472C956.137 244.608 955.94 243.584 955.94 242.4C955.94 241.216 956.137 240.192 956.532 239.328C956.927 238.464 957.465 237.808 958.148 237.36C958.841 236.901 959.631 236.672 960.516 236.672C961.391 236.672 962.169 236.901 962.852 237.36C963.545 237.808 964.089 238.464 964.484 239.328C964.879 240.192 965.076 241.216 965.076 242.4C965.076 243.584 964.879 244.608 964.484 245.472C964.089 246.336 963.545 246.997 962.852 247.456C962.169 247.904 961.391 248.128 960.516 248.128ZM960.516 246.704C961.412 246.704 962.127 246.336 962.66 245.6C963.204 244.864 963.476 243.797 963.476 242.4C963.476 241.003 963.204 239.936 962.66 239.2C962.127 238.464 961.412 238.096 960.516 238.096C959.609 238.096 958.884 238.464 958.34 239.2C957.807 239.936 957.54 241.003 957.54 242.4C957.54 243.797 957.807 244.864 958.34 245.6C958.884 246.336 959.609 246.704 960.516 246.704ZM971.188 248.128C970.302 248.128 969.513 247.904 968.82 247.456C968.137 246.997 967.598 246.336 967.204 245.472C966.809 244.608 966.612 243.584 966.612 242.4C966.612 241.216 966.809 240.192 967.204 239.328C967.598 238.464 968.137 237.808 968.82 237.36C969.513 236.901 970.302 236.672 971.188 236.672C972.062 236.672 972.841 236.901 973.524 237.36C974.217 237.808 974.761 238.464 975.156 239.328C975.55 240.192 975.748 241.216 975.748 242.4C975.748 243.584 975.55 244.608 975.156 245.472C974.761 246.336 974.217 246.997 973.524 247.456C972.841 247.904 972.062 248.128 971.188 248.128ZM971.188 246.704C972.084 246.704 972.798 246.336 973.332 245.6C973.876 244.864 974.148 243.797 974.148 242.4C974.148 241.003 973.876 239.936 973.332 239.2C972.798 238.464 972.084 238.096 971.188 238.096C970.281 238.096 969.556 238.464 969.012 239.2C968.478 239.936 968.212 241.003 968.212 242.4C968.212 243.797 968.478 244.864 969.012 245.6C969.556 246.336 970.281 246.704 971.188 246.704ZM981.86 248.128C980.974 248.128 980.185 247.904 979.492 247.456C978.809 246.997 978.27 246.336 977.876 245.472C977.481 244.608 977.284 243.584 977.284 242.4C977.284 241.216 977.481 240.192 977.876 239.328C978.27 238.464 978.809 237.808 979.492 237.36C980.185 236.901 980.974 236.672 981.86 236.672C982.734 236.672 983.513 236.901 984.196 237.36C984.889 237.808 985.433 238.464 985.828 239.328C986.222 240.192 986.42 241.216 986.42 242.4C986.42 243.584 986.222 244.608 985.828 245.472C985.433 246.336 984.889 246.997 984.196 247.456C983.513 247.904 982.734 248.128 981.86 248.128ZM981.86 246.704C982.756 246.704 983.47 246.336 984.004 245.6C984.548 244.864 984.82 243.797 984.82 242.4C984.82 241.003 984.548 239.936 984.004 239.2C983.47 238.464 982.756 238.096 981.86 238.096C980.953 238.096 980.228 238.464 979.684 239.2C979.15 239.936 978.884 241.003 978.884 242.4C978.884 243.797 979.15 244.864 979.684 245.6C980.228 246.336 980.953 246.704 981.86 246.704Z" fill="#030E2B"></path><path d="M553.968 196.264C555.568 196.264 556.741 196.568 557.488 197.176C558.245 197.773 558.624 198.595 558.624 199.64C558.624 200.301 558.464 200.899 558.144 201.432C557.835 201.955 557.36 202.371 556.72 202.68C556.091 202.979 555.312 203.128 554.384 203.128C553.595 203.128 552.832 203.011 552.096 202.776C551.36 202.531 550.752 202.195 550.272 201.768L551.008 200.504C551.392 200.867 551.883 201.16 552.48 201.384C553.077 201.597 553.707 201.704 554.368 201.704C555.211 201.704 555.861 201.528 556.32 201.176C556.789 200.813 557.024 200.323 557.024 199.704C557.024 199.032 556.768 198.525 556.256 198.184C555.744 197.832 554.869 197.656 553.632 197.656H551.088L551.68 191.8H558V193.192H553.024L552.72 196.264H553.968ZM568.828 203.128C567.943 203.128 567.154 202.904 566.46 202.456C565.778 201.997 565.239 201.336 564.844 200.472C564.45 199.608 564.252 198.584 564.252 197.4C564.252 196.216 564.45 195.192 564.844 194.328C565.239 193.464 565.778 192.808 566.46 192.36C567.154 191.901 567.943 191.672 568.828 191.672C569.703 191.672 570.482 191.901 571.164 192.36C571.858 192.808 572.402 193.464 572.796 194.328C573.191 195.192 573.388 196.216 573.388 197.4C573.388 198.584 573.191 199.608 572.796 200.472C572.402 201.336 571.858 201.997 571.164 202.456C570.482 202.904 569.703 203.128 568.828 203.128ZM568.828 201.704C569.724 201.704 570.439 201.336 570.972 200.6C571.516 199.864 571.788 198.797 571.788 197.4C571.788 196.003 571.516 194.936 570.972 194.2C570.439 193.464 569.724 193.096 568.828 193.096C567.922 193.096 567.196 193.464 566.652 194.2C566.119 194.936 565.852 196.003 565.852 197.4C565.852 198.797 566.119 199.864 566.652 200.6C567.196 201.336 567.922 201.704 568.828 201.704ZM579.5 203.128C578.615 203.128 577.826 202.904 577.132 202.456C576.45 201.997 575.911 201.336 575.516 200.472C575.122 199.608 574.924 198.584 574.924 197.4C574.924 196.216 575.122 195.192 575.516 194.328C575.911 193.464 576.45 192.808 577.132 192.36C577.826 191.901 578.615 191.672 579.5 191.672C580.375 191.672 581.154 191.901 581.836 192.36C582.53 192.808 583.074 193.464 583.468 194.328C583.863 195.192 584.06 196.216 584.06 197.4C584.06 198.584 583.863 199.608 583.468 200.472C583.074 201.336 582.53 201.997 581.836 202.456C581.154 202.904 580.375 203.128 579.5 203.128ZM579.5 201.704C580.396 201.704 581.111 201.336 581.644 200.6C582.188 199.864 582.46 198.797 582.46 197.4C582.46 196.003 582.188 194.936 581.644 194.2C581.111 193.464 580.396 193.096 579.5 193.096C578.594 193.096 577.868 193.464 577.324 194.2C576.791 194.936 576.524 196.003 576.524 197.4C576.524 198.797 576.791 199.864 577.324 200.6C577.868 201.336 578.594 201.704 579.5 201.704ZM590.172 203.128C589.287 203.128 588.497 202.904 587.804 202.456C587.121 201.997 586.583 201.336 586.188 200.472C585.793 199.608 585.596 198.584 585.596 197.4C585.596 196.216 585.793 195.192 586.188 194.328C586.583 193.464 587.121 192.808 587.804 192.36C588.497 191.901 589.287 191.672 590.172 191.672C591.047 191.672 591.825 191.901 592.508 192.36C593.201 192.808 593.745 193.464 594.14 194.328C594.535 195.192 594.732 196.216 594.732 197.4C594.732 198.584 594.535 199.608 594.14 200.472C593.745 201.336 593.201 201.997 592.508 202.456C591.825 202.904 591.047 203.128 590.172 203.128ZM590.172 201.704C591.068 201.704 591.783 201.336 592.316 200.6C592.86 199.864 593.132 198.797 593.132 197.4C593.132 196.003 592.86 194.936 592.316 194.2C591.783 193.464 591.068 193.096 590.172 193.096C589.265 193.096 588.54 193.464 587.996 194.2C587.463 194.936 587.196 196.003 587.196 197.4C587.196 198.797 587.463 199.864 587.996 200.6C588.54 201.336 589.265 201.704 590.172 201.704Z" fill="#030E2B"></path><path d="M553.968 241.264C555.568 241.264 556.741 241.568 557.488 242.176C558.245 242.773 558.624 243.595 558.624 244.64C558.624 245.301 558.464 245.899 558.144 246.432C557.835 246.955 557.36 247.371 556.72 247.68C556.091 247.979 555.312 248.128 554.384 248.128C553.595 248.128 552.832 248.011 552.096 247.776C551.36 247.531 550.752 247.195 550.272 246.768L551.008 245.504C551.392 245.867 551.883 246.16 552.48 246.384C553.077 246.597 553.707 246.704 554.368 246.704C555.211 246.704 555.861 246.528 556.32 246.176C556.789 245.813 557.024 245.323 557.024 244.704C557.024 244.032 556.768 243.525 556.256 243.184C555.744 242.832 554.869 242.656 553.632 242.656H551.088L551.68 236.8H558V238.192H553.024L552.72 241.264H553.968ZM568.828 248.128C567.943 248.128 567.154 247.904 566.46 247.456C565.778 246.997 565.239 246.336 564.844 245.472C564.45 244.608 564.252 243.584 564.252 242.4C564.252 241.216 564.45 240.192 564.844 239.328C565.239 238.464 565.778 237.808 566.46 237.36C567.154 236.901 567.943 236.672 568.828 236.672C569.703 236.672 570.482 236.901 571.164 237.36C571.858 237.808 572.402 238.464 572.796 239.328C573.191 240.192 573.388 241.216 573.388 242.4C573.388 243.584 573.191 244.608 572.796 245.472C572.402 246.336 571.858 246.997 571.164 247.456C570.482 247.904 569.703 248.128 568.828 248.128ZM568.828 246.704C569.724 246.704 570.439 246.336 570.972 245.6C571.516 244.864 571.788 243.797 571.788 242.4C571.788 241.003 571.516 239.936 570.972 239.2C570.439 238.464 569.724 238.096 568.828 238.096C567.922 238.096 567.196 238.464 566.652 239.2C566.119 239.936 565.852 241.003 565.852 242.4C565.852 243.797 566.119 244.864 566.652 245.6C567.196 246.336 567.922 246.704 568.828 246.704ZM579.5 248.128C578.615 248.128 577.826 247.904 577.132 247.456C576.45 246.997 575.911 246.336 575.516 245.472C575.122 244.608 574.924 243.584 574.924 242.4C574.924 241.216 575.122 240.192 575.516 239.328C575.911 238.464 576.45 237.808 577.132 237.36C577.826 236.901 578.615 236.672 579.5 236.672C580.375 236.672 581.154 236.901 581.836 237.36C582.53 237.808 583.074 238.464 583.468 239.328C583.863 240.192 584.06 241.216 584.06 242.4C584.06 243.584 583.863 244.608 583.468 245.472C583.074 246.336 582.53 246.997 581.836 247.456C581.154 247.904 580.375 248.128 579.5 248.128ZM579.5 246.704C580.396 246.704 581.111 246.336 581.644 245.6C582.188 244.864 582.46 243.797 582.46 242.4C582.46 241.003 582.188 239.936 581.644 239.2C581.111 238.464 580.396 238.096 579.5 238.096C578.594 238.096 577.868 238.464 577.324 239.2C576.791 239.936 576.524 241.003 576.524 242.4C576.524 243.797 576.791 244.864 577.324 245.6C577.868 246.336 578.594 246.704 579.5 246.704ZM590.172 248.128C589.287 248.128 588.497 247.904 587.804 247.456C587.121 246.997 586.583 246.336 586.188 245.472C585.793 244.608 585.596 243.584 585.596 242.4C585.596 241.216 585.793 240.192 586.188 239.328C586.583 238.464 587.121 237.808 587.804 237.36C588.497 236.901 589.287 236.672 590.172 236.672C591.047 236.672 591.825 236.901 592.508 237.36C593.201 237.808 593.745 238.464 594.14 239.328C594.535 240.192 594.732 241.216 594.732 242.4C594.732 243.584 594.535 244.608 594.14 245.472C593.745 246.336 593.201 246.997 592.508 247.456C591.825 247.904 591.047 248.128 590.172 248.128ZM590.172 246.704C591.068 246.704 591.783 246.336 592.316 245.6C592.86 244.864 593.132 243.797 593.132 242.4C593.132 241.003 592.86 239.936 592.316 239.2C591.783 238.464 591.068 238.096 590.172 238.096C589.265 238.096 588.54 238.464 587.996 239.2C587.463 239.936 587.196 241.003 587.196 242.4C587.196 243.797 587.463 244.864 587.996 245.6C588.54 246.336 589.265 246.704 590.172 246.704Z" fill="#030E2B"></path><line x1="385.5" y1="265" x2="385.5" y2="1" stroke="#DEDEDE"></line><line x1="-1.52812e-08" y1="129.5" x2="1160" y2="129.5" stroke="#DEDEDE"></line><line x1="-1.52812e-08" y1="174.5" x2="1160" y2="174.5" stroke="#DEDEDE"></line><line x1="-1.52812e-08" y1="219.5" x2="1160" y2="219.5" stroke="#DEDEDE"></line><line x1="771.5" y1="265" x2="771.5" y2="1" stroke="#DEDEDE"></line></svg>