<svg xmlns="http://www.w3.org/2000/svg" width="1160" height="311" viewBox="0 0 1160 311" fill="none"><path d="M386 54H1160V300C1160 305.523 1155.52 310 1150 310H386V54Z" fill="#F6F2FC"></path><path d="M1 54H387V300C387 305.523 382.523 310 377 310H1V54Z" fill="white"></path><rect y="1" width="1160" height="77" rx="9" fill="#A31A40"></rect><rect x="0.5" y="0.5" width="1159" height="310" rx="9.5" stroke="#DEDEDE"></rect><path d="M162.736 46.192C161.573 46.192 160.523 45.9413 159.584 45.44C158.656 44.9387 157.925 44.2507 157.392 43.376C156.869 42.4907 156.608 41.4987 156.608 40.4C156.608 39.3013 156.869 38.3147 157.392 37.44C157.925 36.5547 158.656 35.8613 159.584 35.36C160.523 34.8587 161.573 34.608 162.736 34.608C163.899 34.608 164.944 34.8587 165.872 35.36C166.8 35.8613 167.531 36.5547 168.064 37.44C168.597 38.3147 168.864 39.3013 168.864 40.4C168.864 41.4987 168.597 42.4907 168.064 43.376C167.531 44.2507 166.8 44.9387 165.872 45.44C164.944 45.9413 163.899 46.192 162.736 46.192ZM162.736 43.984C163.397 43.984 163.995 43.8347 164.528 43.536C165.061 43.2267 165.477 42.8 165.776 42.256C166.085 41.712 166.24 41.0933 166.24 40.4C166.24 39.7067 166.085 39.088 165.776 38.544C165.477 38 165.061 37.5787 164.528 37.28C163.995 36.9707 163.397 36.816 162.736 36.816C162.075 36.816 161.477 36.9707 160.944 37.28C160.411 37.5787 159.989 38 159.68 38.544C159.381 39.088 159.232 39.7067 159.232 40.4C159.232 41.0933 159.381 41.712 159.68 42.256C159.989 42.8 160.411 43.2267 160.944 43.536C161.477 43.8347 162.075 43.984 162.736 43.984ZM170.861 34.8H179.901V36.864H173.437V39.168H176.541C177.895 39.168 178.925 39.4507 179.629 40.016C180.343 40.5813 180.701 41.3973 180.701 42.464C180.701 43.584 180.306 44.4533 179.517 45.072C178.727 45.6907 177.613 46 176.173 46H170.861V34.8ZM176.029 44.08C176.69 44.08 177.197 43.952 177.549 43.696C177.901 43.4293 178.077 43.0453 178.077 42.544C178.077 41.5627 177.394 41.072 176.029 41.072H173.437V44.08H176.029ZM189.535 38.48C190.9 38.48 191.945 38.784 192.671 39.392C193.396 40 193.759 40.9013 193.759 42.096C193.759 43.3653 193.353 44.336 192.543 45.008C191.743 45.6693 190.612 46 189.151 46H184.111V36.912H180.959V34.8H186.671V38.48H189.535ZM189.007 44.08C189.689 44.08 190.217 43.9147 190.591 43.584C190.964 43.2533 191.151 42.7733 191.151 42.144C191.151 40.9813 190.436 40.4 189.007 40.4H186.671V44.08H189.007ZM204.298 43.92V46H195.626V34.8H204.09V36.88H198.202V39.312H203.402V41.328H198.202V43.92H204.298ZM216.584 46L216.568 39.296L213.272 44.816H212.12L208.824 39.424V46H206.392V34.8H208.536L212.728 41.76L216.856 34.8H219L219.016 46H216.584Z" fill="white"></path><path d="M457.688 46.192C456.547 46.192 455.512 45.9467 454.584 45.456C453.667 44.9547 452.941 44.2667 452.408 43.392C451.885 42.5067 451.624 41.5093 451.624 40.4C451.624 39.2907 451.885 38.2987 452.408 37.424C452.941 36.5387 453.667 35.8507 454.584 35.36C455.512 34.8587 456.552 34.608 457.704 34.608C458.675 34.608 459.549 34.7787 460.328 35.12C461.117 35.4613 461.779 35.952 462.312 36.592L460.648 38.128C459.891 37.2533 458.952 36.816 457.832 36.816C457.139 36.816 456.52 36.9707 455.976 37.28C455.432 37.5787 455.005 38 454.696 38.544C454.397 39.088 454.248 39.7067 454.248 40.4C454.248 41.0933 454.397 41.712 454.696 42.256C455.005 42.8 455.432 43.2267 455.976 43.536C456.52 43.8347 457.139 43.984 457.832 43.984C458.952 43.984 459.891 43.5413 460.648 42.656L462.312 44.192C461.779 44.8427 461.117 45.3387 460.328 45.68C459.539 46.0213 458.659 46.192 457.688 46.192ZM472.452 36.912H468.868V46H466.308V36.912H462.74V34.8H472.452V36.912ZM479.267 46.192C478.105 46.192 477.054 45.9413 476.115 45.44C475.187 44.9387 474.457 44.2507 473.923 43.376C473.401 42.4907 473.139 41.4987 473.139 40.4C473.139 39.3013 473.401 38.3147 473.923 37.44C474.457 36.5547 475.187 35.8613 476.115 35.36C477.054 34.8587 478.105 34.608 479.267 34.608C480.43 34.608 481.475 34.8587 482.403 35.36C483.331 35.8613 484.062 36.5547 484.595 37.44C485.129 38.3147 485.395 39.3013 485.395 40.4C485.395 41.4987 485.129 42.4907 484.595 43.376C484.062 44.2507 483.331 44.9387 482.403 45.44C481.475 45.9413 480.43 46.192 479.267 46.192ZM479.267 43.984C479.929 43.984 480.526 43.8347 481.059 43.536C481.593 43.2267 482.009 42.8 482.307 42.256C482.617 41.712 482.771 41.0933 482.771 40.4C482.771 39.7067 482.617 39.088 482.307 38.544C482.009 38 481.593 37.5787 481.059 37.28C480.526 36.9707 479.929 36.816 479.267 36.816C478.606 36.816 478.009 36.9707 477.475 37.28C476.942 37.5787 476.521 38 476.211 38.544C475.913 39.088 475.763 39.7067 475.763 40.4C475.763 41.0933 475.913 41.712 476.211 42.256C476.521 42.8 476.942 43.2267 477.475 43.536C478.009 43.8347 478.606 43.984 479.267 43.984ZM487.392 34.8H489.968V42.096L495.312 34.8H497.744V46H495.184V38.72L489.84 46H487.392V34.8ZM510.725 46L510.709 39.296L507.413 44.816H506.261L502.965 39.424V46H500.533V34.8H502.677L506.869 41.76L510.997 34.8H513.141L513.157 46H510.725ZM521.283 46.192C520.12 46.192 519.07 45.9413 518.131 45.44C517.203 44.9387 516.472 44.2507 515.939 43.376C515.416 42.4907 515.155 41.4987 515.155 40.4C515.155 39.3013 515.416 38.3147 515.939 37.44C516.472 36.5547 517.203 35.8613 518.131 35.36C519.07 34.8587 520.12 34.608 521.283 34.608C522.446 34.608 523.491 34.8587 524.419 35.36C525.347 35.8613 526.078 36.5547 526.611 37.44C527.144 38.3147 527.411 39.3013 527.411 40.4C527.411 41.4987 527.144 42.4907 526.611 43.376C526.078 44.2507 525.347 44.9387 524.419 45.44C523.491 45.9413 522.446 46.192 521.283 46.192ZM521.283 43.984C521.944 43.984 522.542 43.8347 523.075 43.536C523.608 43.2267 524.024 42.8 524.323 42.256C524.632 41.712 524.787 41.0933 524.787 40.4C524.787 39.7067 524.632 39.088 524.323 38.544C524.024 38 523.608 37.5787 523.075 37.28C522.542 36.9707 521.944 36.816 521.283 36.816C520.622 36.816 520.024 36.9707 519.491 37.28C518.958 37.5787 518.536 38 518.227 38.544C517.928 39.088 517.779 39.7067 517.779 40.4C517.779 41.0933 517.928 41.712 518.227 42.256C518.536 42.8 518.958 43.2267 519.491 43.536C520.024 43.8347 520.622 43.984 521.283 43.984ZM534.704 46.192C533.562 46.192 532.528 45.9467 531.6 45.456C530.682 44.9547 529.957 44.2667 529.424 43.392C528.901 42.5067 528.64 41.5093 528.64 40.4C528.64 39.2907 528.901 38.2987 529.424 37.424C529.957 36.5387 530.682 35.8507 531.6 35.36C532.528 34.8587 533.568 34.608 534.72 34.608C535.69 34.608 536.565 34.7787 537.344 35.12C538.133 35.4613 538.794 35.952 539.328 36.592L537.664 38.128C536.906 37.2533 535.968 36.816 534.848 36.816C534.154 36.816 533.536 36.9707 532.992 37.28C532.448 37.5787 532.021 38 531.712 38.544C531.413 39.088 531.264 39.7067 531.264 40.4C531.264 41.0933 531.413 41.712 531.712 42.256C532.021 42.8 532.448 43.2267 532.992 43.536C533.536 43.8347 534.154 43.984 534.848 43.984C535.968 43.984 536.906 43.5413 537.664 42.656L539.328 44.192C538.794 44.8427 538.133 45.3387 537.344 45.68C536.554 46.0213 535.674 46.192 534.704 46.192ZM549.468 36.912H545.884V46H543.324V36.912H539.756V34.8H549.468V36.912ZM556.519 38.48C557.884 38.48 558.93 38.784 559.655 39.392C560.391 40 560.759 40.9013 560.759 42.096C560.759 43.3653 560.354 44.336 559.543 45.008C558.743 45.6693 557.612 46 556.151 46H551.095V34.8H553.671V38.48H556.519ZM556.007 44.08C556.679 44.08 557.202 43.9147 557.575 43.584C557.959 43.2533 558.151 42.7733 558.151 42.144C558.151 40.9813 557.436 40.4 556.007 40.4H553.671V44.08H556.007ZM573.526 40.16C574.176 40.384 574.683 40.736 575.046 41.216C575.419 41.6853 575.606 42.2347 575.606 42.864C575.606 43.5467 575.382 44.1387 574.934 44.64C574.486 45.1413 573.878 45.5253 573.11 45.792C572.352 46.0587 571.52 46.192 570.614 46.192C569.846 46.192 569.078 46.096 568.31 45.904C567.552 45.712 566.832 45.4187 566.15 45.024L566.95 43.168C567.44 43.4667 567.979 43.696 568.566 43.856C569.163 44.0053 569.744 44.08 570.31 44.08C571.078 44.08 571.712 43.9413 572.214 43.664C572.726 43.3867 572.982 42.9973 572.982 42.496C572.982 42.08 572.806 41.7653 572.454 41.552C572.112 41.3387 571.643 41.232 571.046 41.232H568.31V39.28H570.854C571.376 39.28 571.782 39.1733 572.07 38.96C572.368 38.7467 572.518 38.4533 572.518 38.08C572.518 37.6427 572.304 37.3013 571.878 37.056C571.462 36.8107 570.923 36.688 570.262 36.688C569.771 36.688 569.264 36.7573 568.742 36.896C568.219 37.024 567.723 37.2213 567.254 37.488L566.47 35.472C567.654 34.864 568.934 34.56 570.31 34.56C571.184 34.56 571.99 34.688 572.726 34.944C573.462 35.2 574.048 35.5733 574.486 36.064C574.923 36.5547 575.142 37.1253 575.142 37.776C575.142 38.3093 574.998 38.784 574.71 39.2C574.422 39.616 574.027 39.936 573.526 40.16ZM585.242 43.6H580.042L579.05 46H576.394L581.386 34.8H583.946L588.954 46H586.234L585.242 43.6ZM584.426 41.632L582.65 37.344L580.874 41.632H584.426ZM605.178 34.8V46H602.602V36.912H597.546V46H594.97V34.8H605.178ZM615.539 43.6H610.339L609.347 46H606.691L611.683 34.8H614.243L619.251 46H616.531L615.539 43.6ZM614.723 41.632L612.947 37.344L611.171 41.632H614.723ZM630.814 34.8V46H628.253V36.912H624.414L624.334 39.248C624.28 40.8373 624.152 42.128 623.95 43.12C623.747 44.1013 623.406 44.8587 622.926 45.392C622.456 45.9147 621.795 46.176 620.942 46.176C620.59 46.176 620.163 46.1173 619.662 46L619.822 43.808C619.96 43.8507 620.115 43.872 620.286 43.872C620.904 43.872 621.336 43.5093 621.582 42.784C621.827 42.048 621.982 40.9013 622.046 39.344L622.206 34.8H630.814ZM643.517 34.8V46H640.957V36.912H637.117L637.037 39.248C636.983 40.8373 636.855 42.128 636.653 43.12C636.45 44.1013 636.109 44.8587 635.629 45.392C635.159 45.9147 634.498 46.176 633.645 46.176C633.293 46.176 632.866 46.1173 632.365 46L632.525 43.808C632.663 43.8507 632.818 43.872 632.989 43.872C633.607 43.872 634.039 43.5093 634.285 42.784C634.53 42.048 634.685 40.9013 634.749 39.344L634.909 34.8H643.517ZM654.986 43.92V46H646.314V34.8H654.778V36.88H648.89V39.312H654.09V41.328H648.89V43.92H654.986ZM665.64 36.912H662.056V46H659.496V36.912H655.928V34.8H665.64V36.912ZM667.456 43.024C667.904 43.024 668.272 43.168 668.56 43.456C668.848 43.7333 668.992 44.1013 668.992 44.56C668.992 44.7733 668.965 44.9867 668.912 45.2C668.858 45.4133 668.741 45.7333 668.56 46.16L667.648 48.464H666.064L666.768 45.92C666.501 45.8133 666.288 45.6427 666.128 45.408C665.978 45.1627 665.904 44.88 665.904 44.56C665.904 44.1013 666.048 43.7333 666.336 43.456C666.634 43.168 667.008 43.024 667.456 43.024ZM680.303 34.8C681.295 34.8 682.153 34.9653 682.878 35.296C683.615 35.6267 684.18 36.096 684.575 36.704C684.969 37.312 685.167 38.032 685.167 38.864C685.167 39.6853 684.969 40.4053 684.575 41.024C684.18 41.632 683.615 42.1013 682.878 42.432C682.153 42.752 681.295 42.912 680.303 42.912H678.047V46H675.455V34.8H680.303ZM680.159 40.8C680.937 40.8 681.529 40.6347 681.935 40.304C682.34 39.9627 682.543 39.4827 682.543 38.864C682.543 38.2347 682.34 37.7547 681.935 37.424C681.529 37.0827 680.937 36.912 680.159 36.912H678.047V40.8H680.159ZM696.738 34.8L691.97 43.664C691.512 44.5173 690.957 45.1627 690.306 45.6C689.666 46.0373 688.968 46.256 688.21 46.256C687.624 46.256 687.016 46.128 686.386 45.872L687.01 43.904C687.458 44.0427 687.832 44.112 688.13 44.112C688.45 44.112 688.738 44.0373 688.994 43.888C689.25 43.728 689.485 43.4827 689.698 43.152L689.794 43.024L685.378 34.8H688.146L691.122 40.816L694.194 34.8H696.738ZM697.97 34.8H707.01V36.864H700.546V39.168H703.65C705.005 39.168 706.034 39.4507 706.738 40.016C707.453 40.5813 707.81 41.3973 707.81 42.464C707.81 43.584 707.415 44.4533 706.626 45.072C705.837 45.6907 704.722 46 703.282 46H697.97V34.8ZM703.138 44.08C703.799 44.08 704.306 43.952 704.658 43.696C705.01 43.4293 705.186 43.0453 705.186 42.544C705.186 41.5627 704.503 41.072 703.138 41.072H700.546V44.08H703.138Z" fill="white"></path><path d="M870.688 46.192C869.547 46.192 868.512 45.9467 867.584 45.456C866.667 44.9547 865.941 44.2667 865.408 43.392C864.885 42.5067 864.624 41.5093 864.624 40.4C864.624 39.2907 864.885 38.2987 865.408 37.424C865.941 36.5387 866.667 35.8507 867.584 35.36C868.512 34.8587 869.552 34.608 870.704 34.608C871.675 34.608 872.549 34.7787 873.328 35.12C874.117 35.4613 874.779 35.952 875.312 36.592L873.648 38.128C872.891 37.2533 871.952 36.816 870.832 36.816C870.139 36.816 869.52 36.9707 868.976 37.28C868.432 37.5787 868.005 38 867.696 38.544C867.397 39.088 867.248 39.7067 867.248 40.4C867.248 41.0933 867.397 41.712 867.696 42.256C868.005 42.8 868.432 43.2267 868.976 43.536C869.52 43.8347 870.139 43.984 870.832 43.984C871.952 43.984 872.891 43.5413 873.648 42.656L875.312 44.192C874.779 44.8427 874.117 45.3387 873.328 45.68C872.539 46.0213 871.659 46.192 870.688 46.192ZM885.452 36.912H881.868V46H879.308V36.912H875.74V34.8H885.452V36.912ZM892.267 46.192C891.105 46.192 890.054 45.9413 889.115 45.44C888.187 44.9387 887.457 44.2507 886.923 43.376C886.401 42.4907 886.139 41.4987 886.139 40.4C886.139 39.3013 886.401 38.3147 886.923 37.44C887.457 36.5547 888.187 35.8613 889.115 35.36C890.054 34.8587 891.105 34.608 892.267 34.608C893.43 34.608 894.475 34.8587 895.403 35.36C896.331 35.8613 897.062 36.5547 897.595 37.44C898.129 38.3147 898.395 39.3013 898.395 40.4C898.395 41.4987 898.129 42.4907 897.595 43.376C897.062 44.2507 896.331 44.9387 895.403 45.44C894.475 45.9413 893.43 46.192 892.267 46.192ZM892.267 43.984C892.929 43.984 893.526 43.8347 894.059 43.536C894.593 43.2267 895.009 42.8 895.307 42.256C895.617 41.712 895.771 41.0933 895.771 40.4C895.771 39.7067 895.617 39.088 895.307 38.544C895.009 38 894.593 37.5787 894.059 37.28C893.526 36.9707 892.929 36.816 892.267 36.816C891.606 36.816 891.009 36.9707 890.475 37.28C889.942 37.5787 889.521 38 889.211 38.544C888.913 39.088 888.763 39.7067 888.763 40.4C888.763 41.0933 888.913 41.712 889.211 42.256C889.521 42.8 889.942 43.2267 890.475 43.536C891.009 43.8347 891.606 43.984 892.267 43.984ZM900.392 34.8H902.968V42.096L908.312 34.8H910.744V46H908.184V38.72L902.84 46H900.392V34.8ZM923.725 46L923.709 39.296L920.413 44.816H919.261L915.965 39.424V46H913.533V34.8H915.677L919.869 41.76L923.997 34.8H926.141L926.157 46H923.725ZM934.283 46.192C933.12 46.192 932.07 45.9413 931.131 45.44C930.203 44.9387 929.472 44.2507 928.939 43.376C928.416 42.4907 928.155 41.4987 928.155 40.4C928.155 39.3013 928.416 38.3147 928.939 37.44C929.472 36.5547 930.203 35.8613 931.131 35.36C932.07 34.8587 933.12 34.608 934.283 34.608C935.446 34.608 936.491 34.8587 937.419 35.36C938.347 35.8613 939.078 36.5547 939.611 37.44C940.144 38.3147 940.411 39.3013 940.411 40.4C940.411 41.4987 940.144 42.4907 939.611 43.376C939.078 44.2507 938.347 44.9387 937.419 45.44C936.491 45.9413 935.446 46.192 934.283 46.192ZM934.283 43.984C934.944 43.984 935.542 43.8347 936.075 43.536C936.608 43.2267 937.024 42.8 937.323 42.256C937.632 41.712 937.787 41.0933 937.787 40.4C937.787 39.7067 937.632 39.088 937.323 38.544C937.024 38 936.608 37.5787 936.075 37.28C935.542 36.9707 934.944 36.816 934.283 36.816C933.622 36.816 933.024 36.9707 932.491 37.28C931.958 37.5787 931.536 38 931.227 38.544C930.928 39.088 930.779 39.7067 930.779 40.4C930.779 41.0933 930.928 41.712 931.227 42.256C931.536 42.8 931.958 43.2267 932.491 43.536C933.024 43.8347 933.622 43.984 934.283 43.984ZM947.704 46.192C946.562 46.192 945.528 45.9467 944.6 45.456C943.682 44.9547 942.957 44.2667 942.424 43.392C941.901 42.5067 941.64 41.5093 941.64 40.4C941.64 39.2907 941.901 38.2987 942.424 37.424C942.957 36.5387 943.682 35.8507 944.6 35.36C945.528 34.8587 946.568 34.608 947.72 34.608C948.69 34.608 949.565 34.7787 950.344 35.12C951.133 35.4613 951.794 35.952 952.328 36.592L950.664 38.128C949.906 37.2533 948.968 36.816 947.848 36.816C947.154 36.816 946.536 36.9707 945.992 37.28C945.448 37.5787 945.021 38 944.712 38.544C944.413 39.088 944.264 39.7067 944.264 40.4C944.264 41.0933 944.413 41.712 944.712 42.256C945.021 42.8 945.448 43.2267 945.992 43.536C946.536 43.8347 947.154 43.984 947.848 43.984C948.968 43.984 949.906 43.5413 950.664 42.656L952.328 44.192C951.794 44.8427 951.133 45.3387 950.344 45.68C949.554 46.0213 948.674 46.192 947.704 46.192ZM962.468 36.912H958.884V46H956.324V36.912H952.756V34.8H962.468V36.912ZM969.519 38.48C970.884 38.48 971.93 38.784 972.655 39.392C973.391 40 973.759 40.9013 973.759 42.096C973.759 43.3653 973.354 44.336 972.543 45.008C971.743 45.6693 970.612 46 969.151 46H964.095V34.8H966.671V38.48H969.519ZM969.007 44.08C969.679 44.08 970.202 43.9147 970.575 43.584C970.959 43.2533 971.151 42.7733 971.151 42.144C971.151 40.9813 970.436 40.4 969.007 40.4H966.671V44.08H969.007ZM985.454 46.192C984.312 46.192 983.278 45.9467 982.35 45.456C981.432 44.9547 980.707 44.2667 980.174 43.392C979.651 42.5067 979.39 41.5093 979.39 40.4C979.39 39.2907 979.651 38.2987 980.174 37.424C980.707 36.5387 981.432 35.8507 982.35 35.36C983.278 34.8587 984.318 34.608 985.47 34.608C986.44 34.608 987.315 34.7787 988.094 35.12C988.883 35.4613 989.544 35.952 990.078 36.592L988.414 38.128C987.656 37.2533 986.718 36.816 985.598 36.816C984.904 36.816 984.286 36.9707 983.742 37.28C983.198 37.5787 982.771 38 982.462 38.544C982.163 39.088 982.014 39.7067 982.014 40.4C982.014 41.0933 982.163 41.712 982.462 42.256C982.771 42.8 983.198 43.2267 983.742 43.536C984.286 43.8347 984.904 43.984 985.598 43.984C986.718 43.984 987.656 43.5413 988.414 42.656L990.078 44.192C989.544 44.8427 988.883 45.3387 988.094 45.68C987.304 46.0213 986.424 46.192 985.454 46.192ZM1006.57 34.8V46H1003.98V41.408H998.89V46H996.298V34.8H998.89V39.216H1003.98V34.8H1006.57ZM1020.85 43.888V48.32H1018.45V46H1010.55V48.32H1008.15L1008.16 43.888H1008.61C1009.28 43.8667 1009.76 43.376 1010.03 42.416C1010.31 41.456 1010.48 40.0853 1010.55 38.304L1010.67 34.8H1019.28V43.888H1020.85ZM1012.83 38.544C1012.78 39.8773 1012.67 40.9973 1012.5 41.904C1012.33 42.8 1012.07 43.4613 1011.71 43.888H1016.72V36.912H1012.88L1012.83 38.544ZM1027.89 46.192C1026.75 46.192 1025.72 45.9467 1024.79 45.456C1023.87 44.9547 1023.14 44.2667 1022.61 43.392C1022.09 42.5067 1021.83 41.5093 1021.83 40.4C1021.83 39.2907 1022.09 38.2987 1022.61 37.424C1023.14 36.5387 1023.87 35.8507 1024.79 35.36C1025.72 34.8587 1026.76 34.608 1027.91 34.608C1028.88 34.608 1029.75 34.7787 1030.53 35.12C1031.32 35.4613 1031.98 35.952 1032.52 36.592L1030.85 38.128C1030.09 37.2533 1029.16 36.816 1028.04 36.816C1027.34 36.816 1026.72 36.9707 1026.18 37.28C1025.64 37.5787 1025.21 38 1024.9 38.544C1024.6 39.088 1024.45 39.7067 1024.45 40.4C1024.45 41.0933 1024.6 41.712 1024.9 42.256C1025.21 42.8 1025.64 43.2267 1026.18 43.536C1026.72 43.8347 1027.34 43.984 1028.04 43.984C1029.16 43.984 1030.09 43.5413 1030.85 42.656L1032.52 44.192C1031.98 44.8427 1031.32 45.3387 1030.53 45.68C1029.74 46.0213 1028.86 46.192 1027.89 46.192ZM1035.11 43.024C1035.56 43.024 1035.93 43.168 1036.22 43.456C1036.5 43.7333 1036.65 44.1013 1036.65 44.56C1036.65 44.7733 1036.62 44.9867 1036.57 45.2C1036.51 45.4133 1036.4 45.7333 1036.22 46.16L1035.3 48.464H1033.72L1034.42 45.92C1034.16 45.8133 1033.94 45.6427 1033.78 45.408C1033.63 45.1627 1033.56 44.88 1033.56 44.56C1033.56 44.1013 1033.7 43.7333 1033.99 43.456C1034.29 43.168 1034.66 43.024 1035.11 43.024ZM1047.96 34.8C1048.95 34.8 1049.81 34.9653 1050.53 35.296C1051.27 35.6267 1051.84 36.096 1052.23 36.704C1052.63 37.312 1052.82 38.032 1052.82 38.864C1052.82 39.6853 1052.63 40.4053 1052.23 41.024C1051.84 41.632 1051.27 42.1013 1050.53 42.432C1049.81 42.752 1048.95 42.912 1047.96 42.912H1045.7V46H1043.11V34.8H1047.96ZM1047.81 40.8C1048.59 40.8 1049.19 40.6347 1049.59 40.304C1050 39.9627 1050.2 39.4827 1050.2 38.864C1050.2 38.2347 1050 37.7547 1049.59 37.424C1049.19 37.0827 1048.59 36.912 1047.81 36.912H1045.7V40.8H1047.81ZM1064.39 34.8L1059.63 43.664C1059.17 44.5173 1058.61 45.1627 1057.96 45.6C1057.32 46.0373 1056.62 46.256 1055.87 46.256C1055.28 46.256 1054.67 46.128 1054.04 45.872L1054.67 43.904C1055.11 44.0427 1055.49 44.112 1055.79 44.112C1056.11 44.112 1056.39 44.0373 1056.65 43.888C1056.91 43.728 1057.14 43.4827 1057.35 43.152L1057.45 43.024L1053.03 34.8H1055.8L1058.78 40.816L1061.85 34.8H1064.39ZM1065.63 34.8H1074.67V36.864H1068.2V39.168H1071.31C1072.66 39.168 1073.69 39.4507 1074.39 40.016C1075.11 40.5813 1075.47 41.3973 1075.47 42.464C1075.47 43.584 1075.07 44.4533 1074.28 45.072C1073.49 45.6907 1072.38 46 1070.94 46H1065.63V34.8ZM1070.79 44.08C1071.46 44.08 1071.96 43.952 1072.31 43.696C1072.67 43.4293 1072.84 43.0453 1072.84 42.544C1072.84 41.5627 1072.16 41.072 1070.79 41.072H1068.2V44.08H1070.79Z" fill="white"></path><path d="M40.464 149.008C42.0427 149.008 43.2053 149.323 43.952 149.952C44.7093 150.581 45.088 151.424 45.088 152.48C45.088 153.163 44.9173 153.787 44.576 154.352C44.2347 154.907 43.712 155.355 43.008 155.696C42.3147 156.027 41.456 156.192 40.432 156.192C39.6427 156.192 38.864 156.091 38.096 155.888C37.3387 155.675 36.6933 155.376 36.16 154.992L37.184 153.008C37.6107 153.328 38.1013 153.579 38.656 153.76C39.2107 153.931 39.7813 154.016 40.368 154.016C41.0187 154.016 41.5307 153.888 41.904 153.632C42.2773 153.376 42.464 153.019 42.464 152.56C42.464 152.08 42.2667 151.717 41.872 151.472C41.488 151.227 40.816 151.104 39.856 151.104H36.992L37.568 144.8H44.4V146.88H39.728L39.552 149.008H40.464ZM46.3476 150.496H50.8756V152.496H46.3476V150.496ZM60.9233 144.8V146.48L56.7633 156H53.9473L57.9633 146.912H54.2513V148.736H51.9473V144.8H60.9233ZM77.5844 144.8V156H75.0084V146.912H69.9524V156H67.3764V144.8H77.5844ZM87.9448 153.6H82.7448L81.7528 156H79.0968L84.0888 144.8H86.6488L91.6568 156H88.9368L87.9448 153.6ZM87.1288 151.632L85.3528 147.344L83.5768 151.632H87.1288ZM103.22 144.8V156H100.66V146.912H96.8198L96.7398 149.248C96.6864 150.837 96.5584 152.128 96.3558 153.12C96.1531 154.101 95.8118 154.859 95.3318 155.392C94.8624 155.915 94.2011 156.176 93.3478 156.176C92.9958 156.176 92.5691 156.117 92.0678 156L92.2278 153.808C92.3664 153.851 92.5211 153.872 92.6918 153.872C93.3104 153.872 93.7424 153.509 93.9878 152.784C94.2331 152.048 94.3878 150.901 94.4518 149.344L94.6118 144.8H103.22ZM115.923 144.8V156H113.363V146.912H109.523L109.443 149.248C109.39 150.837 109.262 152.128 109.059 153.12C108.856 154.101 108.515 154.859 108.035 155.392C107.566 155.915 106.904 156.176 106.051 156.176C105.699 156.176 105.272 156.117 104.771 156L104.931 153.808C105.07 153.851 105.224 153.872 105.395 153.872C106.014 153.872 106.446 153.509 106.691 152.784C106.936 152.048 107.091 150.901 107.155 149.344L107.315 144.8H115.923ZM127.392 153.92V156H118.72V144.8H127.184V146.88H121.296V149.312H126.496V151.328H121.296V153.92H127.392ZM138.046 146.912H134.462V156H131.902V146.912H128.334V144.8H138.046V146.912Z" fill="#030E2B"></path><path d="M38.944 100.8V112H36.352V102.88H34.112V100.8H38.944ZM41.0976 106.496H45.6256V108.496H41.0976V106.496ZM50.9015 105.008C52.4802 105.008 53.6428 105.323 54.3895 105.952C55.1468 106.581 55.5255 107.424 55.5255 108.48C55.5255 109.163 55.3548 109.787 55.0135 110.352C54.6722 110.907 54.1495 111.355 53.4455 111.696C52.7522 112.027 51.8935 112.192 50.8695 112.192C50.0802 112.192 49.3015 112.091 48.5335 111.888C47.7762 111.675 47.1308 111.376 46.5975 110.992L47.6215 109.008C48.0482 109.328 48.5388 109.579 49.0935 109.76C49.6482 109.931 50.2188 110.016 50.8055 110.016C51.4562 110.016 51.9682 109.888 52.3415 109.632C52.7148 109.376 52.9015 109.019 52.9015 108.56C52.9015 108.08 52.7042 107.717 52.3095 107.472C51.9255 107.227 51.2535 107.104 50.2935 107.104H47.4295L48.0055 100.8H54.8375V102.88H50.1655L49.9895 105.008H50.9015ZM72.0844 100.8V112H69.5084V102.912H64.4524V112H61.8764V100.8H72.0844ZM82.4448 109.6H77.2448L76.2528 112H73.5968L78.5888 100.8H81.1488L86.1568 112H83.4368L82.4448 109.6ZM81.6288 107.632L79.8528 103.344L78.0768 107.632H81.6288ZM97.7198 100.8V112H95.1597V102.912H91.3198L91.2398 105.248C91.1864 106.837 91.0584 108.128 90.8558 109.12C90.6531 110.101 90.3118 110.859 89.8318 111.392C89.3624 111.915 88.7011 112.176 87.8478 112.176C87.4958 112.176 87.0691 112.117 86.5678 112L86.7278 109.808C86.8664 109.851 87.0211 109.872 87.1918 109.872C87.8104 109.872 88.2424 109.509 88.4878 108.784C88.7331 108.048 88.8878 106.901 88.9518 105.344L89.1118 100.8H97.7198ZM110.423 100.8V112H107.863V102.912H104.023L103.943 105.248C103.89 106.837 103.762 108.128 103.559 109.12C103.356 110.101 103.015 110.859 102.535 111.392C102.066 111.915 101.404 112.176 100.551 112.176C100.199 112.176 99.7722 112.117 99.2709 112L99.4309 109.808C99.5695 109.851 99.7242 109.872 99.8949 109.872C100.514 109.872 100.946 109.509 101.191 108.784C101.436 108.048 101.591 106.901 101.655 105.344L101.815 100.8H110.423ZM121.892 109.92V112H113.22V100.8H121.684V102.88H115.796V105.312H120.996V107.328H115.796V109.92H121.892ZM132.546 102.912H128.962V112H126.402V102.912H122.834V100.8H132.546V102.912Z" fill="#030E2B"></path><path d="M951.512 153.248H949.384V156H947.832V153.248H941.608V152.128L947.336 144.8H949.064L943.576 151.872H947.88V149.44H949.384V151.872H951.512V153.248ZM961.056 149.504C962.155 149.611 962.992 149.952 963.568 150.528C964.144 151.093 964.432 151.819 964.432 152.704C964.432 153.344 964.272 153.925 963.952 154.448C963.632 154.96 963.152 155.371 962.512 155.68C961.883 155.979 961.109 156.128 960.192 156.128C959.392 156.128 958.624 156.011 957.888 155.776C957.152 155.531 956.549 155.195 956.08 154.768L956.816 153.504C957.2 153.867 957.691 154.16 958.288 154.384C958.885 154.597 959.52 154.704 960.192 154.704C961.024 154.704 961.669 154.528 962.128 154.176C962.597 153.824 962.832 153.339 962.832 152.72C962.832 152.101 962.603 151.621 962.144 151.28C961.685 150.939 960.992 150.768 960.064 150.768H959.168V149.648L961.984 146.192H956.592V144.8H963.984V145.888L961.056 149.504ZM973.897 144.8V145.888L969.369 156H967.673L972.105 146.192H966.985V148.192H965.449V144.8H973.897ZM978.218 149.264C979.818 149.264 980.991 149.568 981.738 150.176C982.495 150.773 982.874 151.595 982.874 152.64C982.874 153.301 982.714 153.899 982.394 154.432C982.085 154.955 981.61 155.371 980.97 155.68C980.341 155.979 979.562 156.128 978.634 156.128C977.845 156.128 977.082 156.011 976.346 155.776C975.61 155.531 975.002 155.195 974.522 154.768L975.258 153.504C975.642 153.867 976.133 154.16 976.73 154.384C977.327 154.597 977.957 154.704 978.618 154.704C979.461 154.704 980.111 154.528 980.57 154.176C981.039 153.813 981.274 153.323 981.274 152.704C981.274 152.032 981.018 151.525 980.506 151.184C979.994 150.832 979.119 150.656 977.882 150.656H975.338L975.93 144.8H982.25V146.192H977.274L976.97 149.264H978.218Z" fill="#030E2B"></path><path d="M951.512 109.248H949.384V112H947.832V109.248H941.608V108.128L947.336 100.8H949.064L943.576 107.872H947.88V105.44H949.384V107.872H951.512V109.248ZM964.928 100.8V101.888L960.4 112H958.704L963.136 102.192H958.016V104.192H956.48V100.8H964.928ZM969.249 105.264C970.849 105.264 972.023 105.568 972.769 106.176C973.527 106.773 973.905 107.595 973.905 108.64C973.905 109.301 973.745 109.899 973.425 110.432C973.116 110.955 972.641 111.371 972.001 111.68C971.372 111.979 970.593 112.128 969.665 112.128C968.876 112.128 968.113 112.011 967.377 111.776C966.641 111.531 966.033 111.195 965.553 110.768L966.289 109.504C966.673 109.867 967.164 110.16 967.761 110.384C968.359 110.597 968.988 110.704 969.649 110.704C970.492 110.704 971.143 110.528 971.601 110.176C972.071 109.813 972.305 109.323 972.305 108.704C972.305 108.032 972.049 107.525 971.537 107.184C971.025 106.832 970.151 106.656 968.913 106.656H966.369L966.961 100.8H973.281V102.192H968.305L968.001 105.264H969.249ZM979.813 112.128C978.927 112.128 978.138 111.904 977.445 111.456C976.762 110.997 976.223 110.336 975.829 109.472C975.434 108.608 975.237 107.584 975.237 106.4C975.237 105.216 975.434 104.192 975.829 103.328C976.223 102.464 976.762 101.808 977.445 101.36C978.138 100.901 978.927 100.672 979.813 100.672C980.687 100.672 981.466 100.901 982.149 101.36C982.842 101.808 983.386 102.464 983.781 103.328C984.175 104.192 984.373 105.216 984.373 106.4C984.373 107.584 984.175 108.608 983.781 109.472C983.386 110.336 982.842 110.997 982.149 111.456C981.466 111.904 980.687 112.128 979.813 112.128ZM979.813 110.704C980.709 110.704 981.423 110.336 981.957 109.6C982.501 108.864 982.773 107.797 982.773 106.4C982.773 105.003 982.501 103.936 981.957 103.2C981.423 102.464 980.709 102.096 979.813 102.096C978.906 102.096 978.181 102.464 977.637 103.2C977.103 103.936 976.837 105.003 976.837 106.4C976.837 107.797 977.103 108.864 977.637 109.6C978.181 110.336 978.906 110.704 979.813 110.704Z" fill="#030E2B"></path><path d="M555.056 149.504C556.155 149.611 556.992 149.952 557.568 150.528C558.144 151.093 558.432 151.819 558.432 152.704C558.432 153.344 558.272 153.925 557.952 154.448C557.632 154.96 557.152 155.371 556.512 155.68C555.883 155.979 555.109 156.128 554.192 156.128C553.392 156.128 552.624 156.011 551.888 155.776C551.152 155.531 550.549 155.195 550.08 154.768L550.816 153.504C551.2 153.867 551.691 154.16 552.288 154.384C552.885 154.597 553.52 154.704 554.192 154.704C555.024 154.704 555.669 154.528 556.128 154.176C556.597 153.824 556.832 153.339 556.832 152.72C556.832 152.101 556.603 151.621 556.144 151.28C555.685 150.939 554.992 150.768 554.064 150.768H553.168V149.648L555.984 146.192H550.592V144.8H557.984V145.888L555.056 149.504ZM567.421 149.264C569.021 149.264 570.194 149.568 570.941 150.176C571.698 150.773 572.077 151.595 572.077 152.64C572.077 153.301 571.917 153.899 571.597 154.432C571.288 154.955 570.813 155.371 570.173 155.68C569.544 155.979 568.765 156.128 567.837 156.128C567.048 156.128 566.285 156.011 565.549 155.776C564.813 155.531 564.205 155.195 563.725 154.768L564.461 153.504C564.845 153.867 565.336 154.16 565.933 154.384C566.53 154.597 567.16 154.704 567.821 154.704C568.664 154.704 569.314 154.528 569.773 154.176C570.242 153.813 570.477 153.323 570.477 152.704C570.477 152.032 570.221 151.525 569.709 151.184C569.197 150.832 568.322 150.656 567.085 150.656H564.541L565.133 144.8H571.453V146.192H566.477L566.173 149.264H567.421ZM577.985 156.128C577.099 156.128 576.31 155.904 575.617 155.456C574.934 154.997 574.395 154.336 574.001 153.472C573.606 152.608 573.409 151.584 573.409 150.4C573.409 149.216 573.606 148.192 574.001 147.328C574.395 146.464 574.934 145.808 575.617 145.36C576.31 144.901 577.099 144.672 577.985 144.672C578.859 144.672 579.638 144.901 580.321 145.36C581.014 145.808 581.558 146.464 581.953 147.328C582.347 148.192 582.545 149.216 582.545 150.4C582.545 151.584 582.347 152.608 581.953 153.472C581.558 154.336 581.014 154.997 580.321 155.456C579.638 155.904 578.859 156.128 577.985 156.128ZM577.985 154.704C578.881 154.704 579.595 154.336 580.129 153.6C580.673 152.864 580.945 151.797 580.945 150.4C580.945 149.003 580.673 147.936 580.129 147.2C579.595 146.464 578.881 146.096 577.985 146.096C577.078 146.096 576.353 146.464 575.809 147.2C575.275 147.936 575.009 149.003 575.009 150.4C575.009 151.797 575.275 152.864 575.809 153.6C576.353 154.336 577.078 154.704 577.985 154.704ZM588.657 156.128C587.771 156.128 586.982 155.904 586.289 155.456C585.606 154.997 585.067 154.336 584.673 153.472C584.278 152.608 584.081 151.584 584.081 150.4C584.081 149.216 584.278 148.192 584.673 147.328C585.067 146.464 585.606 145.808 586.289 145.36C586.982 144.901 587.771 144.672 588.657 144.672C589.531 144.672 590.31 144.901 590.993 145.36C591.686 145.808 592.23 146.464 592.625 147.328C593.019 148.192 593.217 149.216 593.217 150.4C593.217 151.584 593.019 152.608 592.625 153.472C592.23 154.336 591.686 154.997 590.993 155.456C590.31 155.904 589.531 156.128 588.657 156.128ZM588.657 154.704C589.553 154.704 590.267 154.336 590.801 153.6C591.345 152.864 591.617 151.797 591.617 150.4C591.617 149.003 591.345 147.936 590.801 147.2C590.267 146.464 589.553 146.096 588.657 146.096C587.75 146.096 587.025 146.464 586.481 147.2C585.947 147.936 585.681 149.003 585.681 150.4C585.681 151.797 585.947 152.864 586.481 153.6C587.025 154.336 587.75 154.704 588.657 154.704Z" fill="#030E2B"></path><path d="M555.056 105.504C556.155 105.611 556.992 105.952 557.568 106.528C558.144 107.093 558.432 107.819 558.432 108.704C558.432 109.344 558.272 109.925 557.952 110.448C557.632 110.96 557.152 111.371 556.512 111.68C555.883 111.979 555.109 112.128 554.192 112.128C553.392 112.128 552.624 112.011 551.888 111.776C551.152 111.531 550.549 111.195 550.08 110.768L550.816 109.504C551.2 109.867 551.691 110.16 552.288 110.384C552.885 110.597 553.52 110.704 554.192 110.704C555.024 110.704 555.669 110.528 556.128 110.176C556.597 109.824 556.832 109.339 556.832 108.72C556.832 108.101 556.603 107.621 556.144 107.28C555.685 106.939 554.992 106.768 554.064 106.768H553.168V105.648L555.984 102.192H550.592V100.8H557.984V101.888L555.056 105.504ZM571.069 106.128C571.709 106.373 572.2 106.725 572.541 107.184C572.882 107.643 573.053 108.192 573.053 108.832C573.053 109.504 572.872 110.091 572.509 110.592C572.146 111.083 571.629 111.461 570.957 111.728C570.285 111.995 569.496 112.128 568.589 112.128C567.693 112.128 566.909 111.995 566.237 111.728C565.576 111.461 565.064 111.083 564.701 110.592C564.338 110.091 564.157 109.504 564.157 108.832C564.157 108.192 564.322 107.643 564.653 107.184C564.994 106.725 565.485 106.373 566.125 106.128C565.613 105.883 565.224 105.557 564.957 105.152C564.69 104.747 564.557 104.267 564.557 103.712C564.557 103.093 564.722 102.555 565.053 102.096C565.394 101.637 565.869 101.285 566.477 101.04C567.085 100.795 567.789 100.672 568.589 100.672C569.4 100.672 570.109 100.795 570.717 101.04C571.336 101.285 571.81 101.637 572.141 102.096C572.482 102.555 572.653 103.093 572.653 103.712C572.653 104.256 572.514 104.736 572.237 105.152C571.97 105.557 571.581 105.883 571.069 106.128ZM568.589 101.968C567.832 101.968 567.234 102.133 566.797 102.464C566.36 102.784 566.141 103.221 566.141 103.776C566.141 104.331 566.354 104.768 566.781 105.088C567.218 105.408 567.821 105.568 568.589 105.568C569.368 105.568 569.976 105.408 570.413 105.088C570.861 104.768 571.085 104.331 571.085 103.776C571.085 103.221 570.856 102.784 570.397 102.464C569.949 102.133 569.346 101.968 568.589 101.968ZM568.589 110.832C569.474 110.832 570.173 110.651 570.685 110.288C571.197 109.915 571.453 109.413 571.453 108.784C571.453 108.165 571.197 107.68 570.685 107.328C570.173 106.965 569.474 106.784 568.589 106.784C567.704 106.784 567.01 106.965 566.509 107.328C566.008 107.68 565.757 108.165 565.757 108.784C565.757 109.413 566.008 109.915 566.509 110.288C567.01 110.651 567.704 110.832 568.589 110.832ZM579.094 112.128C578.209 112.128 577.419 111.904 576.726 111.456C576.043 110.997 575.505 110.336 575.11 109.472C574.715 108.608 574.518 107.584 574.518 106.4C574.518 105.216 574.715 104.192 575.11 103.328C575.505 102.464 576.043 101.808 576.726 101.36C577.419 100.901 578.209 100.672 579.094 100.672C579.969 100.672 580.747 100.901 581.43 101.36C582.123 101.808 582.667 102.464 583.062 103.328C583.457 104.192 583.654 105.216 583.654 106.4C583.654 107.584 583.457 108.608 583.062 109.472C582.667 110.336 582.123 110.997 581.43 111.456C580.747 111.904 579.969 112.128 579.094 112.128ZM579.094 110.704C579.99 110.704 580.705 110.336 581.238 109.6C581.782 108.864 582.054 107.797 582.054 106.4C582.054 105.003 581.782 103.936 581.238 103.2C580.705 102.464 579.99 102.096 579.094 102.096C578.187 102.096 577.462 102.464 576.918 103.2C576.385 103.936 576.118 105.003 576.118 106.4C576.118 107.797 576.385 108.864 576.918 109.6C577.462 110.336 578.187 110.704 579.094 110.704ZM589.766 112.128C588.881 112.128 588.091 111.904 587.398 111.456C586.715 110.997 586.177 110.336 585.782 109.472C585.387 108.608 585.19 107.584 585.19 106.4C585.19 105.216 585.387 104.192 585.782 103.328C586.177 102.464 586.715 101.808 587.398 101.36C588.091 100.901 588.881 100.672 589.766 100.672C590.641 100.672 591.419 100.901 592.102 101.36C592.795 101.808 593.339 102.464 593.734 103.328C594.129 104.192 594.326 105.216 594.326 106.4C594.326 107.584 594.129 108.608 593.734 109.472C593.339 110.336 592.795 110.997 592.102 111.456C591.419 111.904 590.641 112.128 589.766 112.128ZM589.766 110.704C590.662 110.704 591.377 110.336 591.91 109.6C592.454 108.864 592.726 107.797 592.726 106.4C592.726 105.003 592.454 103.936 591.91 103.2C591.377 102.464 590.662 102.096 589.766 102.096C588.859 102.096 588.134 102.464 587.59 103.2C587.057 103.936 586.79 105.003 586.79 106.4C586.79 107.797 587.057 108.864 587.59 109.6C588.134 110.336 588.859 110.704 589.766 110.704Z" fill="#030E2B"></path><path d="M44.288 197.112C44.8427 197.389 45.264 197.752 45.552 198.2C45.8507 198.648 46 199.165 46 199.752C46 200.445 45.8027 201.053 45.408 201.576C45.0133 202.088 44.4587 202.488 43.744 202.776C43.0293 203.053 42.2027 203.192 41.264 203.192C40.3253 203.192 39.4987 203.053 38.784 202.776C38.08 202.488 37.5307 202.088 37.136 201.576C36.752 201.053 36.56 200.445 36.56 199.752C36.56 199.165 36.704 198.648 36.992 198.2C37.2907 197.752 37.712 197.389 38.256 197.112C37.84 196.856 37.52 196.536 37.296 196.152C37.072 195.757 36.96 195.309 36.96 194.808C36.96 194.157 37.1413 193.592 37.504 193.112C37.8667 192.632 38.3733 192.264 39.024 192.008C39.6747 191.741 40.4213 191.608 41.264 191.608C42.1173 191.608 42.8693 191.741 43.52 192.008C44.1813 192.264 44.6933 192.632 45.056 193.112C45.4187 193.592 45.6 194.157 45.6 194.808C45.6 195.309 45.488 195.757 45.264 196.152C45.04 196.536 44.7147 196.856 44.288 197.112ZM41.264 193.512C40.7413 193.512 40.32 193.64 40 193.896C39.6907 194.141 39.536 194.483 39.536 194.92C39.536 195.347 39.6907 195.683 40 195.928C40.3093 196.173 40.7307 196.296 41.264 196.296C41.7973 196.296 42.224 196.173 42.544 195.928C42.864 195.683 43.024 195.347 43.024 194.92C43.024 194.483 42.864 194.141 42.544 193.896C42.224 193.64 41.7973 193.512 41.264 193.512ZM41.264 201.288C41.9147 201.288 42.4267 201.144 42.8 200.856C43.184 200.557 43.376 200.163 43.376 199.672C43.376 199.181 43.184 198.792 42.8 198.504C42.4267 198.216 41.9147 198.072 41.264 198.072C40.624 198.072 40.1173 198.216 39.744 198.504C39.3707 198.792 39.184 199.181 39.184 199.672C39.184 200.173 39.3707 200.568 39.744 200.856C40.1173 201.144 40.624 201.288 41.264 201.288ZM47.3945 197.496H51.9225V199.496H47.3945V197.496ZM57.3346 191.8V203H54.7426V193.88H52.5026V191.8H57.3346ZM64.0803 203.192C63.1523 203.192 62.3256 202.963 61.6003 202.504C60.8749 202.045 60.3043 201.384 59.8883 200.52C59.4829 199.645 59.2803 198.605 59.2803 197.4C59.2803 196.195 59.4829 195.16 59.8883 194.296C60.3043 193.421 60.8749 192.755 61.6003 192.296C62.3256 191.837 63.1523 191.608 64.0803 191.608C65.0083 191.608 65.8349 191.837 66.5603 192.296C67.2856 192.755 67.8509 193.421 68.2563 194.296C68.6723 195.16 68.8803 196.195 68.8803 197.4C68.8803 198.605 68.6723 199.645 68.2563 200.52C67.8509 201.384 67.2856 202.045 66.5603 202.504C65.8349 202.963 65.0083 203.192 64.0803 203.192ZM64.0803 201C64.7629 201 65.2963 200.707 65.6803 200.12C66.0749 199.533 66.2723 198.627 66.2723 197.4C66.2723 196.173 66.0749 195.267 65.6803 194.68C65.2963 194.093 64.7629 193.8 64.0803 193.8C63.4083 193.8 62.8749 194.093 62.4803 194.68C62.0963 195.267 61.9043 196.173 61.9043 197.4C61.9043 198.627 62.0963 199.533 62.4803 200.12C62.8749 200.707 63.4083 201 64.0803 201ZM85.6469 191.8V203H83.0709V193.912H78.0149V203H75.4389V191.8H85.6469ZM96.0073 200.6H90.8073L89.8153 203H87.1593L92.1513 191.8H94.7113L99.7193 203H96.9993L96.0073 200.6ZM95.1913 198.632L93.4153 194.344L91.6393 198.632H95.1913ZM111.282 191.8V203H108.722V193.912H104.882L104.802 196.248C104.749 197.837 104.621 199.128 104.418 200.12C104.216 201.101 103.874 201.859 103.394 202.392C102.925 202.915 102.264 203.176 101.41 203.176C101.058 203.176 100.632 203.117 100.13 203L100.29 200.808C100.429 200.851 100.584 200.872 100.754 200.872C101.373 200.872 101.805 200.509 102.05 199.784C102.296 199.048 102.45 197.901 102.514 196.344L102.674 191.8H111.282ZM123.985 191.8V203H121.425V193.912H117.585L117.505 196.248C117.452 197.837 117.324 199.128 117.121 200.12C116.919 201.101 116.577 201.859 116.097 202.392C115.628 202.915 114.967 203.176 114.113 203.176C113.761 203.176 113.335 203.117 112.833 203L112.993 200.808C113.132 200.851 113.287 200.872 113.457 200.872C114.076 200.872 114.508 200.509 114.753 199.784C114.999 199.048 115.153 197.901 115.217 196.344L115.377 191.8H123.985ZM135.455 200.92V203H126.783V191.8H135.247V193.88H129.359V196.312H134.559V198.328H129.359V200.92H135.455ZM146.108 193.912H142.524V203H139.964V193.912H136.396V191.8H146.108V193.912Z" fill="#030E2B"></path><path d="M946.056 196.504C947.155 196.611 947.992 196.952 948.568 197.528C949.144 198.093 949.432 198.819 949.432 199.704C949.432 200.344 949.272 200.925 948.952 201.448C948.632 201.96 948.152 202.371 947.512 202.68C946.883 202.979 946.109 203.128 945.192 203.128C944.392 203.128 943.624 203.011 942.888 202.776C942.152 202.531 941.549 202.195 941.08 201.768L941.816 200.504C942.2 200.867 942.691 201.16 943.288 201.384C943.885 201.597 944.52 201.704 945.192 201.704C946.024 201.704 946.669 201.528 947.128 201.176C947.597 200.824 947.832 200.339 947.832 199.72C947.832 199.101 947.603 198.621 947.144 198.28C946.685 197.939 945.992 197.768 945.064 197.768H944.168V196.648L946.984 193.192H941.592V191.8H948.984V192.888L946.056 196.504ZM958.718 201.608V203H950.67V201.912L955.23 197.512C955.785 196.979 956.158 196.52 956.35 196.136C956.542 195.741 956.638 195.347 956.638 194.952C956.638 194.365 956.43 193.912 956.014 193.592C955.609 193.261 955.022 193.096 954.254 193.096C953.017 193.096 952.062 193.501 951.39 194.312L950.302 193.368C950.739 192.835 951.31 192.419 952.014 192.12C952.729 191.821 953.523 191.672 954.398 191.672C955.571 191.672 956.505 191.955 957.198 192.52C957.891 193.075 958.238 193.832 958.238 194.792C958.238 195.389 958.11 195.955 957.854 196.488C957.598 197.021 957.113 197.629 956.398 198.312L952.974 201.608H958.718ZM967.531 196.264C969.131 196.264 970.304 196.568 971.051 197.176C971.808 197.773 972.187 198.595 972.187 199.64C972.187 200.301 972.027 200.899 971.707 201.432C971.397 201.955 970.923 202.371 970.283 202.68C969.653 202.979 968.875 203.128 967.947 203.128C967.157 203.128 966.395 203.011 965.659 202.776C964.923 202.531 964.315 202.195 963.835 201.768L964.571 200.504C964.955 200.867 965.445 201.16 966.043 201.384C966.64 201.597 967.269 201.704 967.931 201.704C968.773 201.704 969.424 201.528 969.883 201.176C970.352 200.813 970.587 200.323 970.587 199.704C970.587 199.032 970.331 198.525 969.819 198.184C969.307 197.832 968.432 197.656 967.195 197.656H964.651L965.243 191.8H971.562V193.192H966.587L966.283 196.264H967.531ZM978.094 203.128C977.209 203.128 976.419 202.904 975.726 202.456C975.043 201.997 974.505 201.336 974.11 200.472C973.715 199.608 973.518 198.584 973.518 197.4C973.518 196.216 973.715 195.192 974.11 194.328C974.505 193.464 975.043 192.808 975.726 192.36C976.419 191.901 977.209 191.672 978.094 191.672C978.969 191.672 979.747 191.901 980.43 192.36C981.123 192.808 981.667 193.464 982.062 194.328C982.457 195.192 982.654 196.216 982.654 197.4C982.654 198.584 982.457 199.608 982.062 200.472C981.667 201.336 981.123 201.997 980.43 202.456C979.747 202.904 978.969 203.128 978.094 203.128ZM978.094 201.704C978.99 201.704 979.705 201.336 980.238 200.6C980.782 199.864 981.054 198.797 981.054 197.4C981.054 196.003 980.782 194.936 980.238 194.2C979.705 193.464 978.99 193.096 978.094 193.096C977.187 193.096 976.462 193.464 975.918 194.2C975.385 194.936 975.118 196.003 975.118 197.4C975.118 198.797 975.385 199.864 975.918 200.6C976.462 201.336 977.187 201.704 978.094 201.704ZM988.766 203.128C987.881 203.128 987.091 202.904 986.398 202.456C985.715 201.997 985.177 201.336 984.782 200.472C984.387 199.608 984.19 198.584 984.19 197.4C984.19 196.216 984.387 195.192 984.782 194.328C985.177 193.464 985.715 192.808 986.398 192.36C987.091 191.901 987.881 191.672 988.766 191.672C989.641 191.672 990.419 191.901 991.102 192.36C991.795 192.808 992.339 193.464 992.734 194.328C993.129 195.192 993.326 196.216 993.326 197.4C993.326 198.584 993.129 199.608 992.734 200.472C992.339 201.336 991.795 201.997 991.102 202.456C990.419 202.904 989.641 203.128 988.766 203.128ZM988.766 201.704C989.662 201.704 990.377 201.336 990.91 200.6C991.454 199.864 991.726 198.797 991.726 197.4C991.726 196.003 991.454 194.936 990.91 194.2C990.377 193.464 989.662 193.096 988.766 193.096C987.859 193.096 987.134 193.464 986.59 194.2C986.057 194.936 985.79 196.003 985.79 197.4C985.79 198.797 986.057 199.864 986.59 200.6C987.134 201.336 987.859 201.704 988.766 201.704Z" fill="#030E2B"></path><path d="M558.64 201.608V203H550.592V201.912L555.152 197.512C555.707 196.979 556.08 196.52 556.272 196.136C556.464 195.741 556.56 195.347 556.56 194.952C556.56 194.365 556.352 193.912 555.936 193.592C555.531 193.261 554.944 193.096 554.176 193.096C552.939 193.096 551.984 193.501 551.312 194.312L550.224 193.368C550.661 192.835 551.232 192.419 551.936 192.12C552.651 191.821 553.445 191.672 554.32 191.672C555.493 191.672 556.427 191.955 557.12 192.52C557.813 193.075 558.16 193.832 558.16 194.792C558.16 195.389 558.032 195.955 557.776 196.488C557.52 197.021 557.035 197.629 556.32 198.312L552.896 201.608H558.64ZM564.741 196.2C565.477 196.2 566.133 196.339 566.709 196.616C567.295 196.893 567.754 197.293 568.085 197.816C568.415 198.328 568.581 198.92 568.581 199.592C568.581 200.296 568.405 200.915 568.053 201.448C567.711 201.981 567.237 202.397 566.629 202.696C566.031 202.984 565.359 203.128 564.613 203.128C563.109 203.128 561.946 202.643 561.125 201.672C560.314 200.701 559.909 199.325 559.909 197.544C559.909 196.296 560.127 195.235 560.565 194.36C561.013 193.475 561.631 192.808 562.421 192.36C563.221 191.901 564.149 191.672 565.205 191.672C565.749 191.672 566.261 191.731 566.741 191.848C567.221 191.955 567.637 192.115 567.989 192.328L567.381 193.576C566.847 193.224 566.133 193.048 565.237 193.048C564.074 193.048 563.162 193.411 562.501 194.136C561.839 194.851 561.509 195.896 561.509 197.272C561.509 197.443 561.514 197.576 561.525 197.672C561.845 197.192 562.282 196.829 562.837 196.584C563.402 196.328 564.037 196.2 564.741 196.2ZM564.549 201.832C565.285 201.832 565.882 201.635 566.341 201.24C566.799 200.845 567.029 200.317 567.029 199.656C567.029 198.995 566.794 198.472 566.325 198.088C565.866 197.693 565.247 197.496 564.469 197.496C563.967 197.496 563.519 197.592 563.125 197.784C562.741 197.976 562.437 198.237 562.213 198.568C561.999 198.899 561.893 199.267 561.893 199.672C561.893 200.067 561.994 200.429 562.197 200.76C562.41 201.08 562.714 201.341 563.109 201.544C563.514 201.736 563.994 201.832 564.549 201.832ZM578.657 203.128C577.771 203.128 576.982 202.904 576.289 202.456C575.606 201.997 575.067 201.336 574.673 200.472C574.278 199.608 574.081 198.584 574.081 197.4C574.081 196.216 574.278 195.192 574.673 194.328C575.067 193.464 575.606 192.808 576.289 192.36C576.982 191.901 577.771 191.672 578.657 191.672C579.531 191.672 580.31 191.901 580.993 192.36C581.686 192.808 582.23 193.464 582.625 194.328C583.019 195.192 583.217 196.216 583.217 197.4C583.217 198.584 583.019 199.608 582.625 200.472C582.23 201.336 581.686 201.997 580.993 202.456C580.31 202.904 579.531 203.128 578.657 203.128ZM578.657 201.704C579.553 201.704 580.267 201.336 580.801 200.6C581.345 199.864 581.617 198.797 581.617 197.4C581.617 196.003 581.345 194.936 580.801 194.2C580.267 193.464 579.553 193.096 578.657 193.096C577.75 193.096 577.025 193.464 576.481 194.2C575.947 194.936 575.681 196.003 575.681 197.4C575.681 198.797 575.947 199.864 576.481 200.6C577.025 201.336 577.75 201.704 578.657 201.704ZM589.328 203.128C588.443 203.128 587.654 202.904 586.96 202.456C586.278 201.997 585.739 201.336 585.344 200.472C584.95 199.608 584.752 198.584 584.752 197.4C584.752 196.216 584.95 195.192 585.344 194.328C585.739 193.464 586.278 192.808 586.96 192.36C587.654 191.901 588.443 191.672 589.328 191.672C590.203 191.672 590.982 191.901 591.664 192.36C592.358 192.808 592.902 193.464 593.296 194.328C593.691 195.192 593.888 196.216 593.888 197.4C593.888 198.584 593.691 199.608 593.296 200.472C592.902 201.336 592.358 201.997 591.664 202.456C590.982 202.904 590.203 203.128 589.328 203.128ZM589.328 201.704C590.224 201.704 590.939 201.336 591.472 200.6C592.016 199.864 592.288 198.797 592.288 197.4C592.288 196.003 592.016 194.936 591.472 194.2C590.939 193.464 590.224 193.096 589.328 193.096C588.422 193.096 587.696 193.464 587.152 194.2C586.619 194.936 586.352 196.003 586.352 197.4C586.352 198.797 586.619 199.864 587.152 200.6C587.696 201.336 588.422 201.704 589.328 201.704ZM600 203.128C599.115 203.128 598.326 202.904 597.632 202.456C596.95 201.997 596.411 201.336 596.016 200.472C595.622 199.608 595.424 198.584 595.424 197.4C595.424 196.216 595.622 195.192 596.016 194.328C596.411 193.464 596.95 192.808 597.632 192.36C598.326 191.901 599.115 191.672 600 191.672C600.875 191.672 601.654 191.901 602.336 192.36C603.03 192.808 603.574 193.464 603.968 194.328C604.363 195.192 604.56 196.216 604.56 197.4C604.56 198.584 604.363 199.608 603.968 200.472C603.574 201.336 603.03 201.997 602.336 202.456C601.654 202.904 600.875 203.128 600 203.128ZM600 201.704C600.896 201.704 601.611 201.336 602.144 200.6C602.688 199.864 602.96 198.797 602.96 197.4C602.96 196.003 602.688 194.936 602.144 194.2C601.611 193.464 600.896 193.096 600 193.096C599.094 193.096 598.368 193.464 597.824 194.2C597.291 194.936 597.024 196.003 597.024 197.4C597.024 198.797 597.291 199.864 597.824 200.6C598.368 201.336 599.094 201.704 600 201.704Z" fill="#030E2B"></path><path d="M40.944 236.8V248H38.352V238.88H36.112V236.8H40.944ZM47.6896 248.192C46.7616 248.192 45.935 247.963 45.2096 247.504C44.4843 247.045 43.9136 246.384 43.4976 245.52C43.0923 244.645 42.8896 243.605 42.8896 242.4C42.8896 241.195 43.0923 240.16 43.4976 239.296C43.9136 238.421 44.4843 237.755 45.2096 237.296C45.935 236.837 46.7616 236.608 47.6896 236.608C48.6176 236.608 49.4443 236.837 50.1696 237.296C50.895 237.755 51.4603 238.421 51.8656 239.296C52.2816 240.16 52.4896 241.195 52.4896 242.4C52.4896 243.605 52.2816 244.645 51.8656 245.52C51.4603 246.384 50.895 247.045 50.1696 247.504C49.4443 247.963 48.6176 248.192 47.6896 248.192ZM47.6896 246C48.3723 246 48.9056 245.707 49.2896 245.12C49.6843 244.533 49.8816 243.627 49.8816 242.4C49.8816 241.173 49.6843 240.267 49.2896 239.68C48.9056 239.093 48.3723 238.8 47.6896 238.8C47.0176 238.8 46.4843 239.093 46.0896 239.68C45.7056 240.267 45.5136 241.173 45.5136 242.4C45.5136 243.627 45.7056 244.533 46.0896 245.12C46.4843 245.707 47.0176 246 47.6896 246ZM54.0195 242.496H58.5475V244.496H54.0195V242.496ZM63.9596 236.8V248H61.3676V238.88H59.1276V236.8H63.9596ZM69.7453 241.008C71.3239 241.008 72.4866 241.323 73.2333 241.952C73.9906 242.581 74.3693 243.424 74.3693 244.48C74.3693 245.163 74.1986 245.787 73.8573 246.352C73.5159 246.907 72.9933 247.355 72.2893 247.696C71.5959 248.027 70.7373 248.192 69.7133 248.192C68.9239 248.192 68.1453 248.091 67.3773 247.888C66.6199 247.675 65.9746 247.376 65.4413 246.992L66.4653 245.008C66.8919 245.328 67.3826 245.579 67.9373 245.76C68.4919 245.931 69.0626 246.016 69.6493 246.016C70.2999 246.016 70.8119 245.888 71.1853 245.632C71.5586 245.376 71.7453 245.019 71.7453 244.56C71.7453 244.08 71.5479 243.717 71.1533 243.472C70.7693 243.227 70.0973 243.104 69.1373 243.104H66.2733L66.8493 236.8H73.6813V238.88H69.0093L68.8333 241.008H69.7453ZM90.9281 236.8V248H88.3521V238.912H83.2961V248H80.7201V236.8H90.9281ZM101.289 245.6H96.0885L95.0965 248H92.4405L97.4325 236.8H99.9925L105.001 248H102.281L101.289 245.6ZM100.473 243.632L98.6965 239.344L96.9205 243.632H100.473ZM116.564 236.8V248H114.003V238.912H110.164L110.084 241.248C110.03 242.837 109.902 244.128 109.7 245.12C109.497 246.101 109.156 246.859 108.676 247.392C108.206 247.915 107.545 248.176 106.692 248.176C106.34 248.176 105.913 248.117 105.412 248L105.572 245.808C105.71 245.851 105.865 245.872 106.036 245.872C106.654 245.872 107.086 245.509 107.332 244.784C107.577 244.048 107.732 242.901 107.796 241.344L107.956 236.8H116.564ZM129.267 236.8V248H126.707V238.912H122.867L122.787 241.248C122.733 242.837 122.605 244.128 122.403 245.12C122.2 246.101 121.859 246.859 121.379 247.392C120.909 247.915 120.248 248.176 119.395 248.176C119.043 248.176 118.616 248.117 118.115 248L118.275 245.808C118.413 245.851 118.568 245.872 118.739 245.872C119.357 245.872 119.789 245.509 120.035 244.784C120.28 244.048 120.435 242.901 120.499 241.344L120.659 236.8H129.267ZM140.736 245.92V248H132.064V236.8H140.528V238.88H134.64V241.312H139.84V243.328H134.64V245.92H140.736ZM151.39 238.912H147.806V248H145.246V238.912H141.678V236.8H151.39V238.912Z" fill="#030E2B"></path><path d="M951.512 245.248H949.384V248H947.832V245.248H941.608V244.128L947.336 236.8H949.064L943.576 243.872H947.88V241.44H949.384V243.872H951.512V245.248ZM957.047 248.128C956.162 248.128 955.372 247.904 954.679 247.456C953.996 246.997 953.458 246.336 953.063 245.472C952.668 244.608 952.471 243.584 952.471 242.4C952.471 241.216 952.668 240.192 953.063 239.328C953.458 238.464 953.996 237.808 954.679 237.36C955.372 236.901 956.162 236.672 957.047 236.672C957.922 236.672 958.7 236.901 959.383 237.36C960.076 237.808 960.62 238.464 961.015 239.328C961.41 240.192 961.607 241.216 961.607 242.4C961.607 243.584 961.41 244.608 961.015 245.472C960.62 246.336 960.076 246.997 959.383 247.456C958.7 247.904 957.922 248.128 957.047 248.128ZM957.047 246.704C957.943 246.704 958.658 246.336 959.191 245.6C959.735 244.864 960.007 243.797 960.007 242.4C960.007 241.003 959.735 239.936 959.191 239.2C958.658 238.464 957.943 238.096 957.047 238.096C956.14 238.096 955.415 238.464 954.871 239.2C954.338 239.936 954.071 241.003 954.071 242.4C954.071 243.797 954.338 244.864 954.871 245.6C955.415 246.336 956.14 246.704 957.047 246.704ZM972.016 248.128C971.131 248.128 970.341 247.904 969.648 247.456C968.965 246.997 968.427 246.336 968.032 245.472C967.637 244.608 967.44 243.584 967.44 242.4C967.44 241.216 967.637 240.192 968.032 239.328C968.427 238.464 968.965 237.808 969.648 237.36C970.341 236.901 971.131 236.672 972.016 236.672C972.891 236.672 973.669 236.901 974.352 237.36C975.045 237.808 975.589 238.464 975.984 239.328C976.379 240.192 976.576 241.216 976.576 242.4C976.576 243.584 976.379 244.608 975.984 245.472C975.589 246.336 975.045 246.997 974.352 247.456C973.669 247.904 972.891 248.128 972.016 248.128ZM972.016 246.704C972.912 246.704 973.627 246.336 974.16 245.6C974.704 244.864 974.976 243.797 974.976 242.4C974.976 241.003 974.704 239.936 974.16 239.2C973.627 238.464 972.912 238.096 972.016 238.096C971.109 238.096 970.384 238.464 969.84 239.2C969.307 239.936 969.04 241.003 969.04 242.4C969.04 243.797 969.307 244.864 969.84 245.6C970.384 246.336 971.109 246.704 972.016 246.704ZM982.688 248.128C981.802 248.128 981.013 247.904 980.32 247.456C979.637 246.997 979.098 246.336 978.704 245.472C978.309 244.608 978.112 243.584 978.112 242.4C978.112 241.216 978.309 240.192 978.704 239.328C979.098 238.464 979.637 237.808 980.32 237.36C981.013 236.901 981.802 236.672 982.688 236.672C983.562 236.672 984.341 236.901 985.024 237.36C985.717 237.808 986.261 238.464 986.656 239.328C987.05 240.192 987.248 241.216 987.248 242.4C987.248 243.584 987.05 244.608 986.656 245.472C986.261 246.336 985.717 246.997 985.024 247.456C984.341 247.904 983.562 248.128 982.688 248.128ZM982.688 246.704C983.584 246.704 984.298 246.336 984.832 245.6C985.376 244.864 985.648 243.797 985.648 242.4C985.648 241.003 985.376 239.936 984.832 239.2C984.298 238.464 983.584 238.096 982.688 238.096C981.781 238.096 981.056 238.464 980.512 239.2C979.978 239.936 979.712 241.003 979.712 242.4C979.712 243.797 979.978 244.864 980.512 245.6C981.056 246.336 981.781 246.704 982.688 246.704ZM993.36 248.128C992.474 248.128 991.685 247.904 990.992 247.456C990.309 246.997 989.77 246.336 989.376 245.472C988.981 244.608 988.784 243.584 988.784 242.4C988.784 241.216 988.981 240.192 989.376 239.328C989.77 238.464 990.309 237.808 990.992 237.36C991.685 236.901 992.474 236.672 993.36 236.672C994.234 236.672 995.013 236.901 995.696 237.36C996.389 237.808 996.933 238.464 997.328 239.328C997.722 240.192 997.92 241.216 997.92 242.4C997.92 243.584 997.722 244.608 997.328 245.472C996.933 246.336 996.389 246.997 995.696 247.456C995.013 247.904 994.234 248.128 993.36 248.128ZM993.36 246.704C994.256 246.704 994.97 246.336 995.504 245.6C996.048 244.864 996.32 243.797 996.32 242.4C996.32 241.003 996.048 239.936 995.504 239.2C994.97 238.464 994.256 238.096 993.36 238.096C992.453 238.096 991.728 238.464 991.184 239.2C990.65 239.936 990.384 241.003 990.384 242.4C990.384 243.797 990.65 244.864 991.184 245.6C991.728 246.336 992.453 246.704 993.36 246.704Z" fill="#030E2B"></path><path d="M555.056 241.504C556.155 241.611 556.992 241.952 557.568 242.528C558.144 243.093 558.432 243.819 558.432 244.704C558.432 245.344 558.272 245.925 557.952 246.448C557.632 246.96 557.152 247.371 556.512 247.68C555.883 247.979 555.109 248.128 554.192 248.128C553.392 248.128 552.624 248.011 551.888 247.776C551.152 247.531 550.549 247.195 550.08 246.768L550.816 245.504C551.2 245.867 551.691 246.16 552.288 246.384C552.885 246.597 553.52 246.704 554.192 246.704C555.024 246.704 555.669 246.528 556.128 246.176C556.597 245.824 556.832 245.339 556.832 244.72C556.832 244.101 556.603 243.621 556.144 243.28C555.685 242.939 554.992 242.768 554.064 242.768H553.168V241.648L555.984 238.192H550.592V236.8H557.984V237.888L555.056 241.504ZM567.718 246.608V248H559.67V246.912L564.23 242.512C564.785 241.979 565.158 241.52 565.35 241.136C565.542 240.741 565.638 240.347 565.638 239.952C565.638 239.365 565.43 238.912 565.014 238.592C564.609 238.261 564.022 238.096 563.254 238.096C562.017 238.096 561.062 238.501 560.39 239.312L559.302 238.368C559.739 237.835 560.31 237.419 561.014 237.12C561.729 236.821 562.523 236.672 563.398 236.672C564.571 236.672 565.505 236.955 566.198 237.52C566.891 238.075 567.238 238.832 567.238 239.792C567.238 240.389 567.11 240.955 566.854 241.488C566.598 242.021 566.113 242.629 565.398 243.312L561.974 246.608H567.718ZM577.907 248.128C577.021 248.128 576.232 247.904 575.539 247.456C574.856 246.997 574.317 246.336 573.923 245.472C573.528 244.608 573.331 243.584 573.331 242.4C573.331 241.216 573.528 240.192 573.923 239.328C574.317 238.464 574.856 237.808 575.539 237.36C576.232 236.901 577.021 236.672 577.907 236.672C578.781 236.672 579.56 236.901 580.243 237.36C580.936 237.808 581.48 238.464 581.875 239.328C582.269 240.192 582.467 241.216 582.467 242.4C582.467 243.584 582.269 244.608 581.875 245.472C581.48 246.336 580.936 246.997 580.243 247.456C579.56 247.904 578.781 248.128 577.907 248.128ZM577.907 246.704C578.803 246.704 579.517 246.336 580.051 245.6C580.595 244.864 580.867 243.797 580.867 242.4C580.867 241.003 580.595 239.936 580.051 239.2C579.517 238.464 578.803 238.096 577.907 238.096C577 238.096 576.275 238.464 575.731 239.2C575.197 239.936 574.931 241.003 574.931 242.4C574.931 243.797 575.197 244.864 575.731 245.6C576.275 246.336 577 246.704 577.907 246.704ZM588.578 248.128C587.693 248.128 586.904 247.904 586.21 247.456C585.528 246.997 584.989 246.336 584.594 245.472C584.2 244.608 584.002 243.584 584.002 242.4C584.002 241.216 584.2 240.192 584.594 239.328C584.989 238.464 585.528 237.808 586.21 237.36C586.904 236.901 587.693 236.672 588.578 236.672C589.453 236.672 590.232 236.901 590.914 237.36C591.608 237.808 592.152 238.464 592.546 239.328C592.941 240.192 593.138 241.216 593.138 242.4C593.138 243.584 592.941 244.608 592.546 245.472C592.152 246.336 591.608 246.997 590.914 247.456C590.232 247.904 589.453 248.128 588.578 248.128ZM588.578 246.704C589.474 246.704 590.189 246.336 590.722 245.6C591.266 244.864 591.538 243.797 591.538 242.4C591.538 241.003 591.266 239.936 590.722 239.2C590.189 238.464 589.474 238.096 588.578 238.096C587.672 238.096 586.946 238.464 586.402 239.2C585.869 239.936 585.602 241.003 585.602 242.4C585.602 243.797 585.869 244.864 586.402 245.6C586.946 246.336 587.672 246.704 588.578 246.704ZM599.25 248.128C598.365 248.128 597.576 247.904 596.882 247.456C596.2 246.997 595.661 246.336 595.266 245.472C594.872 244.608 594.674 243.584 594.674 242.4C594.674 241.216 594.872 240.192 595.266 239.328C595.661 238.464 596.2 237.808 596.882 237.36C597.576 236.901 598.365 236.672 599.25 236.672C600.125 236.672 600.904 236.901 601.586 237.36C602.28 237.808 602.824 238.464 603.218 239.328C603.613 240.192 603.81 241.216 603.81 242.4C603.81 243.584 603.613 244.608 603.218 245.472C602.824 246.336 602.28 246.997 601.586 247.456C600.904 247.904 600.125 248.128 599.25 248.128ZM599.25 246.704C600.146 246.704 600.861 246.336 601.394 245.6C601.938 244.864 602.21 243.797 602.21 242.4C602.21 241.003 601.938 239.936 601.394 239.2C600.861 238.464 600.146 238.096 599.25 238.096C598.344 238.096 597.618 238.464 597.074 239.2C596.541 239.936 596.274 241.003 596.274 242.4C596.274 243.797 596.541 244.864 597.074 245.6C597.618 246.336 598.344 246.704 599.25 246.704Z" fill="#030E2B"></path><path d="M944.968 286.264C946.568 286.264 947.741 286.568 948.488 287.176C949.245 287.773 949.624 288.595 949.624 289.64C949.624 290.301 949.464 290.899 949.144 291.432C948.835 291.955 948.36 292.371 947.72 292.68C947.091 292.979 946.312 293.128 945.384 293.128C944.595 293.128 943.832 293.011 943.096 292.776C942.36 292.531 941.752 292.195 941.272 291.768L942.008 290.504C942.392 290.867 942.883 291.16 943.48 291.384C944.077 291.597 944.707 291.704 945.368 291.704C946.211 291.704 946.861 291.528 947.32 291.176C947.789 290.813 948.024 290.323 948.024 289.704C948.024 289.032 947.768 288.525 947.256 288.184C946.744 287.832 945.869 287.656 944.632 287.656H942.088L942.68 281.8H949V283.192H944.024L943.72 286.264H944.968ZM955.532 293.128C954.646 293.128 953.857 292.904 953.164 292.456C952.481 291.997 951.942 291.336 951.548 290.472C951.153 289.608 950.956 288.584 950.956 287.4C950.956 286.216 951.153 285.192 951.548 284.328C951.942 283.464 952.481 282.808 953.164 282.36C953.857 281.901 954.646 281.672 955.532 281.672C956.406 281.672 957.185 281.901 957.868 282.36C958.561 282.808 959.105 283.464 959.5 284.328C959.894 285.192 960.092 286.216 960.092 287.4C960.092 288.584 959.894 289.608 959.5 290.472C959.105 291.336 958.561 291.997 957.868 292.456C957.185 292.904 956.406 293.128 955.532 293.128ZM955.532 291.704C956.428 291.704 957.142 291.336 957.676 290.6C958.22 289.864 958.492 288.797 958.492 287.4C958.492 286.003 958.22 284.936 957.676 284.2C957.142 283.464 956.428 283.096 955.532 283.096C954.625 283.096 953.9 283.464 953.356 284.2C952.822 284.936 952.556 286.003 952.556 287.4C952.556 288.797 952.822 289.864 953.356 290.6C953.9 291.336 954.625 291.704 955.532 291.704ZM970.5 293.128C969.615 293.128 968.826 292.904 968.132 292.456C967.45 291.997 966.911 291.336 966.516 290.472C966.122 289.608 965.924 288.584 965.924 287.4C965.924 286.216 966.122 285.192 966.516 284.328C966.911 283.464 967.45 282.808 968.132 282.36C968.826 281.901 969.615 281.672 970.5 281.672C971.375 281.672 972.154 281.901 972.836 282.36C973.53 282.808 974.074 283.464 974.468 284.328C974.863 285.192 975.06 286.216 975.06 287.4C975.06 288.584 974.863 289.608 974.468 290.472C974.074 291.336 973.53 291.997 972.836 292.456C972.154 292.904 971.375 293.128 970.5 293.128ZM970.5 291.704C971.396 291.704 972.111 291.336 972.644 290.6C973.188 289.864 973.46 288.797 973.46 287.4C973.46 286.003 973.188 284.936 972.644 284.2C972.111 283.464 971.396 283.096 970.5 283.096C969.594 283.096 968.868 283.464 968.324 284.2C967.791 284.936 967.524 286.003 967.524 287.4C967.524 288.797 967.791 289.864 968.324 290.6C968.868 291.336 969.594 291.704 970.5 291.704ZM981.172 293.128C980.287 293.128 979.497 292.904 978.804 292.456C978.121 291.997 977.583 291.336 977.188 290.472C976.793 289.608 976.596 288.584 976.596 287.4C976.596 286.216 976.793 285.192 977.188 284.328C977.583 283.464 978.121 282.808 978.804 282.36C979.497 281.901 980.287 281.672 981.172 281.672C982.047 281.672 982.825 281.901 983.508 282.36C984.201 282.808 984.745 283.464 985.14 284.328C985.535 285.192 985.732 286.216 985.732 287.4C985.732 288.584 985.535 289.608 985.14 290.472C984.745 291.336 984.201 291.997 983.508 292.456C982.825 292.904 982.047 293.128 981.172 293.128ZM981.172 291.704C982.068 291.704 982.783 291.336 983.316 290.6C983.86 289.864 984.132 288.797 984.132 287.4C984.132 286.003 983.86 284.936 983.316 284.2C982.783 283.464 982.068 283.096 981.172 283.096C980.265 283.096 979.54 283.464 978.996 284.2C978.463 284.936 978.196 286.003 978.196 287.4C978.196 288.797 978.463 289.864 978.996 290.6C979.54 291.336 980.265 291.704 981.172 291.704ZM991.844 293.128C990.959 293.128 990.169 292.904 989.476 292.456C988.793 291.997 988.255 291.336 987.86 290.472C987.465 289.608 987.268 288.584 987.268 287.4C987.268 286.216 987.465 285.192 987.86 284.328C988.255 283.464 988.793 282.808 989.476 282.36C990.169 281.901 990.959 281.672 991.844 281.672C992.719 281.672 993.497 281.901 994.18 282.36C994.873 282.808 995.417 283.464 995.812 284.328C996.207 285.192 996.404 286.216 996.404 287.4C996.404 288.584 996.207 289.608 995.812 290.472C995.417 291.336 994.873 291.997 994.18 292.456C993.497 292.904 992.719 293.128 991.844 293.128ZM991.844 291.704C992.74 291.704 993.455 291.336 993.988 290.6C994.532 289.864 994.804 288.797 994.804 287.4C994.804 286.003 994.532 284.936 993.988 284.2C993.455 283.464 992.74 283.096 991.844 283.096C990.937 283.096 990.212 283.464 989.668 284.2C989.135 284.936 988.868 286.003 988.868 287.4C988.868 288.797 989.135 289.864 989.668 290.6C990.212 291.336 990.937 291.704 991.844 291.704Z" fill="#030E2B"></path><path d="M560.512 290.248H558.384V293H556.832V290.248H550.608V289.128L556.336 281.8H558.064L552.576 288.872H556.88V286.44H558.384V288.872H560.512V290.248ZM566.047 293.128C565.162 293.128 564.372 292.904 563.679 292.456C562.996 291.997 562.458 291.336 562.063 290.472C561.668 289.608 561.471 288.584 561.471 287.4C561.471 286.216 561.668 285.192 562.063 284.328C562.458 283.464 562.996 282.808 563.679 282.36C564.372 281.901 565.162 281.672 566.047 281.672C566.922 281.672 567.7 281.901 568.383 282.36C569.076 282.808 569.62 283.464 570.015 284.328C570.41 285.192 570.607 286.216 570.607 287.4C570.607 288.584 570.41 289.608 570.015 290.472C569.62 291.336 569.076 291.997 568.383 292.456C567.7 292.904 566.922 293.128 566.047 293.128ZM566.047 291.704C566.943 291.704 567.658 291.336 568.191 290.6C568.735 289.864 569.007 288.797 569.007 287.4C569.007 286.003 568.735 284.936 568.191 284.2C567.658 283.464 566.943 283.096 566.047 283.096C565.14 283.096 564.415 283.464 563.871 284.2C563.338 284.936 563.071 286.003 563.071 287.4C563.071 288.797 563.338 289.864 563.871 290.6C564.415 291.336 565.14 291.704 566.047 291.704ZM581.016 293.128C580.131 293.128 579.341 292.904 578.648 292.456C577.965 291.997 577.427 291.336 577.032 290.472C576.637 289.608 576.44 288.584 576.44 287.4C576.44 286.216 576.637 285.192 577.032 284.328C577.427 283.464 577.965 282.808 578.648 282.36C579.341 281.901 580.131 281.672 581.016 281.672C581.891 281.672 582.669 281.901 583.352 282.36C584.045 282.808 584.589 283.464 584.984 284.328C585.379 285.192 585.576 286.216 585.576 287.4C585.576 288.584 585.379 289.608 584.984 290.472C584.589 291.336 584.045 291.997 583.352 292.456C582.669 292.904 581.891 293.128 581.016 293.128ZM581.016 291.704C581.912 291.704 582.627 291.336 583.16 290.6C583.704 289.864 583.976 288.797 583.976 287.4C583.976 286.003 583.704 284.936 583.16 284.2C582.627 283.464 581.912 283.096 581.016 283.096C580.109 283.096 579.384 283.464 578.84 284.2C578.307 284.936 578.04 286.003 578.04 287.4C578.04 288.797 578.307 289.864 578.84 290.6C579.384 291.336 580.109 291.704 581.016 291.704ZM591.688 293.128C590.802 293.128 590.013 292.904 589.32 292.456C588.637 291.997 588.098 291.336 587.704 290.472C587.309 289.608 587.112 288.584 587.112 287.4C587.112 286.216 587.309 285.192 587.704 284.328C588.098 283.464 588.637 282.808 589.32 282.36C590.013 281.901 590.802 281.672 591.688 281.672C592.562 281.672 593.341 281.901 594.024 282.36C594.717 282.808 595.261 283.464 595.656 284.328C596.05 285.192 596.248 286.216 596.248 287.4C596.248 288.584 596.05 289.608 595.656 290.472C595.261 291.336 594.717 291.997 594.024 292.456C593.341 292.904 592.562 293.128 591.688 293.128ZM591.688 291.704C592.584 291.704 593.298 291.336 593.832 290.6C594.376 289.864 594.648 288.797 594.648 287.4C594.648 286.003 594.376 284.936 593.832 284.2C593.298 283.464 592.584 283.096 591.688 283.096C590.781 283.096 590.056 283.464 589.512 284.2C588.978 284.936 588.712 286.003 588.712 287.4C588.712 288.797 588.978 289.864 589.512 290.6C590.056 291.336 590.781 291.704 591.688 291.704ZM602.36 293.128C601.474 293.128 600.685 292.904 599.992 292.456C599.309 291.997 598.77 291.336 598.376 290.472C597.981 289.608 597.784 288.584 597.784 287.4C597.784 286.216 597.981 285.192 598.376 284.328C598.77 283.464 599.309 282.808 599.992 282.36C600.685 281.901 601.474 281.672 602.36 281.672C603.234 281.672 604.013 281.901 604.696 282.36C605.389 282.808 605.933 283.464 606.328 284.328C606.722 285.192 606.92 286.216 606.92 287.4C606.92 288.584 606.722 289.608 606.328 290.472C605.933 291.336 605.389 291.997 604.696 292.456C604.013 292.904 603.234 293.128 602.36 293.128ZM602.36 291.704C603.256 291.704 603.97 291.336 604.504 290.6C605.048 289.864 605.32 288.797 605.32 287.4C605.32 286.003 605.048 284.936 604.504 284.2C603.97 283.464 603.256 283.096 602.36 283.096C601.453 283.096 600.728 283.464 600.184 284.2C599.65 284.936 599.384 286.003 599.384 287.4C599.384 288.797 599.65 289.864 600.184 290.6C600.728 291.336 601.453 291.704 602.36 291.704Z" fill="#030E2B"></path><path d="M48.944 286.888V291.32H46.544V289H38.64V291.32H36.24L36.256 286.888H36.704C37.376 286.867 37.8507 286.376 38.128 285.416C38.4053 284.456 38.576 283.085 38.64 281.304L38.768 277.8H47.376V286.888H48.944ZM40.928 281.544C40.8747 282.877 40.7627 283.997 40.592 284.904C40.4213 285.8 40.16 286.461 39.808 286.888H44.816V279.912H40.976L40.928 281.544ZM56.0329 289.192C54.8702 289.192 53.8195 288.941 52.8809 288.44C51.9529 287.939 51.2222 287.251 50.6889 286.376C50.1662 285.491 49.9049 284.499 49.9049 283.4C49.9049 282.301 50.1662 281.315 50.6889 280.44C51.2222 279.555 51.9529 278.861 52.8809 278.36C53.8195 277.859 54.8702 277.608 56.0329 277.608C57.1955 277.608 58.2409 277.859 59.1689 278.36C60.0969 278.861 60.8275 279.555 61.3609 280.44C61.8942 281.315 62.1609 282.301 62.1609 283.4C62.1609 284.499 61.8942 285.491 61.3609 286.376C60.8275 287.251 60.0969 287.939 59.1689 288.44C58.2409 288.941 57.1955 289.192 56.0329 289.192ZM56.0329 286.984C56.6942 286.984 57.2915 286.835 57.8249 286.536C58.3582 286.227 58.7742 285.8 59.0729 285.256C59.3822 284.712 59.5369 284.093 59.5369 283.4C59.5369 282.707 59.3822 282.088 59.0729 281.544C58.7742 281 58.3582 280.579 57.8249 280.28C57.2915 279.971 56.6942 279.816 56.0329 279.816C55.3715 279.816 54.7742 279.971 54.2409 280.28C53.7075 280.579 53.2862 281 52.9769 281.544C52.6782 282.088 52.5289 282.707 52.5289 283.4C52.5289 284.093 52.6782 284.712 52.9769 285.256C53.2862 285.8 53.7075 286.227 54.2409 286.536C54.7742 286.835 55.3715 286.984 56.0329 286.984ZM73.1529 282.36C74.1342 282.52 74.8862 282.888 75.4089 283.464C75.9315 284.029 76.1929 284.733 76.1929 285.576C76.1929 286.227 76.0222 286.829 75.6809 287.384C75.3395 287.928 74.8169 288.365 74.1129 288.696C73.4195 289.027 72.5662 289.192 71.5529 289.192C70.7635 289.192 69.9849 289.091 69.2169 288.888C68.4595 288.675 67.8142 288.376 67.2809 287.992L68.2889 286.008C68.7155 286.328 69.2062 286.579 69.7609 286.76C70.3262 286.931 70.9022 287.016 71.4889 287.016C72.1395 287.016 72.6515 286.893 73.0249 286.648C73.3982 286.392 73.5849 286.035 73.5849 285.576C73.5849 284.659 72.8862 284.2 71.4889 284.2H70.3049V282.488L72.6089 279.88H67.8409V277.8H75.6809V279.48L73.1529 282.36ZM82.5435 282.36C83.5248 282.52 84.2768 282.888 84.7995 283.464C85.3222 284.029 85.5835 284.733 85.5835 285.576C85.5835 286.227 85.4128 286.829 85.0715 287.384C84.7302 287.928 84.2075 288.365 83.5035 288.696C82.8102 289.027 81.9568 289.192 80.9435 289.192C80.1542 289.192 79.3755 289.091 78.6075 288.888C77.8502 288.675 77.2048 288.376 76.6715 287.992L77.6795 286.008C78.1062 286.328 78.5968 286.579 79.1515 286.76C79.7168 286.931 80.2928 287.016 80.8795 287.016C81.5302 287.016 82.0422 286.893 82.4155 286.648C82.7888 286.392 82.9755 286.035 82.9755 285.576C82.9755 284.659 82.2768 284.2 80.8795 284.2H79.6955V282.488L81.9995 279.88H77.2315V277.8H85.0715V279.48L82.5435 282.36ZM102.288 277.8V289H99.7115V279.912H94.6555V289H92.0795V277.8H102.288ZM112.648 286.6H107.448L106.456 289H103.8L108.792 277.8H111.352L116.36 289H113.64L112.648 286.6ZM111.832 284.632L110.056 280.344L108.28 284.632H111.832ZM127.923 277.8V289H125.363V279.912H121.523L121.443 282.248C121.39 283.837 121.262 285.128 121.059 286.12C120.856 287.101 120.515 287.859 120.035 288.392C119.566 288.915 118.904 289.176 118.051 289.176C117.699 289.176 117.272 289.117 116.771 289L116.931 286.808C117.07 286.851 117.224 286.872 117.395 286.872C118.014 286.872 118.446 286.509 118.691 285.784C118.936 285.048 119.091 283.901 119.155 282.344L119.315 277.8H127.923ZM140.626 277.8V289H138.066V279.912H134.226L134.146 282.248C134.093 283.837 133.965 285.128 133.762 286.12C133.559 287.101 133.218 287.859 132.738 288.392C132.269 288.915 131.607 289.176 130.754 289.176C130.402 289.176 129.975 289.117 129.474 289L129.634 286.808C129.773 286.851 129.927 286.872 130.098 286.872C130.717 286.872 131.149 286.509 131.394 285.784C131.639 285.048 131.794 283.901 131.858 282.344L132.018 277.8H140.626ZM152.095 286.92V289H143.423V277.8H151.887V279.88H145.999V282.312H151.199V284.328H145.999V286.92H152.095ZM162.749 279.912H159.165V289H156.605V279.912H153.037V277.8H162.749V279.912ZM164.565 286.024C165.013 286.024 165.381 286.168 165.669 286.456C165.957 286.733 166.101 287.101 166.101 287.56C166.101 287.773 166.074 287.987 166.021 288.2C165.968 288.413 165.85 288.733 165.669 289.16L164.757 291.464H163.173L163.877 288.92C163.61 288.813 163.397 288.643 163.237 288.408C163.088 288.163 163.013 287.88 163.013 287.56C163.013 287.101 163.157 286.733 163.445 286.456C163.744 286.168 164.117 286.024 164.565 286.024ZM184.116 286.888V291.32H181.716V289H173.812V291.32H171.412L171.428 286.888H171.876C172.548 286.867 173.023 286.376 173.3 285.416C173.577 284.456 173.748 283.085 173.812 281.304L173.94 277.8H182.548V286.888H184.116ZM176.1 281.544C176.047 282.877 175.935 283.997 175.764 284.904C175.593 285.8 175.332 286.461 174.98 286.888H179.988V279.912H176.148L176.1 281.544ZM191.205 289.192C190.042 289.192 188.991 288.941 188.053 288.44C187.125 287.939 186.394 287.251 185.861 286.376C185.338 285.491 185.077 284.499 185.077 283.4C185.077 282.301 185.338 281.315 185.861 280.44C186.394 279.555 187.125 278.861 188.053 278.36C188.991 277.859 190.042 277.608 191.205 277.608C192.367 277.608 193.413 277.859 194.341 278.36C195.269 278.861 195.999 279.555 196.533 280.44C197.066 281.315 197.333 282.301 197.333 283.4C197.333 284.499 197.066 285.491 196.533 286.376C195.999 287.251 195.269 287.939 194.341 288.44C193.413 288.941 192.367 289.192 191.205 289.192ZM191.205 286.984C191.866 286.984 192.463 286.835 192.997 286.536C193.53 286.227 193.946 285.8 194.245 285.256C194.554 284.712 194.709 284.093 194.709 283.4C194.709 282.707 194.554 282.088 194.245 281.544C193.946 281 193.53 280.579 192.997 280.28C192.463 279.971 191.866 279.816 191.205 279.816C190.543 279.816 189.946 279.971 189.413 280.28C188.879 280.579 188.458 281 188.149 281.544C187.85 282.088 187.701 282.707 187.701 283.4C187.701 284.093 187.85 284.712 188.149 285.256C188.458 285.8 188.879 286.227 189.413 286.536C189.946 286.835 190.543 286.984 191.205 286.984ZM210.757 283.112C211.311 283.389 211.733 283.752 212.021 284.2C212.319 284.648 212.469 285.165 212.469 285.752C212.469 286.445 212.271 287.053 211.877 287.576C211.482 288.088 210.927 288.488 210.213 288.776C209.498 289.053 208.671 289.192 207.733 289.192C206.794 289.192 205.967 289.053 205.253 288.776C204.549 288.488 203.999 288.088 203.605 287.576C203.221 287.053 203.029 286.445 203.029 285.752C203.029 285.165 203.173 284.648 203.461 284.2C203.759 283.752 204.181 283.389 204.725 283.112C204.309 282.856 203.989 282.536 203.765 282.152C203.541 281.757 203.429 281.309 203.429 280.808C203.429 280.157 203.61 279.592 203.973 279.112C204.335 278.632 204.842 278.264 205.493 278.008C206.143 277.741 206.89 277.608 207.733 277.608C208.586 277.608 209.338 277.741 209.989 278.008C210.65 278.264 211.162 278.632 211.525 279.112C211.887 279.592 212.069 280.157 212.069 280.808C212.069 281.309 211.957 281.757 211.733 282.152C211.509 282.536 211.183 282.856 210.757 283.112ZM207.733 279.512C207.21 279.512 206.789 279.64 206.469 279.896C206.159 280.141 206.005 280.483 206.005 280.92C206.005 281.347 206.159 281.683 206.469 281.928C206.778 282.173 207.199 282.296 207.733 282.296C208.266 282.296 208.693 282.173 209.013 281.928C209.333 281.683 209.493 281.347 209.493 280.92C209.493 280.483 209.333 280.141 209.013 279.896C208.693 279.64 208.266 279.512 207.733 279.512ZM207.733 287.288C208.383 287.288 208.895 287.144 209.269 286.856C209.653 286.557 209.845 286.163 209.845 285.672C209.845 285.181 209.653 284.792 209.269 284.504C208.895 284.216 208.383 284.072 207.733 284.072C207.093 284.072 206.586 284.216 206.213 284.504C205.839 284.792 205.653 285.181 205.653 285.672C205.653 286.173 205.839 286.568 206.213 286.856C206.586 287.144 207.093 287.288 207.733 287.288ZM222.023 286.888V289H213.559V287.32L217.879 283.24C218.338 282.803 218.647 282.429 218.807 282.12C218.967 281.8 219.047 281.485 219.047 281.176C219.047 280.728 218.893 280.387 218.583 280.152C218.285 279.907 217.842 279.784 217.255 279.784C216.765 279.784 216.322 279.88 215.927 280.072C215.533 280.253 215.202 280.531 214.935 280.904L213.047 279.688C213.485 279.037 214.087 278.531 214.855 278.168C215.623 277.795 216.503 277.608 217.495 277.608C218.327 277.608 219.053 277.747 219.671 278.024C220.301 278.291 220.786 278.675 221.127 279.176C221.479 279.667 221.655 280.248 221.655 280.92C221.655 281.528 221.527 282.099 221.271 282.632C221.015 283.165 220.519 283.773 219.783 284.456L217.207 286.888H222.023ZM238.584 289L238.568 282.296L235.272 287.816H234.12L230.824 282.424V289H228.392V277.8H230.536L234.728 284.76L238.856 277.8H241L241.016 289H238.584ZM246.774 279.784C247.414 279.88 247.905 280.099 248.246 280.44C248.588 280.781 248.758 281.208 248.758 281.72C248.758 282.104 248.641 282.461 248.406 282.792C248.182 283.123 247.836 283.389 247.366 283.592C246.897 283.795 246.321 283.896 245.638 283.896C245.062 283.896 244.502 283.827 243.958 283.688C243.425 283.549 243.004 283.368 242.694 283.144L243.334 281.864C243.633 282.067 243.985 282.227 244.39 282.344C244.796 282.451 245.201 282.504 245.606 282.504C246.065 282.504 246.406 282.435 246.63 282.296C246.865 282.157 246.982 281.965 246.982 281.72C246.982 281.219 246.561 280.968 245.718 280.968H244.774V279.88L246.23 278.456H242.982V277.128H248.39V278.2L246.774 279.784Z" fill="#030E2B"></path><line x1="385.5" y1="311" x2="385.5" y2="1" stroke="#DEDEDE"></line><line x1="-1.52812e-08" y1="129.5" x2="1160" y2="129.5" stroke="#DEDEDE"></line><line x1="-1.52812e-08" y1="174.5" x2="1160" y2="174.5" stroke="#DEDEDE"></line><line x1="-1.52812e-08" y1="219.5" x2="1160" y2="219.5" stroke="#DEDEDE"></line><line x1="-1.52812e-08" y1="264.5" x2="1160" y2="264.5" stroke="#DEDEDE"></line><line x1="771.5" y1="310" x2="771.5" y2="1" stroke="#DEDEDE"></line></svg>