<?xml version="1.0" encoding="utf-8"?>
<!-- Generator: Adobe Illustrator 25.4.1, SVG Export Plug-In . SVG Version: 6.00 Build 0)  -->
<svg version="1.1" id="Слой_1" xmlns="http://www.w3.org/2000/svg" xmlns:xlink="http://www.w3.org/1999/xlink" x="0px" y="0px"
	 viewBox="0 0 100 100" style="enable-background:new 0 0 100 100;" xml:space="preserve">
<path d="M50.3,50c0.6,0,1-0.2,1.4-0.6s0.6-0.9,0.6-1.4c0-0.6-0.2-1-0.6-1.4S50.9,46,50.3,46c-0.6,0-1,0.2-1.4,0.6
	c-0.4,0.4-0.6,0.9-0.6,1.4c0,0.6,0.2,1,0.6,1.4S49.8,50,50.3,50z M50.3,60c-2.7-2.3-4.7-4.4-6-6.4c-1.3-2-2-3.8-2-5.4
	c0-2.5,0.8-4.5,2.4-6c1.6-1.5,3.5-2.2,5.6-2.2c2.1,0,4,0.7,5.6,2.2c1.6,1.5,2.4,3.5,2.4,6c0,1.7-0.7,3.5-2,5.4
	C55,55.6,53,57.7,50.3,60z"/>
</svg>
